<svg width="513" height="292" viewBox="0 0 513 292" fill="none" xmlns="http://www.w3.org/2000/svg">
<path d="M490.552 279.182H459.396V266.232C462.162 267.646 465.295 268.444 468.613 268.444C468.82 268.444 469.027 268.44 469.234 268.433C480.142 268.106 488.882 259.161 488.882 248.174C488.882 237.111 480.02 228.118 469.006 227.909C468.875 227.906 468.744 227.906 468.613 227.906C465.295 227.906 462.162 228.703 459.396 230.118V223.783H450.946V191.976H469.993L490.552 212.155V279.182Z" fill="#9CBFC7"/>
<path d="M443.695 223.782H423.026V176.63H401.378H423.026H443.695V223.782Z" fill="#9CBFC7"/>
<path d="M459.396 279.182H440.532L439.521 277.573H442.912L437.867 269.544H440.238L435.436 261.903H437.678L433.673 255.529H435.91L430.636 247.134L425.36 255.529H427.598L423.591 261.903H425.833L423.026 266.372V259.953V223.783H443.695H450.946H459.396V230.118C452.836 233.474 448.344 240.299 448.344 248.174C448.344 256.049 452.836 262.876 459.396 266.232V279.182ZM423.026 270.145V269.544H423.402L423.026 270.145Z" fill="#9CBFC7"/>
<path d="M339.702 279.182V176.63L323.301 158.968V115.539H366.923V142.979H339.702V176.63H361.35H339.702V279.182Z" fill="#9CBFC7"/>
<path d="M323.301 158.968L320.474 155.921V147.786H312.92L298.042 131.763L284.392 146.462V115.539V86.7307H323.301V115.539V158.968Z" fill="#9CBFC7"/>
<path d="M173.056 231.948V142.978H138.952V124.928H188.34V155.89L173.056 170.219H188.34V174.401L173.056 176.629V231.948Z" fill="#9CBFC7"/>
<path d="M256.379 227.924V176.63L253.175 173.425L251.741 173.594L248.368 170.221H256.379L230.741 146.185H228.374V143.25H237.393C239.14 149.272 244.785 153.68 251.481 153.68C258.176 153.68 263.821 149.272 265.568 143.25H277.759V147.787H275.608V155.922L256.379 176.63H260.41H256.379V227.924Z" fill="#9CBFC7"/>
<path d="M89.7328 279.182H63.2126L61.8882 271.557H63.3134L61.3454 269.533H60.8751V256.097H74.9866C78.2276 260.724 83.6009 263.751 89.678 263.751C89.6974 263.751 89.7151 263.751 89.7328 263.751V279.182ZM56.2762 279.182H22.2061V197.674H32.0717V248.611C28.3814 250.644 25.8811 254.571 25.8811 259.082C25.8811 265.68 31.2311 271.031 37.8293 271.031C44.4279 271.031 49.7783 265.68 49.7783 259.082C49.7783 258.051 49.6475 257.052 49.4017 256.097H58.6137V269.533H58.1451L56.1754 271.557H57.6005L56.2762 279.182ZM84.0306 228.813V197.674H89.7328V227.906C89.7151 227.906 89.6974 227.906 89.678 227.906C87.7047 227.906 85.8058 228.224 84.0306 228.813Z" fill="#9CBFC7"/>
<path d="M74.9863 256.097H60.8748V240.42H60.3108V238.985H61.0375L62.6306 238.166H61.8862L62.1107 237.376H72.5215V167.656H84.0303V197.674V228.813C76.8994 231.178 71.7559 237.903 71.7559 245.827C71.7559 249.648 72.9512 253.188 74.9863 256.097ZM58.6134 256.097H49.4014C48.0753 250.943 43.3968 247.134 37.829 247.134C35.7426 247.134 33.7787 247.67 32.0714 248.61V197.674V167.656H43.5807V237.376H57.3775L57.6038 238.166H56.8594L58.4507 238.985H59.745H59.1792V240.42H58.6134V256.097Z" fill="#9CBFC7"/>
<path d="M72.5217 237.376H62.111L62.5353 235.894L64.261 229.844H64.9736L62.088 226.875H60.311V224.278C60.7601 224.087 61.0943 223.675 61.1739 223.178C61.1756 223.169 61.1774 223.16 61.1792 223.151C61.1792 223.143 61.1809 223.134 61.1827 223.125C61.1827 223.125 61.1827 223.125 61.1827 223.123C61.1827 223.114 61.1845 223.107 61.1845 223.098C61.1862 223.097 61.1862 223.097 61.1862 223.097C61.1862 223.088 61.188 223.079 61.188 223.07C61.188 223.07 61.188 223.07 61.188 223.068C61.188 223.059 61.1898 223.052 61.1898 223.043C61.1898 223.042 61.1898 223.042 61.1898 223.04C61.1915 223.033 61.1915 223.024 61.1915 223.015V223.013C61.1915 223.008 61.1915 223.005 61.1915 223.001C61.1915 223.001 61.1915 223.001 61.1915 222.999C61.1933 222.996 61.1933 222.992 61.1933 222.989C61.1933 222.987 61.1933 222.987 61.1933 222.985C61.1933 222.982 61.1933 222.976 61.1933 222.973C61.1933 222.967 61.1933 222.964 61.1933 222.96C61.1933 222.959 61.1933 222.959 61.1933 222.957C61.1933 222.953 61.1933 222.948 61.1933 222.944C61.1933 222.907 61.1915 222.87 61.1898 222.833C61.1314 222.085 60.5073 221.496 59.7452 221.496C58.9442 221.496 58.2971 222.145 58.2971 222.944C58.2971 223.544 58.6613 224.058 59.1794 224.278V226.875H57.4007L54.5168 229.844H55.2276L55.5123 230.839L57.3777 237.376H43.5809V167.657V148.936L58.0513 131.184L72.5217 148.936V167.657V237.376Z" fill="#9CBFC7"/>
<path d="M251.482 153.679C244.786 153.679 239.14 149.271 237.393 143.248C237.029 141.995 236.834 140.672 236.834 139.304C236.834 131.365 243.392 124.929 251.482 124.929C259.569 124.929 266.127 131.365 266.127 139.304C266.127 140.672 265.933 141.995 265.568 143.248C263.821 149.271 258.176 153.679 251.482 153.679Z" fill="#9CBFC7"/>
<path d="M182.671 32.0473C182.671 49.7463 168.323 64.0947 150.624 64.0947C132.923 64.0947 118.576 49.7463 118.576 32.0473C118.576 14.3483 132.923 -7.62939e-05 150.624 -7.62939e-05C168.323 -7.62939e-05 182.671 14.3483 182.671 32.0473Z" fill="#FFC200"/>
<path d="M444.56 285.591L439.521 277.572H442.912L437.868 269.543H440.239L435.436 261.903H437.678L433.674 255.529H435.91L430.636 247.134L425.36 255.529H427.598L423.592 261.903H425.834L421.031 269.543H423.403L418.36 277.572H421.751L416.712 285.591H444.56Z" fill="#89D425"/>
<path d="M440.239 269.543L435.436 261.903L440.239 269.543ZM437.678 261.903L433.674 255.529H435.91L430.636 247.134L435.91 255.529H433.674L437.678 261.903Z" fill="#6D858B"/>
<path d="M440.532 279.182H430.636V247.134L435.91 255.529H433.674L437.678 261.903H435.436L440.239 269.544H437.868L442.912 277.573H439.521L440.532 279.182Z" fill="#60941A"/>
<path d="M49.7782 259.08C49.7782 265.679 44.4278 271.029 37.8291 271.029C31.231 271.029 25.881 265.679 25.881 259.08C25.881 252.482 31.231 247.133 37.8291 247.133C44.4278 247.133 49.7782 252.482 49.7782 259.08Z" fill="#89D425"/>
<path d="M37.8291 271.029V247.133C44.4278 247.133 49.7781 252.482 49.7781 259.08C49.7781 265.679 44.4278 271.029 37.8291 271.029Z" fill="#60941A"/>
<path d="M39.0243 285.591H36.6338V255.72H39.0243V285.591Z" fill="#5A351F"/>
<path d="M37.8293 270.832L30.9562 263.325L31.8369 262.518L36.634 267.759V264.529L43.1142 258.641L43.9169 259.525L37.8293 265.057V270.832Z" fill="#5A351F"/>
<path d="M488.882 248.174C488.882 259.368 479.808 268.443 468.614 268.443C457.419 268.443 448.344 259.368 448.344 248.174C448.344 236.979 457.419 227.905 468.614 227.905C479.808 227.905 488.882 236.979 488.882 248.174Z" fill="#89D425"/>
<path d="M488.882 248.174C488.882 237.111 480.02 228.118 469.006 227.909C480.02 228.118 488.882 237.111 488.882 248.174Z" fill="#6D858B"/>
<path d="M468.614 268.443V227.905C468.744 227.905 468.875 227.905 469.006 227.909C480.02 228.118 488.882 237.11 488.882 248.174C488.882 259.161 480.142 268.106 469.234 268.433C469.027 268.44 468.821 268.443 468.614 268.443Z" fill="#60941A"/>
<path d="M470.134 285.591H467.094V243.106H470.134V285.591Z" fill="#5A351F"/>
<path d="M467.6 268.061V258.297L457.761 248.908L459.158 247.442L469.627 257.431V262.942L478.027 253.995L479.505 255.383L467.6 268.061Z" fill="#5A351F"/>
<path d="M0 285.591H512.758V279.181H0V285.591Z" fill="#89D425"/>
<path d="M0 292H512.758V285.591H0V292Z" fill="#58595B"/>
<path d="M89.7328 285.591H173.056V176.63H89.7328V285.591Z" fill="#F46425"/>
<path d="M89.7328 285.591H173.056V239.121H89.7328V285.591Z" fill="#BCBEC0"/>
<path d="M89.7328 285.591H173.056V271.169H89.7328V285.591Z" fill="#939598"/>
<path d="M130.814 243.928H131.975C140.947 243.928 148.219 251.202 148.219 260.174V285.591H114.57V260.174C114.57 251.202 121.842 243.928 130.814 243.928Z" fill="#58595B"/>
<path d="M166.646 205.472H153.828V192.432C153.828 189.014 156.598 186.243 160.016 186.243H160.458C163.876 186.243 166.646 189.014 166.646 192.432V205.472Z" fill="#4EC3CC"/>
<path d="M154.229 205.071H166.245V192.431C166.245 189.239 163.649 186.644 160.458 186.644H160.016C156.824 186.644 154.229 189.239 154.229 192.431V205.071ZM167.048 205.872H153.426V192.431C153.426 188.799 156.382 185.843 160.016 185.843H160.458C164.091 185.843 167.048 188.799 167.048 192.431V205.872Z" fill="white"/>
<path d="M153.828 193.054H166.646V192.252H153.828V193.054Z" fill="white"/>
<path d="M153.828 199.463H166.646V198.662H153.828V199.463Z" fill="white"/>
<path d="M159.836 205.472H160.638V186.243H159.836V205.472Z" fill="white"/>
<path d="M147.418 205.472H134.599V192.432C134.599 189.014 137.37 186.243 140.788 186.243H141.23C144.647 186.243 147.418 189.014 147.418 192.432V205.472Z" fill="#4EC3CC"/>
<path d="M135 205.071H147.017V192.431C147.017 189.239 144.421 186.644 141.229 186.644H140.787C137.596 186.644 135 189.239 135 192.431V205.071ZM147.819 205.872H134.198V192.431C134.198 188.799 137.154 185.843 140.787 185.843H141.229C144.863 185.843 147.819 188.799 147.819 192.431V205.872Z" fill="white"/>
<path d="M134.599 193.054H147.418V192.252H134.599V193.054Z" fill="white"/>
<path d="M134.599 199.463H147.418V198.662H134.599V199.463Z" fill="white"/>
<path d="M140.607 205.472H141.41V186.243H140.607V205.472Z" fill="white"/>
<path d="M108.16 205.472H95.3412V192.432C95.3412 189.014 98.1119 186.243 101.53 186.243H101.972C105.389 186.243 108.16 189.014 108.16 192.432V205.472Z" fill="#4EC3CC"/>
<path d="M95.7408 205.071H107.759V192.431C107.759 189.239 105.163 186.644 101.972 186.644H101.53C98.3382 186.644 95.7408 189.239 95.7408 192.431V205.071ZM108.56 205.872H94.9398V192.431C94.9398 188.799 97.8961 185.843 101.53 185.843H101.972C105.605 185.843 108.56 188.799 108.56 192.431V205.872Z" fill="white"/>
<path d="M95.3412 193.054H108.16V192.252H95.3412V193.054Z" fill="white"/>
<path d="M108.16 199.463H95.3412V198.662H108.16V199.463Z" fill="white"/>
<path d="M101.349 205.472H102.151V186.243H101.349V205.472Z" fill="white"/>
<path d="M128.19 205.472H115.371V192.432C115.371 189.014 118.141 186.243 121.559 186.243H122.001C125.419 186.243 128.19 189.014 128.19 192.432V205.472Z" fill="#4EC3CC"/>
<path d="M115.772 205.071H127.788V192.431C127.788 189.239 125.193 186.644 122.001 186.644H121.559C118.368 186.644 115.772 189.239 115.772 192.431V205.071ZM128.591 205.872H114.969V192.431C114.969 188.799 117.926 185.843 121.559 185.843H122.001C125.635 185.843 128.591 188.799 128.591 192.431V205.872Z" fill="white"/>
<path d="M115.371 193.054H128.19V192.252H115.371V193.054Z" fill="white"/>
<path d="M115.371 199.463H128.19V198.662H115.371V199.463Z" fill="white"/>
<path d="M121.379 205.472H122.181V186.243H121.379V205.472Z" fill="white"/>
<path d="M95.3412 234.314H108.16V215.086H95.3412V234.314Z" fill="#4EC3CC"/>
<path d="M95.7408 233.914H107.759V215.486H95.7408V233.914ZM108.56 234.715H94.9398V214.685H108.56V234.715Z" fill="white"/>
<path d="M108.16 221.896H95.3412V221.095H108.16V221.896Z" fill="white"/>
<path d="M95.3412 228.305H108.16V227.504H95.3412V228.305Z" fill="white"/>
<path d="M101.349 234.314H102.151V215.086H101.349V234.314Z" fill="white"/>
<path d="M115.371 234.314H128.19V215.086H115.371V234.314Z" fill="#4EC3CC"/>
<path d="M115.772 233.914H127.788V215.486H115.772V233.914ZM128.591 234.715H114.969V214.685H128.591V234.715Z" fill="white"/>
<path d="M128.19 221.896H115.371V221.095H128.19V221.896Z" fill="white"/>
<path d="M128.19 228.305H115.371V227.504H128.19V228.305Z" fill="white"/>
<path d="M122.182 234.314H121.379V215.086H122.182V234.314Z" fill="white"/>
<path d="M153.828 234.314H166.646V215.086H153.828V234.314Z" fill="#4EC3CC"/>
<path d="M154.229 233.914H166.245V215.486H154.229V233.914ZM167.048 234.715H153.426V214.685H167.048V234.715Z" fill="white"/>
<path d="M153.828 221.896H166.646V221.095H153.828V221.896Z" fill="white"/>
<path d="M153.828 228.305H166.646V227.504H153.828V228.305Z" fill="white"/>
<path d="M159.836 234.314H160.638V215.086H159.836V234.314Z" fill="white"/>
<path d="M134.599 234.314H147.418V215.086H134.599V234.314Z" fill="#4EC3CC"/>
<path d="M135 233.914H147.017V215.486H135V233.914ZM147.819 234.715H134.198V214.685H147.819V234.715Z" fill="white"/>
<path d="M134.599 221.896H147.418V221.095H134.599V221.896Z" fill="white"/>
<path d="M134.599 228.305H147.418V227.504H134.599V228.305Z" fill="white"/>
<path d="M140.607 234.314H141.41V215.086H140.607V234.314Z" fill="white"/>
<path d="M95.3412 263.157H108.16V243.929H95.3412V263.157Z" fill="#4EC3CC"/>
<path d="M95.7408 262.757H107.759V244.329H95.7408V262.757ZM108.56 263.558H94.9398V243.528H108.56V263.558Z" fill="white"/>
<path d="M95.3412 250.739H108.16V249.938H95.3412V250.739Z" fill="white"/>
<path d="M95.3412 257.148H108.16V256.347H95.3412V257.148Z" fill="white"/>
<path d="M101.349 263.157H102.151V243.929H101.349V263.157Z" fill="white"/>
<path d="M153.828 263.157H166.646V243.929H153.828V263.157Z" fill="#4EC3CC"/>
<path d="M154.229 262.757H166.245V244.329H154.229V262.757ZM167.048 263.558H153.426V243.528H167.048V263.558Z" fill="white"/>
<path d="M153.828 250.739H166.646V249.938H153.828V250.739Z" fill="white"/>
<path d="M153.828 257.148H166.646V256.347H153.828V257.148Z" fill="white"/>
<path d="M159.836 263.157H160.638V243.929H159.836V263.157Z" fill="white"/>
<path d="M89.7328 176.629H173.056V142.978H89.7328V176.629Z" fill="#4F2510"/>
<path d="M168.549 239.12H152.226L147.818 234.714H147.819V214.685H134.198V221.094L128.591 215.486V214.685H127.788L118.976 205.872H128.591V192.431C128.591 188.799 125.635 185.843 122.001 185.843H121.559C117.926 185.843 114.969 188.799 114.969 192.431V201.866L108.56 195.456V192.431C108.56 188.799 105.605 185.843 101.972 185.843H101.53C100.757 185.843 100.014 185.975 99.3249 186.221L89.7328 176.629H167.448C167.448 177.513 168.524 178.231 169.85 178.231C171.178 178.231 172.255 177.513 172.255 176.629H173.056V231.949L168.549 239.12ZM153.426 214.685V234.714H167.048V214.685H153.426ZM160.016 185.843C156.383 185.843 153.426 188.799 153.426 192.431V205.872H167.048V192.431C167.048 188.799 164.092 185.843 160.458 185.843H160.016ZM140.788 185.843C137.154 185.843 134.198 188.799 134.198 192.431V205.872H147.819V192.431C147.819 188.799 144.863 185.843 141.23 185.843H140.788Z" fill="#DB5A21"/>
<path d="M167.048 252.203V250.058H168.395L167.048 252.203ZM167.048 246.853V243.529H156.632L152.226 239.121H168.549L167.684 240.498H171.04L167.048 246.853Z" fill="#A9ABAC"/>
<path d="M166.245 205.072H160.638V199.464H166.245V205.072ZM159.836 205.072H154.229V199.464H159.836V205.072ZM166.245 198.663H160.638V193.054H166.245V198.663ZM159.836 198.663H154.229V193.054H159.836V198.663ZM166.243 192.253H160.638V186.647C163.687 186.74 166.15 189.203 166.243 192.253ZM159.836 192.253H154.231C154.324 189.203 156.787 186.74 159.836 186.647V192.253Z" fill="#46AFB7"/>
<path d="M167.048 205.872H153.426V192.431C153.426 188.799 156.382 185.843 160.016 185.843H160.458C164.091 185.843 167.048 188.799 167.048 192.431V205.872ZM159.836 205.071V205.471H160.638V205.071H166.245V199.463H166.646V198.662H166.245V193.053H166.646V192.252H166.243C166.15 189.202 163.687 186.739 160.638 186.645V186.242H159.836V186.645C156.787 186.739 154.324 189.202 154.231 192.252H153.827V193.053H154.229V198.662H153.827V199.463H154.229V205.071H159.836Z" fill="#E5E5E5"/>
<path d="M166.646 193.054H160.638V192.253H166.646V193.054ZM159.836 193.054H154.229H153.828V192.253H154.231H159.836V193.054Z" fill="#E5E5E5"/>
<path d="M166.646 199.463H160.638V198.662H166.646V199.463ZM159.836 199.463H154.229H153.828V198.662H154.229H159.836V199.463Z" fill="#E5E5E5"/>
<path d="M160.639 205.472H159.836V186.243H160.639V186.646V192.253V193.054V198.663V199.464V205.072V205.472Z" fill="#E5E5E5"/>
<path d="M147.017 205.072H141.41V199.464H147.017V205.072ZM140.607 205.072H135V199.464H140.607V205.072ZM147.017 198.663H141.41V193.054H147.017V198.663ZM140.607 198.663H135V193.054H140.607V198.663ZM147.015 192.253H141.41V186.647C144.458 186.74 146.921 189.203 147.015 192.253ZM140.607 192.253H135.002C135.096 189.203 137.559 186.74 140.607 186.647V192.253Z" fill="#46AFB7"/>
<path d="M147.819 205.872H134.198V192.431C134.198 188.799 137.154 185.843 140.787 185.843H141.229C144.863 185.843 147.819 188.799 147.819 192.431V205.872ZM140.607 205.071V205.471H141.41V205.071H147.017V199.463H147.418V198.662H147.017V193.053H147.418V192.252H147.015C146.921 189.202 144.458 186.739 141.41 186.645V186.242H140.607V186.645C137.559 186.739 135.096 189.202 135.002 192.252H134.599V193.053H135V198.662H134.599V199.463H135V205.071H140.607Z" fill="#E5E5E5"/>
<path d="M147.418 193.054H141.41V192.253H147.418V193.054ZM140.607 193.054H135H134.599V192.253H135.002H140.607V193.054Z" fill="#E5E5E5"/>
<path d="M147.418 199.463H141.41V198.662H147.418V199.463ZM140.607 199.463H135H134.599V198.662H135H140.607V199.463Z" fill="#E5E5E5"/>
<path d="M141.41 205.472H140.607V186.243H141.41V186.646V192.253V193.054V198.663V199.464V205.072V205.472Z" fill="#E5E5E5"/>
<path d="M107.759 194.656L106.157 193.054H107.759V194.656ZM107.757 192.253H105.356L102.15 189.048V186.647C105.2 186.74 107.663 189.203 107.757 192.253ZM101.349 188.247L99.9631 186.861C100.405 186.735 100.87 186.663 101.349 186.647V188.247Z" fill="#46AFB7"/>
<path d="M108.56 195.456L107.759 194.655V193.053H108.16V192.252H107.757C107.663 189.202 105.2 186.739 102.15 186.645V186.242H101.349V186.645C100.87 186.661 100.405 186.734 99.963 186.859L99.3247 186.221C100.014 185.975 100.757 185.843 101.53 185.843H101.972C105.605 185.843 108.56 188.799 108.56 192.431V195.456Z" fill="#E5E5E5"/>
<path d="M108.16 193.054H106.157L105.356 192.253H108.16V193.054Z" fill="#E5E5E5"/>
<path d="M102.15 189.047L101.349 188.246V186.243H102.15V186.646V189.047Z" fill="#E5E5E5"/>
<path d="M127.788 205.072H122.182V199.464H127.788V205.072ZM121.379 205.072H118.175L115.772 202.668V199.464H121.379V205.072ZM127.788 198.663H122.182V193.054H127.788V198.663ZM121.379 198.663H115.772V193.054H121.379V198.663ZM127.787 192.253H122.182V186.647C125.23 186.74 127.693 189.203 127.787 192.253ZM121.379 192.253H115.774C115.868 189.203 118.331 186.74 121.379 186.647V192.253Z" fill="#46AFB7"/>
<path d="M128.591 205.872H118.976L118.175 205.071H121.379V205.471H122.181V205.071H127.788V199.463H128.19V198.662H127.788V193.053H128.19V192.252H127.786C127.693 189.202 125.23 186.739 122.181 186.645V186.242H121.379V186.645C118.33 186.739 115.867 189.202 115.774 192.252H115.371V193.053H115.772V198.662H115.371V199.463H115.772V202.666L114.969 201.865V192.431C114.969 188.799 117.926 185.843 121.559 185.843H122.001C125.635 185.843 128.591 188.799 128.591 192.431V205.872Z" fill="#E5E5E5"/>
<path d="M128.19 193.054H122.181V192.253H128.19V193.054ZM121.379 193.054H115.772H115.371V192.253H115.774H121.379V193.054Z" fill="#E5E5E5"/>
<path d="M128.19 199.463H122.181V198.662H128.19V199.463ZM121.379 199.463H115.772H115.371V198.662H115.772H121.379V199.463Z" fill="#E5E5E5"/>
<path d="M122.182 205.472H121.379V186.243H122.182V186.646V192.253V193.054V198.663V199.464V205.072V205.472Z" fill="#E5E5E5"/>
<path d="M128.591 215.486L127.788 214.685H128.591V215.486Z" fill="#E5E5E5"/>
<path d="M166.245 233.913H160.638V228.305H166.245V233.913ZM159.836 233.913H154.229V228.305H159.836V233.913ZM166.245 227.504H160.638V221.895H166.245V227.504ZM159.836 227.504H154.229V221.895H159.836V227.504ZM166.245 221.094H160.638V215.486H166.245V221.094ZM159.836 221.094H154.229V215.486H159.836V221.094Z" fill="#46AFB7"/>
<path d="M167.048 234.715H153.426V214.685H167.048V234.715ZM159.836 233.914V234.315H160.638V233.914H166.245V228.305H166.646V227.504H166.245V221.896H166.646V221.095H166.245V215.486H160.638V215.087H159.836V215.486H154.229V221.095H153.827V221.896H154.229V227.504H153.827V228.305H154.229V233.914H159.836Z" fill="#E5E5E5"/>
<path d="M166.646 221.896H160.638V221.095H166.646V221.896ZM159.836 221.896H154.229H153.828V221.095H154.229H159.836V221.896Z" fill="#E5E5E5"/>
<path d="M166.646 228.305H160.638V227.504H166.646V228.305ZM159.836 228.305H154.229H153.828V227.504H154.229H159.836V228.305Z" fill="#E5E5E5"/>
<path d="M160.639 234.314H159.836V215.086H160.639V215.486V221.094V221.895V227.504V228.305V233.913V234.314Z" fill="#E5E5E5"/>
<path d="M147.017 233.913L141.41 228.305H147.017V233.913ZM147.017 227.504H141.41V221.895H147.017V227.504ZM140.607 227.504L135 221.895H140.607V227.504ZM147.017 221.094H141.41V215.486H147.017V221.094ZM140.607 221.094H135V215.486H140.607V221.094Z" fill="#46AFB7"/>
<path d="M147.819 234.715L147.017 233.914V228.305H147.418V227.504H147.017V221.896H147.418V221.095H147.017V215.486H141.41V215.087H140.607V215.486H135V221.095H134.599V221.496L134.198 221.095V214.685H147.819V234.715ZM135 221.896H134.999H135Z" fill="#E5E5E5"/>
<path d="M147.418 221.896H141.41V221.095H147.418V221.896ZM140.607 221.896H135H134.999L134.599 221.496V221.095H135H140.607V221.896Z" fill="#E5E5E5"/>
<path d="M147.418 228.305H141.41V227.504H147.418V228.305Z" fill="#E5E5E5"/>
<path d="M141.41 228.305L140.607 227.504V215.086H141.41V215.486V221.094V221.895V227.504V228.305Z" fill="#E5E5E5"/>
<path d="M166.245 253.142L163.842 250.739H166.245V253.142ZM165.108 249.938H163.041L160.638 247.533V244.329H166.245V248.127L165.108 249.938ZM159.836 246.732L157.433 244.329H159.836V246.732Z" fill="#46AFB7"/>
<path d="M166.376 253.272L166.245 253.142V250.739H166.647V250.058H167.048V252.203L166.376 253.272ZM166.245 248.127V244.329H160.638V243.928H159.836V244.329H157.433L156.632 243.528H167.048V246.852L166.245 248.127Z" fill="#E5E5E5"/>
<path d="M166.646 250.739H163.842L163.041 249.938H165.108L165.032 250.059H166.646V250.739Z" fill="#E5E5E5"/>
<path d="M160.639 247.533L159.836 246.732V243.928H160.639V244.329V247.533Z" fill="#E5E5E5"/>
<path d="M92.9385 147.786C91.6106 147.786 90.5338 147.068 90.5338 146.184V152.593C90.5338 153.477 91.6106 154.195 92.9385 154.195C94.2646 154.195 95.3414 153.477 95.3414 152.593V146.184C95.3414 147.068 94.2646 147.786 92.9385 147.786Z" fill="#804423"/>
<path d="M92.9385 155.798C91.6106 155.798 90.5338 155.081 90.5338 154.196V160.605C90.5338 161.491 91.6106 162.207 92.9385 162.207C94.2646 162.207 95.3414 161.491 95.3414 160.605V154.196C95.3414 155.081 94.2646 155.798 92.9385 155.798Z" fill="#804423"/>
<path d="M92.9385 163.811C91.6106 163.811 90.5338 163.093 90.5338 162.208V168.617C90.5338 169.503 91.6106 170.221 92.9385 170.221C94.2646 170.221 95.3414 169.503 95.3414 168.617V162.208C95.3414 163.093 94.2646 163.811 92.9385 163.811Z" fill="#804423"/>
<path d="M92.9385 171.822C91.6106 171.822 90.5338 171.104 90.5338 170.22V176.63C90.5338 177.514 91.6106 178.231 92.9385 178.231C94.2646 178.231 95.3414 177.514 95.3414 176.63V170.22C95.3414 171.104 94.2646 171.822 92.9385 171.822Z" fill="#804423"/>
<path d="M99.3478 147.786C98.0199 147.786 96.9431 147.068 96.9431 146.184V152.593C96.9431 153.477 98.0199 154.195 99.3478 154.195C100.674 154.195 101.751 153.477 101.751 152.593V146.184C101.751 147.068 100.674 147.786 99.3478 147.786Z" fill="#804423"/>
<path d="M99.3478 155.798C98.0199 155.798 96.9431 155.081 96.9431 154.196V160.605C96.9431 161.491 98.0199 162.207 99.3478 162.207C100.674 162.207 101.751 161.491 101.751 160.605V154.196C101.751 155.081 100.674 155.798 99.3478 155.798Z" fill="#804423"/>
<path d="M99.3478 163.811C98.0199 163.811 96.9431 163.093 96.9431 162.208V168.617C96.9431 169.503 98.0199 170.221 99.3478 170.221C100.674 170.221 101.751 169.503 101.751 168.617V162.208C101.751 163.093 100.674 163.811 99.3478 163.811Z" fill="#804423"/>
<path d="M99.3478 171.822C98.0199 171.822 96.9431 171.104 96.9431 170.22V176.63C96.9431 177.514 98.0199 178.231 99.3478 178.231C100.674 178.231 101.751 177.514 101.751 176.63V170.22C101.751 171.104 100.674 171.822 99.3478 171.822Z" fill="#804423"/>
<path d="M105.757 147.786C104.429 147.786 103.353 147.068 103.353 146.184V152.593C103.353 153.477 104.429 154.195 105.757 154.195C107.083 154.195 108.16 153.477 108.16 152.593V146.184C108.16 147.068 107.083 147.786 105.757 147.786Z" fill="#804423"/>
<path d="M105.757 155.798C104.429 155.798 103.353 155.081 103.353 154.196V160.605C103.353 161.491 104.429 162.207 105.757 162.207C107.083 162.207 108.16 161.491 108.16 160.605V154.196C108.16 155.081 107.083 155.798 105.757 155.798Z" fill="#804423"/>
<path d="M105.757 163.811C104.429 163.811 103.353 163.093 103.353 162.208V168.617C103.353 169.503 104.429 170.221 105.757 170.221C107.083 170.221 108.16 169.503 108.16 168.617V162.208C108.16 163.093 107.083 163.811 105.757 163.811Z" fill="#804423"/>
<path d="M105.757 171.822C104.429 171.822 103.353 171.104 103.353 170.22V176.63C103.353 177.514 104.429 178.231 105.757 178.231C107.083 178.231 108.16 177.514 108.16 176.63V170.22C108.16 171.104 107.083 171.822 105.757 171.822Z" fill="#804423"/>
<path d="M112.167 147.786C110.839 147.786 109.762 147.068 109.762 146.184V152.593C109.762 153.477 110.839 154.195 112.167 154.195C113.493 154.195 114.57 153.477 114.57 152.593V146.184C114.57 147.068 113.493 147.786 112.167 147.786Z" fill="#804423"/>
<path d="M112.167 155.798C110.839 155.798 109.762 155.081 109.762 154.196V160.605C109.762 161.491 110.839 162.207 112.167 162.207C113.493 162.207 114.57 161.491 114.57 160.605V154.196C114.57 155.081 113.493 155.798 112.167 155.798Z" fill="#804423"/>
<path d="M112.167 163.811C110.839 163.811 109.762 163.093 109.762 162.208V168.617C109.762 169.503 110.839 170.221 112.167 170.221C113.493 170.221 114.57 169.503 114.57 168.617V162.208C114.57 163.093 113.493 163.811 112.167 163.811Z" fill="#804423"/>
<path d="M112.167 171.822C110.839 171.822 109.762 171.104 109.762 170.22V176.63C109.762 177.514 110.839 178.231 112.167 178.231C113.493 178.231 114.57 177.514 114.57 176.63V170.22C114.57 171.104 113.493 171.822 112.167 171.822Z" fill="#804423"/>
<path d="M118.576 147.786C117.248 147.786 116.172 147.068 116.172 146.184V152.593C116.172 153.477 117.248 154.195 118.576 154.195C119.902 154.195 120.979 153.477 120.979 152.593V146.184C120.979 147.068 119.902 147.786 118.576 147.786Z" fill="#804423"/>
<path d="M118.576 155.798C117.248 155.798 116.172 155.081 116.172 154.196V160.605C116.172 161.491 117.248 162.207 118.576 162.207C119.902 162.207 120.979 161.491 120.979 160.605V154.196C120.979 155.081 119.902 155.798 118.576 155.798Z" fill="#804423"/>
<path d="M118.576 163.811C117.248 163.811 116.172 163.093 116.172 162.208V168.617C116.172 169.503 117.248 170.221 118.576 170.221C119.902 170.221 120.979 169.503 120.979 168.617V162.208C120.979 163.093 119.902 163.811 118.576 163.811Z" fill="#804423"/>
<path d="M118.576 171.822C117.248 171.822 116.172 171.104 116.172 170.22V176.63C116.172 177.514 117.248 178.231 118.576 178.231C119.902 178.231 120.979 177.514 120.979 176.63V170.22C120.979 171.104 119.902 171.822 118.576 171.822Z" fill="#804423"/>
<path d="M124.986 147.786C123.658 147.786 122.581 147.068 122.581 146.184V152.593C122.581 153.477 123.658 154.195 124.986 154.195C126.312 154.195 127.388 153.477 127.388 152.593V146.184C127.388 147.068 126.312 147.786 124.986 147.786Z" fill="#804423"/>
<path d="M124.986 155.798C123.658 155.798 122.581 155.081 122.581 154.196V160.605C122.581 161.491 123.658 162.207 124.986 162.207C126.312 162.207 127.388 161.491 127.388 160.605V154.196C127.388 155.081 126.312 155.798 124.986 155.798Z" fill="#804423"/>
<path d="M124.986 163.811C123.658 163.811 122.581 163.093 122.581 162.208V168.617C122.581 169.503 123.658 170.221 124.986 170.221C126.312 170.221 127.388 169.503 127.388 168.617V162.208C127.388 163.093 126.312 163.811 124.986 163.811Z" fill="#804423"/>
<path d="M124.986 171.822C123.658 171.822 122.581 171.104 122.581 170.22V176.63C122.581 177.514 123.658 178.231 124.986 178.231C126.312 178.231 127.388 177.514 127.388 176.63V170.22C127.388 171.104 126.312 171.822 124.986 171.822Z" fill="#804423"/>
<path d="M131.395 147.786C130.068 147.786 128.991 147.068 128.991 146.184V152.593C128.991 153.477 130.068 154.195 131.395 154.195C132.721 154.195 133.798 153.477 133.798 152.593V146.184C133.798 147.068 132.721 147.786 131.395 147.786Z" fill="#804423"/>
<path d="M131.395 155.798C130.068 155.798 128.991 155.081 128.991 154.196V160.605C128.991 161.491 130.068 162.207 131.395 162.207C132.721 162.207 133.798 161.491 133.798 160.605V154.196C133.798 155.081 132.721 155.798 131.395 155.798Z" fill="#804423"/>
<path d="M131.395 163.811C130.068 163.811 128.991 163.093 128.991 162.208V168.617C128.991 169.503 130.068 170.221 131.395 170.221C132.721 170.221 133.798 169.503 133.798 168.617V162.208C133.798 163.093 132.721 163.811 131.395 163.811Z" fill="#804423"/>
<path d="M131.395 171.822C130.068 171.822 128.991 171.104 128.991 170.22V176.63C128.991 177.514 130.068 178.231 131.395 178.231C132.721 178.231 133.798 177.514 133.798 176.63V170.22C133.798 171.104 132.721 171.822 131.395 171.822Z" fill="#804423"/>
<path d="M137.805 147.786C136.477 147.786 135.4 147.068 135.4 146.184V152.593C135.4 153.477 136.477 154.195 137.805 154.195C139.131 154.195 140.208 153.477 140.208 152.593V146.184C140.208 147.068 139.131 147.786 137.805 147.786Z" fill="#804423"/>
<path d="M137.805 155.798C136.477 155.798 135.4 155.081 135.4 154.196V160.605C135.4 161.491 136.477 162.207 137.805 162.207C139.131 162.207 140.208 161.491 140.208 160.605V154.196C140.208 155.081 139.131 155.798 137.805 155.798Z" fill="#804423"/>
<path d="M137.805 163.811C136.477 163.811 135.4 163.093 135.4 162.208V168.617C135.4 169.503 136.477 170.221 137.805 170.221C139.131 170.221 140.208 169.503 140.208 168.617V162.208C140.208 163.093 139.131 163.811 137.805 163.811Z" fill="#804423"/>
<path d="M137.805 171.822C136.477 171.822 135.4 171.104 135.4 170.22V176.63C135.4 177.514 136.477 178.231 137.805 178.231C139.131 178.231 140.208 177.514 140.208 176.63V170.22C140.208 171.104 139.131 171.822 137.805 171.822Z" fill="#804423"/>
<path d="M144.214 147.786C142.886 147.786 141.809 147.068 141.809 146.184V152.593C141.809 153.477 142.886 154.195 144.214 154.195C145.54 154.195 146.617 153.477 146.617 152.593V146.184C146.617 147.068 145.54 147.786 144.214 147.786Z" fill="#804423"/>
<path d="M144.214 155.798C142.886 155.798 141.809 155.081 141.809 154.196V160.605C141.809 161.491 142.886 162.207 144.214 162.207C145.54 162.207 146.617 161.491 146.617 160.605V154.196C146.617 155.081 145.54 155.798 144.214 155.798Z" fill="#804423"/>
<path d="M144.214 163.811C142.886 163.811 141.809 163.093 141.809 162.208V168.617C141.809 169.503 142.886 170.221 144.214 170.221C145.54 170.221 146.617 169.503 146.617 168.617V162.208C146.617 163.093 145.54 163.811 144.214 163.811Z" fill="#804423"/>
<path d="M144.214 171.822C142.886 171.822 141.809 171.104 141.809 170.22V176.63C141.809 177.514 142.886 178.231 144.214 178.231C145.54 178.231 146.617 177.514 146.617 176.63V170.22C146.617 171.104 145.54 171.822 144.214 171.822Z" fill="#804423"/>
<path d="M150.624 147.786C149.296 147.786 148.219 147.068 148.219 146.184V152.593C148.219 153.477 149.296 154.195 150.624 154.195C151.95 154.195 153.027 153.477 153.027 152.593V146.184C153.027 147.068 151.95 147.786 150.624 147.786Z" fill="#804423"/>
<path d="M150.624 155.798C149.296 155.798 148.219 155.081 148.219 154.196V160.605C148.219 161.491 149.296 162.207 150.624 162.207C151.95 162.207 153.027 161.491 153.027 160.605V154.196C153.027 155.081 151.95 155.798 150.624 155.798Z" fill="#804423"/>
<path d="M150.624 163.811C149.296 163.811 148.219 163.093 148.219 162.208V168.617C148.219 169.503 149.296 170.221 150.624 170.221C151.95 170.221 153.027 169.503 153.027 168.617V162.208C153.027 163.093 151.95 163.811 150.624 163.811Z" fill="#804423"/>
<path d="M150.624 171.822C149.296 171.822 148.219 171.104 148.219 170.22V176.63C148.219 177.514 149.296 178.231 150.624 178.231C151.95 178.231 153.027 177.514 153.027 176.63V170.22C153.027 171.104 151.95 171.822 150.624 171.822Z" fill="#804423"/>
<path d="M157.033 147.786C155.705 147.786 154.629 147.068 154.629 146.184V152.593C154.629 153.477 155.705 154.195 157.033 154.195C158.359 154.195 159.436 153.477 159.436 152.593V146.184C159.436 147.068 158.359 147.786 157.033 147.786Z" fill="#804423"/>
<path d="M157.033 155.798C155.705 155.798 154.629 155.081 154.629 154.196V160.605C154.629 161.491 155.705 162.207 157.033 162.207C158.359 162.207 159.436 161.491 159.436 160.605V154.196C159.436 155.081 158.359 155.798 157.033 155.798Z" fill="#804423"/>
<path d="M157.033 163.811C155.705 163.811 154.629 163.093 154.629 162.208V168.617C154.629 169.503 155.705 170.221 157.033 170.221C158.359 170.221 159.436 169.503 159.436 168.617V162.208C159.436 163.093 158.359 163.811 157.033 163.811Z" fill="#804423"/>
<path d="M157.033 171.822C155.705 171.822 154.629 171.104 154.629 170.22V176.63C154.629 177.514 155.705 178.231 157.033 178.231C158.359 178.231 159.436 177.514 159.436 176.63V170.22C159.436 171.104 158.359 171.822 157.033 171.822Z" fill="#804423"/>
<path d="M163.442 147.786C162.115 147.786 161.038 147.068 161.038 146.184V152.593C161.038 153.477 162.115 154.195 163.442 154.195C164.769 154.195 165.845 153.477 165.845 152.593V146.184C165.845 147.068 164.769 147.786 163.442 147.786Z" fill="#804423"/>
<path d="M163.442 155.798C162.115 155.798 161.038 155.081 161.038 154.196V160.605C161.038 161.491 162.115 162.207 163.442 162.207C164.769 162.207 165.845 161.491 165.845 160.605V154.196C165.845 155.081 164.769 155.798 163.442 155.798Z" fill="#804423"/>
<path d="M163.442 163.811C162.115 163.811 161.038 163.093 161.038 162.208V168.617C161.038 169.503 162.115 170.221 163.442 170.221C164.769 170.221 165.845 169.503 165.845 168.617V162.208C165.845 163.093 164.769 163.811 163.442 163.811Z" fill="#804423"/>
<path d="M163.442 171.822C162.115 171.822 161.038 171.104 161.038 170.22V176.63C161.038 177.514 162.115 178.231 163.442 178.231C164.769 178.231 165.845 177.514 165.845 176.63V170.22C165.845 171.104 164.769 171.822 163.442 171.822Z" fill="#804423"/>
<path d="M169.852 147.786C168.524 147.786 167.448 147.068 167.448 146.184V152.593C167.448 153.477 168.524 154.195 169.852 154.195C171.178 154.195 172.255 153.477 172.255 152.593V146.184C172.255 147.068 171.178 147.786 169.852 147.786Z" fill="#804423"/>
<path d="M169.852 155.798C168.524 155.798 167.448 155.081 167.448 154.196V160.605C167.448 161.491 168.524 162.207 169.852 162.207C171.178 162.207 172.255 161.491 172.255 160.605V154.196C172.255 155.081 171.178 155.798 169.852 155.798Z" fill="#804423"/>
<path d="M169.852 163.811C168.524 163.811 167.448 163.093 167.448 162.208V168.617C167.448 169.503 168.524 170.221 169.852 170.221C171.178 170.221 172.255 169.503 172.255 168.617V162.208C172.255 163.093 171.178 163.811 169.852 163.811Z" fill="#804423"/>
<path d="M169.85 171.822C168.524 171.822 167.448 171.104 167.448 170.22V176.63C167.448 177.514 168.524 178.231 169.85 178.231C171.178 178.231 172.255 177.514 172.255 176.63V170.22C172.255 171.104 171.178 171.822 169.85 171.822Z" fill="#804423"/>
<path d="M169.852 150.992C171.178 150.992 172.255 151.71 172.255 152.594V146.184C172.255 145.3 171.178 144.582 169.852 144.582C168.524 144.582 167.448 145.3 167.448 146.184V152.594C167.448 151.71 168.524 150.992 169.852 150.992Z" fill="#804423"/>
<path d="M163.442 150.992C164.769 150.992 165.845 151.71 165.845 152.594V146.184C165.845 145.3 164.769 144.582 163.442 144.582C162.115 144.582 161.038 145.3 161.038 146.184V152.594C161.038 151.71 162.115 150.992 163.442 150.992Z" fill="#804423"/>
<path d="M157.033 150.992C158.359 150.992 159.436 151.71 159.436 152.594V146.184C159.436 145.3 158.359 144.582 157.033 144.582C155.705 144.582 154.629 145.3 154.629 146.184V152.594C154.629 151.71 155.705 150.992 157.033 150.992Z" fill="#804423"/>
<path d="M150.624 150.992C151.95 150.992 153.027 151.71 153.027 152.594V146.184C153.027 145.3 151.95 144.582 150.624 144.582C149.296 144.582 148.219 145.3 148.219 146.184V152.594C148.219 151.71 149.296 150.992 150.624 150.992Z" fill="#804423"/>
<path d="M144.214 150.992C145.54 150.992 146.617 151.71 146.617 152.594V146.184C146.617 145.3 145.54 144.582 144.214 144.582C142.886 144.582 141.809 145.3 141.809 146.184V152.594C141.809 151.71 142.886 150.992 144.214 150.992Z" fill="#804423"/>
<path d="M137.805 150.992C139.131 150.992 140.208 151.71 140.208 152.594V146.184C140.208 145.3 139.131 144.582 137.805 144.582C136.477 144.582 135.4 145.3 135.4 146.184V152.594C135.4 151.71 136.477 150.992 137.805 150.992Z" fill="#804423"/>
<path d="M131.395 150.992C132.721 150.992 133.798 151.71 133.798 152.594V146.184C133.798 145.3 132.721 144.582 131.395 144.582C130.068 144.582 128.991 145.3 128.991 146.184V152.594C128.991 151.71 130.068 150.992 131.395 150.992Z" fill="#804423"/>
<path d="M124.986 150.992C126.312 150.992 127.388 151.71 127.388 152.594V146.184C127.388 145.3 126.312 144.582 124.986 144.582C123.658 144.582 122.581 145.3 122.581 146.184V152.594C122.581 151.71 123.658 150.992 124.986 150.992Z" fill="#804423"/>
<path d="M118.576 150.992C119.902 150.992 120.979 151.71 120.979 152.594V146.184C120.979 145.3 119.902 144.582 118.576 144.582C117.248 144.582 116.172 145.3 116.172 146.184V152.594C116.172 151.71 117.248 150.992 118.576 150.992Z" fill="#804423"/>
<path d="M112.167 150.992C113.493 150.992 114.57 151.71 114.57 152.594V146.184C114.57 145.3 113.493 144.582 112.167 144.582C110.839 144.582 109.762 145.3 109.762 146.184V152.594C109.762 151.71 110.839 150.992 112.167 150.992Z" fill="#804423"/>
<path d="M105.757 150.992C107.083 150.992 108.16 151.71 108.16 152.594V146.184C108.16 145.3 107.083 144.582 105.757 144.582C104.429 144.582 103.353 145.3 103.353 146.184V152.594C103.353 151.71 104.429 150.992 105.757 150.992Z" fill="#804423"/>
<path d="M99.3478 150.992C100.674 150.992 101.751 151.71 101.751 152.594V146.184C101.751 145.3 100.674 144.582 99.3478 144.582C98.0199 144.582 96.9431 145.3 96.9431 146.184V152.594C96.9431 151.71 98.0199 150.992 99.3478 150.992Z" fill="#804423"/>
<path d="M92.9385 150.992C94.2646 150.992 95.3414 151.71 95.3414 152.594V146.184C95.3414 145.3 94.2646 144.582 92.9385 144.582C91.6106 144.582 90.5338 145.3 90.5338 146.184V152.594C90.5338 151.71 91.6106 150.992 92.9385 150.992Z" fill="#804423"/>
<path d="M148.219 271.17V260.174C148.219 257.493 147.57 254.963 146.421 252.735C147.57 254.905 148.219 257.356 148.219 259.953V271.17ZM115.974 253.558L115.972 253.556C115.995 253.508 116.018 253.459 116.041 253.409C116.018 253.459 115.995 253.508 115.974 253.558Z" fill="#96989A"/>
<path d="M148.219 284.267L115.974 253.558C115.995 253.508 116.018 253.459 116.041 253.409C118.668 247.824 124.551 243.928 131.393 243.928C137.96 243.928 143.648 247.511 146.421 252.735C147.57 254.963 148.219 257.494 148.219 260.174V271.17V284.267Z" fill="#464749"/>
<path d="M131.146 256.747H131.643C135.488 256.747 138.606 259.864 138.606 263.71V285.591H124.183V263.71C124.183 259.864 127.3 256.747 131.146 256.747Z" fill="#252626"/>
<path d="M198.694 146.185H230.741L256.379 170.221H173.056L198.694 146.185Z" fill="#755138"/>
<path d="M173.056 285.591H256.379V176.63H173.056V285.591Z" fill="#B38867"/>
<path d="M173.056 285.591H256.379V271.169H173.056V285.591Z" fill="#D8B49C"/>
<path d="M198.694 176.629H230.741V152.593H198.694V176.629Z" fill="#B38867"/>
<path d="M237.151 234.314H249.97V215.086H237.151V234.314Z" fill="#96E8EA"/>
<path d="M237.552 233.914H249.568V215.486H237.552V233.914ZM250.371 234.715H236.75V214.685H250.371V234.715Z" fill="#755138"/>
<path d="M237.151 228.305H249.97V227.504H237.151V228.305Z" fill="#755138"/>
<path d="M178.664 234.314H191.483V215.086H178.664V234.314Z" fill="#96E8EA"/>
<path d="M179.064 233.914H191.082V215.486H179.064V233.914ZM191.883 234.715H178.263V214.685H191.883V234.715Z" fill="#755138"/>
<path d="M191.483 228.305H178.664V227.504H191.483V228.305Z" fill="#755138"/>
<path d="M198.694 234.314H211.513V215.086H198.694V234.314Z" fill="#96E8EA"/>
<path d="M199.095 233.914H211.112V215.486H199.095V233.914ZM211.914 234.715H198.293V214.685H211.914V234.715Z" fill="#755138"/>
<path d="M211.513 228.305H198.694V227.504H211.513V228.305Z" fill="#755138"/>
<path d="M217.922 234.314H230.741V215.086H217.922V234.314Z" fill="#96E8EA"/>
<path d="M218.324 233.914H230.34V215.486H218.324V233.914ZM231.143 234.715H217.521V214.685H231.143V234.715Z" fill="#755138"/>
<path d="M217.922 228.305H230.741V227.504H217.922V228.305Z" fill="#755138"/>
<path d="M237.151 263.157H249.97V243.929H237.151V263.157Z" fill="#96E8EA"/>
<path d="M237.552 262.757H249.568V244.329H237.552V262.757ZM250.371 263.558H236.75V243.528H250.371V263.558Z" fill="#755138"/>
<path d="M237.151 257.148H249.97V256.347H237.151V257.148Z" fill="#755138"/>
<path d="M178.664 263.157H191.483V243.929H178.664V263.157Z" fill="#96E8EA"/>
<path d="M179.064 262.757H191.082V244.329H179.064V262.757ZM191.883 263.558H178.263V243.528H191.883V263.558Z" fill="#755138"/>
<path d="M178.664 257.148H191.483V256.347H178.664V257.148Z" fill="#755138"/>
<path d="M178.664 205.472H191.483V186.243H178.664V205.472Z" fill="#96E8EA"/>
<path d="M179.064 205.071H191.082V186.644H179.064V205.071ZM191.883 205.872H178.263V185.843H191.883V205.872Z" fill="#755138"/>
<path d="M191.483 199.463H178.664V198.662H191.483V199.463Z" fill="#755138"/>
<path d="M198.694 205.472H211.513V186.243H198.694V205.472Z" fill="#96E8EA"/>
<path d="M199.095 205.071H211.112V186.644H199.095V205.071ZM211.914 205.872H198.293V185.843H211.914V205.872Z" fill="#755138"/>
<path d="M198.694 199.463H211.513V198.662H198.694V199.463Z" fill="#755138"/>
<path d="M217.922 205.472H230.741V186.243H217.922V205.472Z" fill="#96E8EA"/>
<path d="M218.324 205.071H230.34V186.644H218.324V205.071ZM231.143 205.872H217.521V185.843H231.143V205.872Z" fill="#755138"/>
<path d="M217.922 199.463H230.741V198.662H217.922V199.463Z" fill="#755138"/>
<path d="M237.151 205.472H249.97V186.243H237.151V205.472Z" fill="#96E8EA"/>
<path d="M237.552 205.071H249.568V186.644H237.552V205.071ZM250.371 205.872H236.75V185.843H250.371V205.872Z" fill="#755138"/>
<path d="M237.151 199.463H249.97V198.662H237.151V199.463Z" fill="#755138"/>
<path d="M205.104 275.976H224.332V243.928H205.104V275.976Z" fill="#755138"/>
<path d="M207.519 258.352H213.115V245.533H207.519V258.352Z" fill="#96E8EA"/>
<path d="M216.32 258.352H221.897V245.533H216.32V258.352Z" fill="#96E8EA"/>
<path d="M224.332 279.182H205.104V275.976H224.332V279.182Z" fill="#B38867"/>
<path d="M227.538 282.386H201.9V279.182H227.538V282.386Z" fill="#B38867"/>
<path d="M230.741 285.591H198.694V282.385H230.741V285.591Z" fill="#B38867"/>
<path d="M222.73 165.412C222.73 169.838 219.142 173.424 214.719 173.424C210.293 173.424 206.705 169.838 206.705 165.412C206.705 160.989 210.293 157.401 214.719 157.401C219.142 157.401 222.73 160.989 222.73 165.412Z" fill="#96E8EA"/>
<path d="M214.718 157.801C210.521 157.801 207.106 161.215 207.106 165.412C207.106 169.608 210.521 173.024 214.718 173.024C218.914 173.024 222.328 169.608 222.328 165.412C222.328 161.215 218.914 157.801 214.718 157.801ZM214.718 173.825C210.079 173.825 206.306 170.052 206.306 165.412C206.306 160.775 210.079 157 214.718 157C219.356 157 223.129 160.775 223.129 165.412C223.129 170.052 219.356 173.825 214.718 173.825Z" fill="#755138"/>
<path d="M206.705 165.813H222.731V165.011H206.705V165.813Z" fill="#755138"/>
<path d="M214.317 173.424H215.118V157.401H214.317V173.424Z" fill="#755138"/>
<path d="M256.379 271.17H229.145L224.332 266.357V243.928H205.104V247.129L198.699 240.724L229.836 239.851L236.75 246.764V263.558H250.371V262.411C251.315 262.8 252.3 263.109 253.319 263.334L256.379 266.394V271.17Z" fill="#8F6D52"/>
<path d="M256.379 285.591H243.565L229.145 271.17H256.379V279.181V285.591Z" fill="#AD907D"/>
<path d="M249.568 262.757H237.552V257.148H243.284C244.976 259.221 247.121 260.907 249.568 262.058V262.757ZM242.667 256.347H237.552V247.565L239.676 249.689C240.211 252.132 241.246 254.388 242.667 256.347Z" fill="#78BABB"/>
<path d="M250.371 263.558H236.75V246.764L237.552 247.565V256.347H237.151V257.148H237.552V262.757H249.568V262.058C249.832 262.182 250.101 262.299 250.371 262.41V263.558Z" fill="#5E412D"/>
<path d="M243.284 257.148H237.151V256.347H242.667C242.867 256.62 243.072 256.887 243.284 257.148Z" fill="#5E412D"/>
<path d="M224.332 266.357L216.326 258.351H221.897V245.532H216.321V258.344L213.115 255.14V245.532H207.519V249.544L205.104 247.129V243.929H224.332V266.357Z" fill="#5E412D"/>
<path d="M213.115 255.14L207.519 249.544V245.532H213.115V255.14Z" fill="#78BABB"/>
<path d="M221.897 258.352H216.326L216.32 258.344V245.533H221.897V258.352Z" fill="#78BABB"/>
<path d="M198.694 176.629H188.34V174.401L195.432 173.367L198.694 176.629Z" fill="#A4CAD2"/>
<path d="M188.34 176.629H173.056L188.34 174.401V176.629Z" fill="#8CACB3"/>
<path d="M239.472 243.046L231.141 234.714H231.143V214.685H217.521V221.095L211.914 215.486V214.685H211.111L202.299 205.873H211.914V189.848L217.521 195.457V205.873H227.937L236.749 214.685V234.714H243.118C241.246 237.08 239.958 239.93 239.472 243.046ZM250.371 229.244V228.305L251.046 228.982C250.818 229.065 250.594 229.152 250.371 229.244ZM198.292 201.866L191.883 195.457V185.843H182.27L173.056 176.63H188.34H198.694L207.908 185.843H198.292V201.866Z" fill="#A17A5C"/>
<path d="M243.79 233.913H237.552V228.305H249.568V229.597C247.358 230.635 245.396 232.111 243.79 233.913ZM249.568 227.504H237.552V215.486L249.568 227.504Z" fill="#87D0D2"/>
<path d="M243.118 234.715H236.75V214.685L237.552 215.486V227.504H237.151V228.305H237.552V233.914H243.79C243.559 234.174 243.334 234.443 243.118 234.715ZM249.568 229.598V228.305H249.97V227.906L250.371 228.305V229.244C250.101 229.356 249.832 229.474 249.568 229.598Z" fill="#694932"/>
<path d="M249.97 228.305H237.151V227.504H249.568L249.97 227.905V228.305Z" fill="#694932"/>
<path d="M211.914 215.486L211.111 214.685H211.914V215.486Z" fill="#694932"/>
<path d="M230.34 233.913L224.731 228.305H230.34V233.913ZM230.34 227.504H223.93L218.324 221.895V215.486H230.34V227.504Z" fill="#87D0D2"/>
<path d="M231.143 234.715L230.34 233.914V228.305H230.741V227.504H230.34V215.486H218.324V221.896L217.521 221.095V214.685H231.143V234.715Z" fill="#694932"/>
<path d="M230.741 228.305H224.731L223.93 227.504H230.741V228.305Z" fill="#694932"/>
<path d="M191.082 194.656L183.071 186.645H191.082V194.656Z" fill="#87D0D2"/>
<path d="M191.883 195.456L191.082 194.655V186.644H183.071L182.27 185.843H191.883V195.456Z" fill="#694932"/>
<path d="M211.111 205.072H201.498L199.095 202.668V199.464H211.111V205.072ZM211.111 198.663H199.095V186.645H208.709L211.111 189.048V198.663Z" fill="#87D0D2"/>
<path d="M211.914 205.872H202.299L201.498 205.071H211.112V199.463H211.513V198.662H211.112V189.046L211.914 189.847V205.872ZM199.095 202.666L198.293 201.865V185.843H207.908L208.709 186.644H199.095V198.662H198.694V199.463H199.095V202.666Z" fill="#694932"/>
<path d="M211.513 199.463H198.694V198.662H211.513V199.463Z" fill="#694932"/>
<path d="M227.136 205.072H218.324V199.464H221.528L227.136 205.072ZM220.727 198.663H218.324V196.258L220.727 198.663Z" fill="#87D0D2"/>
<path d="M227.937 205.872H217.521V195.456L218.324 196.257V198.662H217.922V199.463H218.324V205.071H227.136L227.937 205.872Z" fill="#694932"/>
<path d="M221.527 199.463H217.922V198.662H220.727L221.527 199.463Z" fill="#694932"/>
<path d="M256.379 210.279L250.371 204.271V196.258L256.379 202.268V210.279Z" fill="#A17A5C"/>
<path d="M230.741 176.063V170.22H248.368L251.741 173.593L230.741 176.063Z" fill="#8CACB3"/>
<path d="M248.368 170.221H230.741V152.594L248.368 170.221Z" fill="#694932"/>
<path d="M236.75 190.649L222.73 176.63H230.741L239.955 185.844H236.75V190.649Z" fill="#A17A5C"/>
<path d="M230.741 176.629H222.73L218.843 172.743C221.4 171.296 223.129 168.552 223.129 165.412C223.129 160.774 219.356 156.999 214.718 156.999C211.576 156.999 208.832 158.73 207.388 161.287L198.694 152.593H230.741V170.219V176.063L230.236 176.123L230.741 176.629Z" fill="#A17A5C"/>
<path d="M249.568 203.469L245.564 199.464H249.568V203.469ZM249.568 198.663H244.763L237.552 191.453V186.645H240.756L249.568 195.457V198.663Z" fill="#87D0D2"/>
<path d="M250.371 204.271L249.568 203.468V199.463H249.97V198.662H249.568V195.456L250.371 196.257V204.271ZM237.552 191.452L236.75 190.649V185.843H239.955L240.756 186.644H237.552V191.452Z" fill="#694932"/>
<path d="M249.97 199.463H245.563L244.762 198.662H249.97V199.463Z" fill="#694932"/>
<path d="M218.253 172.152L215.118 169.017V165.814H222.318C222.175 168.565 220.562 170.936 218.253 172.152ZM214.317 168.216L211.914 165.814H214.317V168.216ZM222.318 165.011H215.118V157.811C218.996 158.014 222.116 161.133 222.318 165.011ZM214.317 165.011H211.112L207.978 161.878C209.195 159.567 211.564 157.954 214.317 157.811V165.011Z" fill="#87D0D2"/>
<path d="M218.844 172.743L218.253 172.153C220.562 170.936 222.175 168.565 222.318 165.814H222.73V165.011H222.318C222.116 161.134 218.996 158.015 215.118 157.811V157.401H214.317V157.811C211.564 157.955 209.195 159.567 207.978 161.878L207.388 161.287C208.833 158.731 211.577 157 214.719 157C219.356 157 223.13 160.775 223.13 165.412C223.13 168.553 221.4 171.297 218.844 172.743Z" fill="#694932"/>
<path d="M222.73 165.813H215.118V165.011H222.73V165.813ZM214.317 165.813H211.914L211.111 165.011H214.317V165.813Z" fill="#694932"/>
<path d="M215.118 169.018L214.317 168.217V157.401H215.118V157.811V165.011V165.814V169.018Z" fill="#694932"/>
<path d="M256.379 176.629H254.777L251.741 173.593L253.175 173.423L256.379 176.629Z" fill="#8CACB3"/>
<path d="M256.379 178.231L254.777 176.63H256.379V178.231Z" fill="#A17A5C"/>
<path d="M254.777 176.629H230.741V176.063L251.741 173.593L254.777 176.629Z" fill="#7E9AA1"/>
<path d="M256.379 202.269L250.371 196.259V185.844H239.955L230.741 176.631H254.777L256.379 178.233V202.269Z" fill="#916E53"/>
<path d="M230.741 176.629L230.236 176.123L230.741 176.063V176.629Z" fill="#916E53"/>
<path d="M249.568 195.456L240.756 186.644H249.568V195.456Z" fill="#79BBBD"/>
<path d="M250.371 196.258L249.568 195.457V186.644H240.756L239.955 185.844H250.371V196.258Z" fill="#5E422D"/>
<path d="M173.056 170.219H198.694V176.629H173.056V170.219Z" fill="#D8B49C"/>
<path d="M230.741 170.219H256.379V176.629H230.741V170.219Z" fill="#D8B49C"/>
<path d="M230.747 240.725H198.699V237.519H230.747V240.725Z" fill="#D8B49C"/>
<path d="M256.379 176.629H339.702L298.042 131.763L256.379 176.629Z" fill="#816622"/>
<path d="M275.608 176.629H320.474V147.786H275.608V176.629Z" fill="#F8CC5B"/>
<path d="M256.379 285.591H339.702V176.63H256.379V285.591Z" fill="#F8CC5B"/>
<path d="M256.379 285.591H339.702V279.181H256.379V285.591Z" fill="#A8863B"/>
<path d="M282.017 176.629H294.836V157.4H282.017V176.629Z" fill="#4EC3CC"/>
<path d="M282.418 176.228H294.435V157.801H282.418V176.228ZM295.237 177.029H281.616V157H295.237V177.029Z" fill="white"/>
<path d="M282.017 164.21H294.836V163.409H282.017V164.21Z" fill="white"/>
<path d="M294.836 170.619H282.017V169.818H294.836V170.619Z" fill="white"/>
<path d="M288.025 176.629H288.828V157.4H288.025V176.629Z" fill="white"/>
<path d="M301.246 176.629H314.065V157.4H301.246V176.629Z" fill="#4EC3CC"/>
<path d="M301.647 176.228H313.663V157.801H301.647V176.228ZM314.466 177.029H300.844V157H314.466V177.029Z" fill="white"/>
<path d="M301.246 164.21H314.065V163.409H301.246V164.21Z" fill="white"/>
<path d="M301.246 170.619H314.065V169.819H301.246V170.619Z" fill="white"/>
<path d="M307.254 176.629H308.056V157.4H307.254V176.629Z" fill="white"/>
<path d="M262.789 205.472H275.608V186.243H262.789V205.472Z" fill="#4EC3CC"/>
<path d="M263.19 205.071H275.206V186.644H263.19V205.071ZM276.009 205.872H262.387V185.843H276.009V205.872Z" fill="white"/>
<path d="M262.789 193.054H275.608V192.252H262.789V193.054Z" fill="white"/>
<path d="M275.608 199.463H262.789V198.662H275.608V199.463Z" fill="white"/>
<path d="M268.797 205.472H269.599V186.243H268.797V205.472Z" fill="white"/>
<path d="M282.017 205.472H294.836V186.243H282.017V205.472Z" fill="#4EC3CC"/>
<path d="M282.418 205.071H294.435V186.644H282.418V205.071ZM295.237 205.872H281.616V185.843H295.237V205.872Z" fill="white"/>
<path d="M282.017 193.054H294.836V192.252H282.017V193.054Z" fill="white"/>
<path d="M282.017 199.463H294.836V198.662H282.017V199.463Z" fill="white"/>
<path d="M288.025 205.472H288.828V186.243H288.025V205.472Z" fill="white"/>
<path d="M301.246 205.472H314.065V186.243H301.246V205.472Z" fill="#4EC3CC"/>
<path d="M301.647 205.071H313.663V186.644H301.647V205.071ZM314.466 205.872H300.844V185.843H314.466V205.872Z" fill="white"/>
<path d="M314.065 193.054H301.246V192.253H314.065V193.054Z" fill="white"/>
<path d="M314.065 199.463H301.246V198.662H314.065V199.463Z" fill="white"/>
<path d="M307.254 205.472H308.056V186.243H307.254V205.472Z" fill="white"/>
<path d="M320.474 205.472H333.293V186.243H320.474V205.472Z" fill="#4EC3CC"/>
<path d="M320.875 205.071H332.892V186.644H320.875V205.071ZM333.694 205.872H320.073V185.843H333.694V205.872Z" fill="white"/>
<path d="M320.474 193.054H333.293V192.252H320.474V193.054Z" fill="white"/>
<path d="M320.474 199.463H333.293V198.662H320.474V199.463Z" fill="white"/>
<path d="M326.482 205.472H327.285V186.243H326.482V205.472Z" fill="white"/>
<path d="M262.789 234.314H275.608V215.086H262.789V234.314Z" fill="#4EC3CC"/>
<path d="M263.19 233.914H275.206V215.486H263.19V233.914ZM276.009 234.715H262.387V214.685H276.009V234.715Z" fill="white"/>
<path d="M275.608 221.896H262.789V221.095H275.608V221.896Z" fill="white"/>
<path d="M262.789 228.305H275.608V227.504H262.789V228.305Z" fill="white"/>
<path d="M268.797 234.314H269.599V215.086H268.797V234.314Z" fill="white"/>
<path d="M282.017 234.314H294.836V215.086H282.017V234.314Z" fill="#4EC3CC"/>
<path d="M282.418 233.914H294.435V215.486H282.418V233.914ZM295.237 234.715H281.616V214.685H295.237V234.715Z" fill="white"/>
<path d="M294.836 221.896H282.017V221.095H294.836V221.896Z" fill="white"/>
<path d="M294.836 228.305H282.017V227.504H294.836V228.305Z" fill="white"/>
<path d="M288.828 234.314H288.025V215.086H288.828V234.314Z" fill="white"/>
<path d="M301.246 234.314H314.065V215.086H301.246V234.314Z" fill="#4EC3CC"/>
<path d="M301.647 233.914H313.663V215.486H301.647V233.914ZM314.466 234.715H300.844V214.685H314.466V234.715Z" fill="white"/>
<path d="M301.246 221.896H314.065V221.095H301.246V221.896Z" fill="white"/>
<path d="M301.246 228.305H314.065V227.504H301.246V228.305Z" fill="white"/>
<path d="M307.254 234.314H308.056V215.086H307.254V234.314Z" fill="white"/>
<path d="M320.474 234.314H333.293V215.086H320.474V234.314Z" fill="#4EC3CC"/>
<path d="M320.875 233.914H332.892V215.486H320.875V233.914ZM333.694 234.715H320.073V214.685H333.694V234.715Z" fill="white"/>
<path d="M320.474 221.896H333.293V221.095H320.474V221.896Z" fill="white"/>
<path d="M320.474 228.305H333.293V227.504H320.474V228.305Z" fill="white"/>
<path d="M326.482 234.314H327.285V215.086H326.482V234.314Z" fill="white"/>
<path d="M320.474 275.976H333.293V243.928H320.474V275.976Z" fill="#4EC3CC"/>
<path d="M320.875 275.576H332.892V244.33H320.875V275.576ZM333.694 276.377H320.073V243.529H333.694V276.377Z" fill="white"/>
<path d="M320.474 275.976H333.293V263.157H320.474V275.976Z" fill="white"/>
<path d="M320.474 250.739H333.293V249.938H320.474V250.739Z" fill="white"/>
<path d="M320.474 257.148H333.293V256.347H320.474V257.148Z" fill="white"/>
<path d="M326.482 263.157H327.285V243.929H326.482V263.157Z" fill="white"/>
<path d="M262.789 275.976H314.065V243.928H262.789V275.976Z" fill="#4EC3CC"/>
<path d="M263.19 275.576H313.663V244.33H263.19V275.576ZM314.466 276.377H262.387V243.529H314.466V276.377Z" fill="white"/>
<path d="M318.872 279.182H334.895V275.976H318.872V279.182Z" fill="#816622"/>
<path d="M317.268 282.386H336.498V279.182H317.268V282.386Z" fill="#816622"/>
<path d="M315.666 285.591H338.101V282.385H315.666V285.591Z" fill="#816622"/>
<path d="M339.702 279.182H334.895V275.976H333.694V253.922L339.57 259.798V243.672L339.702 243.805V279.182ZM318.872 279.182H284.947L282.143 276.377H314.466V245.787L320.073 245.165V275.976H318.872V279.182Z" fill="#C6A349"/>
<path d="M339.702 285.591H338.1V282.385H315.666V285.591H291.356L284.947 279.181H318.872H334.895H339.702V285.591ZM317.268 279.181V282.385H336.499V279.181H317.268Z" fill="#866B2F"/>
<path d="M332.891 263.157H327.285V257.149H332.891V263.157ZM326.482 263.157H320.875V257.149H326.482V263.157ZM332.891 256.348H327.285V250.74H330.512L332.891 253.121V256.348ZM326.482 256.348H320.875V250.74H326.482V256.348ZM329.711 249.939H327.285V247.513L329.711 249.939ZM326.482 249.939H320.875V245.076L324.45 244.678L326.482 246.712V249.939Z" fill="#3E9CA3"/>
<path d="M333.694 275.976H320.073V245.164L320.875 245.076V249.938H320.474V250.739H320.875V256.348H320.474V257.149H320.875V263.157H320.474V275.976H333.293V263.157H332.892V257.149H333.293V256.348H332.892V253.121L333.694 253.922V275.976Z" fill="#CCCCCC"/>
<path d="M333.293 275.976H320.474V263.157H333.293V275.976Z" fill="#CCCCCC"/>
<path d="M330.512 250.739H327.285V249.938H329.711L330.512 250.739ZM326.482 250.739H320.875H320.474V249.938H320.875H326.482V250.739Z" fill="#CCCCCC"/>
<path d="M333.293 257.148H327.285V256.347H333.293V257.148ZM326.482 257.148H320.875H320.474V256.347H320.875H326.482V257.148Z" fill="#CCCCCC"/>
<path d="M327.285 263.157H326.482V246.712L327.285 247.513V249.939V250.74V256.348V257.149V263.157Z" fill="#CCCCCC"/>
<path d="M313.663 275.576H281.342L266.751 260.984C269.843 259.026 272.298 256.148 273.725 252.734C273.79 252.739 273.855 252.742 273.923 252.742H274.089C275.371 252.742 276.409 251.703 276.409 250.421V250.016L313.663 245.877V275.576Z" fill="#3E9CA3"/>
<path d="M314.466 276.377H282.143L281.342 275.576H313.663V245.877L314.466 245.786V276.377Z" fill="#CCCCCC"/>
<path d="M334.895 279.182H318.872V275.976H334.895V279.182Z" fill="#67521B"/>
<path d="M317.268 282.386H336.498V279.182H317.268V282.386Z" fill="#67521B"/>
<path d="M315.666 285.591H338.101V282.385H315.666V285.591Z" fill="#67521B"/>
<path d="M339.57 243.673L338.963 243.066L333.694 243.652V243.53H323.299L314.466 234.694V215.07L320.073 220.661V234.716H333.694V234.238L339.57 240.096V243.673ZM300.844 221.074L295.237 215.466V214.686H294.458L285.645 205.874H295.237V195.901L300.844 201.492V205.874H305.24L314.08 214.686H300.844V221.074Z" fill="#DFB752"/>
<path d="M275.608 176.629H260.411L275.475 176.199L275.608 176.332V176.629Z" fill="#745C1F"/>
<path d="M275.905 176.629H275.608V176.332L275.905 176.629Z" fill="#DFB752"/>
<path d="M281.616 201.845L276.009 196.236V185.843H265.614L256.512 176.741L260.411 176.629H275.905L285.147 185.843H281.616V201.845Z" fill="#DFB752"/>
<path d="M275.206 195.436L272.826 193.054H275.206V195.436ZM275.206 192.253H272.024L269.6 189.827V186.644H275.206V192.253ZM268.797 189.026L266.415 186.644H268.797V189.026Z" fill="#46AFB7"/>
<path d="M276.009 196.236L275.206 195.435V193.054H275.608V192.253H275.206V186.644H269.6V186.243H268.797V186.644H266.415L265.614 185.843H276.009V196.236Z" fill="#E5E5E5"/>
<path d="M275.608 193.054H272.826L272.024 192.253H275.608V193.054Z" fill="#E5E5E5"/>
<path d="M269.599 189.827L268.797 189.026V186.243H269.599V186.645V189.827Z" fill="#E5E5E5"/>
<path d="M294.435 205.072H288.828V199.464H294.435V205.072ZM288.025 205.072H284.842L282.418 202.646V199.464H288.025V205.072ZM294.435 198.663H288.828V193.054H292.38L294.435 195.102V198.663ZM288.025 198.663H282.418V193.054H288.025V198.663ZM291.577 192.253H288.828V189.511L291.577 192.253ZM288.025 192.253H282.418V186.645H285.951L288.025 188.712V192.253Z" fill="#46AFB7"/>
<path d="M295.237 205.872H285.645L284.843 205.071H288.025V205.471H288.828V205.071H294.435V199.463H294.836V198.662H294.435V195.101L295.237 195.9V205.872ZM282.418 202.645L281.616 201.844V185.843H285.147L285.951 186.644H282.418V192.252H282.017V193.053H282.418V198.662H282.017V199.463H282.418V202.645Z" fill="#E5E5E5"/>
<path d="M292.38 193.054H288.828V192.253H291.578L292.38 193.054ZM288.025 193.054H282.419H282.017V192.253H282.419H288.025V193.054Z" fill="#E5E5E5"/>
<path d="M294.836 199.463H288.828V198.662H294.836V199.463ZM288.025 199.463H282.419H282.017V198.662H282.419H288.025V199.463Z" fill="#E5E5E5"/>
<path d="M288.828 205.472H288.025V188.712L288.828 189.511V192.253V193.054V198.663V199.464V205.072V205.472Z" fill="#E5E5E5"/>
<path d="M304.437 205.072H301.647V202.291L304.437 205.072Z" fill="#46AFB7"/>
<path d="M305.24 205.872H300.844V201.491L301.647 202.29V205.071H304.437L305.24 205.872Z" fill="#E5E5E5"/>
<path d="M295.238 215.465L294.458 214.685H295.238V215.465Z" fill="#E5E5E5"/>
<path d="M313.663 233.893L308.078 228.305H313.663V233.893ZM313.663 227.504H308.056V221.896H313.663V227.504ZM307.254 227.483L301.668 221.896H307.254V227.483ZM313.663 221.095H308.056V215.486H313.663V221.095ZM307.254 221.095H301.647V215.486H307.254V221.095Z" fill="#46AFB7"/>
<path d="M314.466 234.692L313.663 233.891V228.304H314.065V227.503H313.663V221.895H314.065V221.094H313.663V215.485H308.056V215.086H307.254V215.485H301.647V221.094H301.246V221.472L300.844 221.072V214.684H314.08L314.466 215.068V234.692Z" fill="#E5E5E5"/>
<path d="M314.065 221.896H308.057V221.095H314.065V221.896ZM307.254 221.896H301.668L301.246 221.473V221.095H301.647H307.254V221.896Z" fill="#E5E5E5"/>
<path d="M314.065 228.305H308.078L308.057 228.283V227.504H313.663H314.065V228.305Z" fill="#E5E5E5"/>
<path d="M308.056 228.284L307.254 227.483V215.087H308.056V215.486V221.095V221.896V227.504V228.284Z" fill="#E5E5E5"/>
<path d="M332.891 233.913H327.285V228.305H327.743L332.891 233.437V233.913ZM326.482 233.913H320.875V228.305H326.482V233.913ZM326.482 227.504H320.875V221.895H321.314L326.482 227.049V227.504Z" fill="#46AFB7"/>
<path d="M333.694 234.715H320.073V220.66L320.509 221.095H320.474V221.896H320.875V227.504H320.474V228.305H320.875V233.914H326.482V234.315H327.285V233.914H332.892V233.438L333.694 234.237V234.715Z" fill="#E5E5E5"/>
<path d="M321.314 221.896H320.474V221.095H320.509L321.314 221.896Z" fill="#E5E5E5"/>
<path d="M327.743 228.305H327.285V227.847L327.743 228.305ZM326.482 228.305H320.474V227.504H326.482V228.305Z" fill="#E5E5E5"/>
<path d="M327.285 234.314H326.482V227.049L327.285 227.847V228.305V233.913V234.314Z" fill="#E5E5E5"/>
<path d="M324.45 244.678L324.102 244.329H326.482V244.451L324.45 244.678ZM327.285 244.363V244.329H327.587L327.285 244.363Z" fill="#46AFB7"/>
<path d="M327.587 244.329H327.285V243.928H326.482V244.329H324.102L323.3 243.528H333.694V243.65L327.587 244.329Z" fill="#E5E5E5"/>
<path d="M326.482 244.452V243.929H327.285V244.364L326.482 244.452Z" fill="#E5E5E5"/>
<path d="M339.57 259.797L333.694 253.921V243.65L338.963 243.065L339.57 243.671V259.797Z" fill="#B29242"/>
<path d="M332.892 253.121L330.512 250.739H332.892V253.121ZM332.892 249.938H329.711L327.285 247.513V244.364L327.587 244.33H332.892V249.938ZM326.482 246.712L324.45 244.678L326.482 244.452V246.712Z" fill="#388C92"/>
<path d="M333.695 253.921L332.892 253.12V250.738H333.293V249.937H332.892V244.329H327.587L333.695 243.65V253.921Z" fill="#B7B7B7"/>
<path d="M333.293 250.739H330.512L329.711 249.938H333.293V250.739Z" fill="#B7B7B7"/>
<path d="M327.285 247.513L326.482 246.712V244.452L327.285 244.364V247.513Z" fill="#B7B7B7"/>
<path d="M339.702 212.154L333.418 205.872H333.694V189.848L339.702 195.857V212.154Z" fill="#DFB752"/>
<path d="M339.703 176.629H320.474V155.921L339.703 176.629Z" fill="#745C1F"/>
<path d="M320.474 176.629H314.466V156.999H300.844V173.298L295.237 167.689V156.999H284.547L275.875 148.326L320.136 148.123L320.474 148.461V155.921V176.629Z" fill="#DFB752"/>
<path d="M320.073 192.527L314.466 186.919V185.844H313.389L304.577 177.03H314.466V176.63H339.702V178.193L338.101 176.63H320.474L329.688 185.844H320.073V192.527Z" fill="#DFB752"/>
<path d="M294.435 166.89L291.758 164.211H294.435V166.89ZM294.435 163.41H290.957L288.828 161.281V157.801H294.435V163.41ZM288.025 160.48L285.348 157.801H288.025V160.48Z" fill="#46AFB7"/>
<path d="M295.237 167.689L294.435 166.888V164.21H294.836V163.409H294.435V157.8H288.828V157.401H288.025V157.8H285.348L284.547 156.999H295.237V167.689Z" fill="#E5E5E5"/>
<path d="M294.836 164.21H291.758L290.957 163.409H294.836V164.21Z" fill="#E5E5E5"/>
<path d="M288.828 161.281L288.025 160.48V157.402H288.828V157.802V161.281Z" fill="#E5E5E5"/>
<path d="M313.663 176.228H308.056V170.619H313.663V176.228ZM307.254 176.228H303.776L301.647 174.099V170.619H307.254V176.228ZM313.663 169.818H308.056V164.21H313.663V169.818ZM307.254 169.818H301.647V164.21H307.254V169.818ZM313.663 163.409H308.056V157.8H313.663V163.409ZM307.254 163.409H301.647V157.8H307.254V163.409Z" fill="#46AFB7"/>
<path d="M314.466 177.029H304.577L303.776 176.228H307.254V176.63H308.056V176.228H313.663V170.62H314.065V169.819H313.663V164.21H314.065V163.409H313.663V157.801H308.056V157.401H307.254V157.801H301.647V163.409H301.246V164.21H301.647V169.819H301.246V170.62H301.647V174.099L300.844 173.299V157H314.466V176.63V177.029Z" fill="#E5E5E5"/>
<path d="M314.065 164.21H308.057V163.409H314.065V164.21ZM307.254 164.21H301.647H301.246V163.409H301.647H307.254V164.21Z" fill="#E5E5E5"/>
<path d="M314.065 170.619H308.057V169.818H314.065V170.619ZM307.254 170.619H301.647H301.246V169.818H301.647H307.254V170.619Z" fill="#E5E5E5"/>
<path d="M308.056 176.629H307.254V157.4H308.056V157.8V163.409V164.21V169.818V170.619V176.228V176.629Z" fill="#E5E5E5"/>
<path d="M314.466 186.918L313.389 185.843H314.466V186.918Z" fill="#E5E5E5"/>
<path d="M332.891 205.072H332.617L327.285 199.738V199.464H332.891V205.072ZM332.891 198.663H327.285V193.054H332.891V198.663ZM326.482 198.663H326.208L320.875 193.328V193.054H326.482V198.663ZM332.891 192.253H327.285V186.645H330.489L332.891 189.048V192.253ZM326.482 192.253H320.875V186.645H326.482V192.253Z" fill="#46AFB7"/>
<path d="M333.694 205.872H333.418L332.618 205.071H332.892V199.463H333.293V198.662H332.892V193.053H333.293V192.252H332.892V189.046L333.694 189.847V205.872ZM320.875 193.327L320.6 193.053H320.875V193.327ZM320.474 192.926L320.073 192.526V185.843H329.688L330.489 186.644H327.285V186.242H326.482V186.644H320.875V192.252H320.474V192.926Z" fill="#E5E5E5"/>
<path d="M333.293 193.054H327.285V192.253H333.293V193.054ZM326.482 193.054H320.875H320.6L320.474 192.926V192.253H320.875H326.482V193.054Z" fill="#E5E5E5"/>
<path d="M333.293 199.463H327.285V198.662H333.293V199.463ZM326.482 198.936L326.208 198.662H326.482V198.936Z" fill="#E5E5E5"/>
<path d="M327.285 199.737L326.482 198.936V186.243H327.285V186.644V192.253V193.054V198.662V199.463V199.737Z" fill="#E5E5E5"/>
<path d="M339.703 195.857L333.694 189.848V185.843H329.688L320.474 176.629H338.101L339.703 178.192V195.857Z" fill="#C8A44A"/>
<path d="M332.892 189.047L330.489 186.644H332.892V189.047Z" fill="#3F9DA4"/>
<path d="M333.694 189.848L332.892 189.047V186.644H330.489L329.688 185.843H333.694V189.848Z" fill="#CECECE"/>
<path d="M264.308 252.743H264.474C265.756 252.743 266.795 251.704 266.795 250.422V243.128H261.988V250.422C261.988 251.704 263.027 252.743 264.308 252.743Z" fill="#FDE8E7"/>
<path d="M259.502 252.743H259.666C260.948 252.743 261.988 251.704 261.988 250.422V243.128H257.18V250.422C257.18 251.704 258.22 252.743 259.502 252.743Z" fill="#EA6A6A"/>
<path d="M273.923 252.743H274.089C275.371 252.743 276.409 251.704 276.409 250.422V243.128H271.601V250.422C271.601 251.704 272.641 252.743 273.923 252.743Z" fill="#FDE8E7"/>
<path d="M269.115 252.743H269.281C270.563 252.743 271.601 251.704 271.601 250.422V243.128H266.795V250.422C266.795 251.704 267.833 252.743 269.115 252.743Z" fill="#EA6A6A"/>
<path d="M283.536 252.743H283.702C284.984 252.743 286.024 251.704 286.024 250.422V243.128H281.216V250.422C281.216 251.704 282.254 252.743 283.536 252.743Z" fill="#FDE8E7"/>
<path d="M278.73 252.743H278.894C280.176 252.743 281.216 251.704 281.216 250.422V243.128H276.408V250.422C276.408 251.704 277.448 252.743 278.73 252.743Z" fill="#EA6A6A"/>
<path d="M293.151 252.743H293.317C294.597 252.743 295.637 251.704 295.637 250.422V243.128H290.83V250.422C290.83 251.704 291.869 252.743 293.151 252.743Z" fill="#FDE8E7"/>
<path d="M288.343 252.743H288.51C289.792 252.743 290.829 251.704 290.829 250.422V243.128H286.024V250.422C286.024 251.704 287.062 252.743 288.343 252.743Z" fill="#EA6A6A"/>
<path d="M302.765 252.743H302.931C304.213 252.743 305.252 251.704 305.252 250.422V243.128H300.445V250.422C300.445 251.704 301.483 252.743 302.765 252.743Z" fill="#FDE8E7"/>
<path d="M297.959 252.743H298.123C299.405 252.743 300.445 251.704 300.445 250.422V243.128H295.637V250.422C295.637 251.704 296.677 252.743 297.959 252.743Z" fill="#EA6A6A"/>
<path d="M312.38 252.743H312.546C313.826 252.743 314.866 251.704 314.866 250.422V243.128H310.058V250.422C310.058 251.704 311.098 252.743 312.38 252.743Z" fill="#FDE8E7"/>
<path d="M307.572 252.743H307.738C309.02 252.743 310.058 251.704 310.058 250.422V243.128H305.252V250.422C305.252 251.704 306.29 252.743 307.572 252.743Z" fill="#EA6A6A"/>
<path d="M321.993 252.743H322.159C323.441 252.743 324.481 251.704 324.481 250.422V243.128H319.673V250.422C319.673 251.704 320.711 252.743 321.993 252.743Z" fill="#FDE8E7"/>
<path d="M317.187 252.743H317.351C318.633 252.743 319.673 251.704 319.673 250.422V243.128H314.865V250.422C314.865 251.704 315.905 252.743 317.187 252.743Z" fill="#EA6A6A"/>
<path d="M326.8 252.743H326.967C328.248 252.743 329.286 251.704 329.286 250.422V243.128H324.481V250.422C324.481 251.704 325.519 252.743 326.8 252.743Z" fill="#EA6A6A"/>
<path d="M331.608 252.743H331.774C333.054 252.743 334.094 251.704 334.094 250.422V243.128H329.286V250.422C329.286 251.704 330.326 252.743 331.608 252.743Z" fill="#FDE8E7"/>
<path d="M336.415 252.743H336.58C337.862 252.743 338.901 251.704 338.901 250.422V243.128H334.094V250.422C334.094 251.704 335.134 252.743 336.415 252.743Z" fill="#EA6A6A"/>
<path d="M339.703 176.629H423.026V142.978H339.703V176.629Z" fill="#3C5638"/>
<path d="M361.334 175.828C361.334 186.889 370.302 195.857 381.363 195.857C392.427 195.857 401.395 186.889 401.395 175.828C401.395 164.765 392.427 155.797 381.363 155.797C370.302 155.797 361.334 164.765 361.334 175.828Z" fill="#85BA80"/>
<path d="M339.703 285.591H423.026V176.63H339.703V285.591Z" fill="#85BA80"/>
<path d="M339.703 285.591H423.026V247.134H339.703V285.591Z" fill="#6A8767"/>
<path d="M339.703 285.591H423.026V271.169H339.703V285.591Z" fill="#85BA80"/>
<path d="M387.775 176.629H374.956V169.998C374.956 166.581 377.726 163.81 381.144 163.81H381.586C385.004 163.81 387.775 166.581 387.775 169.998V176.629Z" fill="#96E8EA"/>
<path d="M375.355 176.228H387.373V169.999C387.373 166.808 384.776 164.21 381.586 164.21H381.144C377.952 164.21 375.355 166.808 375.355 169.999V176.228ZM388.174 177.029H374.554V169.999C374.554 166.366 377.51 163.409 381.144 163.409H381.586C385.218 163.409 388.174 166.366 388.174 169.999V177.029Z" fill="#3C5638"/>
<path d="M374.956 170.619H387.775V169.819H374.956V170.619Z" fill="#3C5638"/>
<path d="M380.964 176.629H381.765V163.81H380.964V176.629Z" fill="#3C5638"/>
<path d="M403.797 234.314H416.616V215.086H403.797V234.314Z" fill="#96E8EA"/>
<path d="M404.198 233.914H416.215V215.486H404.198V233.914ZM417.017 234.715H403.396V214.685H417.017V234.715Z" fill="#3C5638"/>
<path d="M403.797 221.896H416.616V221.095H403.797V221.896Z" fill="#3C5638"/>
<path d="M409.806 234.314H410.608V215.086H409.806V234.314Z" fill="#3C5638"/>
<path d="M384.569 234.314H397.388V215.086H384.569V234.314Z" fill="#96E8EA"/>
<path d="M384.97 233.914H396.986V215.486H384.97V233.914ZM397.789 234.715H384.167V214.685H397.789V234.715Z" fill="#3C5638"/>
<path d="M384.569 221.896H397.388V221.095H384.569V221.896Z" fill="#3C5638"/>
<path d="M390.577 234.314H391.38V215.086H390.577V234.314Z" fill="#3C5638"/>
<path d="M365.34 234.314H378.159V215.086H365.34V234.314Z" fill="#96E8EA"/>
<path d="M365.742 233.914H377.758V215.486H365.742V233.914ZM378.561 234.715H364.939V214.685H378.561V234.715Z" fill="#3C5638"/>
<path d="M378.159 221.896H365.34V221.095H378.159V221.896Z" fill="#3C5638"/>
<path d="M372.151 234.314H371.349V215.086H372.151V234.314Z" fill="#3C5638"/>
<path d="M345.311 234.314H358.13V215.086H345.311V234.314Z" fill="#96E8EA"/>
<path d="M345.711 233.914H357.729V215.486H345.711V233.914ZM358.529 234.715H344.91V214.685H358.529V234.715Z" fill="#3C5638"/>
<path d="M345.311 221.896H358.13V221.095H345.311V221.896Z" fill="#3C5638"/>
<path d="M351.319 234.314H352.12V215.086H351.319V234.314Z" fill="#3C5638"/>
<path d="M403.797 205.472H416.616V186.243H403.797V205.472Z" fill="#96E8EA"/>
<path d="M404.198 205.071H416.215V186.644H404.198V205.071ZM417.017 205.872H403.396V185.843H417.017V205.872Z" fill="#3C5638"/>
<path d="M403.797 193.054H416.616V192.252H403.797V193.054Z" fill="#3C5638"/>
<path d="M409.806 205.472H410.608V186.243H409.806V205.472Z" fill="#3C5638"/>
<path d="M384.569 205.472H397.388V186.243H384.569V205.472Z" fill="#96E8EA"/>
<path d="M384.97 205.071H396.986V186.644H384.97V205.071ZM397.789 205.872H384.167V185.843H397.789V205.872Z" fill="#3C5638"/>
<path d="M384.569 193.054H397.388V192.252H384.569V193.054Z" fill="#3C5638"/>
<path d="M390.577 205.472H391.38V186.243H390.577V205.472Z" fill="#3C5638"/>
<path d="M365.34 205.472H378.159V186.243H365.34V205.472Z" fill="#96E8EA"/>
<path d="M365.742 205.071H377.758V186.644H365.742V205.071ZM378.561 205.872H364.939V185.843H378.561V205.872Z" fill="#3C5638"/>
<path d="M365.34 193.054H378.159V192.252H365.34V193.054Z" fill="#3C5638"/>
<path d="M371.349 205.472H372.151V186.243H371.349V205.472Z" fill="#3C5638"/>
<path d="M345.311 205.472H358.13V186.243H345.311V205.472Z" fill="#96E8EA"/>
<path d="M345.711 205.071H357.729V186.644H345.711V205.071ZM358.529 205.872H344.91V185.843H358.529V205.872Z" fill="#3C5638"/>
<path d="M345.311 193.054H358.13V192.252H345.311V193.054Z" fill="#3C5638"/>
<path d="M351.319 205.472H352.12V186.243H351.319V205.472Z" fill="#3C5638"/>
<path d="M423.026 271.17H416.616V262.826C416.616 257.699 412.459 253.543 407.333 253.543H406.67C401.545 253.543 397.388 257.699 397.388 262.826V271.17H390.978V263.157V262.826C390.978 257.699 386.821 253.543 381.695 253.543H381.032C375.905 253.543 371.75 257.699 371.75 262.826V271.17H364.539V263.157V262.826C364.539 257.699 360.382 253.543 355.257 253.543H354.594C352.03 253.543 349.71 254.581 348.03 256.261L346.692 254.924V247.935H411.008L423.026 259.953V266.371V269.543V271.17Z" fill="#556C52"/>
<path d="M423.026 285.591H416.616V271.17H423.026V279.181V285.591ZM397.388 285.591H390.978V279.982V271.17H397.388V285.591ZM371.75 279.982L364.539 272.772V271.17H371.75V279.982Z" fill="#6A9566"/>
<path d="M344.431 252.662L339.703 247.934H344.431V252.662Z" fill="#556C52"/>
<path d="M339.703 247.935H423.026V241.525H339.703V247.935Z" fill="#BEE2BA"/>
<path d="M381.032 253.543H381.696C386.821 253.543 390.978 257.699 390.978 262.826V285.591H371.75V262.826C371.75 257.699 375.905 253.543 381.032 253.543Z" fill="#3C5638"/>
<path d="M390.978 279.982L372.001 261.005C372.979 256.733 376.796 253.544 381.363 253.544C386.675 253.544 390.978 257.847 390.978 263.157V279.982Z" fill="#30452D"/>
<path d="M381.199 259.953H381.53C384.093 259.953 386.171 262.03 386.171 264.594V285.591H376.557V264.594C376.557 262.03 378.635 259.953 381.199 259.953Z" fill="#1B2818"/>
<path d="M354.594 253.543H355.257C360.383 253.543 364.539 257.699 364.539 262.826V285.591H345.311V262.826C345.311 257.699 349.466 253.543 354.594 253.543Z" fill="#3C5638"/>
<path d="M364.539 279.982L359.732 275.175V264.594C359.732 262.031 357.654 259.953 355.09 259.953H354.76C352.196 259.953 350.118 262.031 350.118 264.594V265.562L346.692 262.135V258.203C348.371 255.411 351.429 253.544 354.924 253.544C360.234 253.544 364.539 257.847 364.539 263.157V271.17V272.772V279.982Z" fill="#30452D"/>
<path d="M354.76 259.953H355.09C357.654 259.953 359.732 262.03 359.732 264.594V285.591H350.118V264.594C350.118 262.03 352.196 259.953 354.76 259.953Z" fill="#1B2818"/>
<path d="M406.671 253.543H407.334C412.46 253.543 416.616 257.699 416.616 262.826V285.591H397.388V262.826C397.388 257.699 401.545 253.543 406.671 253.543Z" fill="#3C5638"/>
<path d="M416.616 279.982L397.639 261.005C398.617 256.733 402.434 253.544 407.001 253.544C412.313 253.544 416.616 257.847 416.616 263.157V279.982Z" fill="#30452D"/>
<path d="M406.837 259.953H407.167C409.731 259.953 411.809 262.03 411.809 264.594V285.591H402.195V264.594C402.195 262.03 404.273 259.953 406.837 259.953Z" fill="#1B2818"/>
<path d="M361.383 174.414C362.108 164.012 370.778 155.797 381.363 155.797C370.778 155.797 362.108 164.012 361.383 174.414Z" fill="#364D32"/>
<path d="M401.373 176.629H388.174V169.998C388.174 166.365 385.218 163.409 381.586 163.409H381.144C377.511 163.409 374.554 166.365 374.554 169.998V176.629H361.355C361.345 176.362 361.334 176.097 361.334 175.828C361.334 175.352 361.352 174.88 361.383 174.413C362.108 164.012 370.778 155.797 381.363 155.797C392.427 155.797 401.395 164.765 401.395 175.828C401.395 176.097 401.384 176.362 401.373 176.629Z" fill="#77A773"/>
<path d="M423.026 241.525H404.598L397.788 234.715H397.789V214.685H384.168V221.095L378.561 215.486V214.685H377.758L368.946 205.873H378.561V185.843H364.939V201.866L358.53 195.457V185.843H348.916L339.703 176.63H361.355H374.554V177.029H388.174V176.63H401.373H423.026V241.525ZM403.396 214.685V234.715H417.018V214.685H403.396ZM403.396 185.843V205.873H417.018V185.843H403.396ZM384.168 185.843V205.873H397.789V185.843H384.168Z" fill="#77A773"/>
<path d="M387.373 176.228H381.765V170.619H387.373V176.228ZM380.964 176.228H375.355V170.619H380.964V176.228ZM387.37 169.818H381.765V164.213C384.813 164.307 387.276 166.77 387.37 169.818ZM380.964 169.818H375.359C375.452 166.77 377.915 164.307 380.964 164.213V169.818Z" fill="#87D0D2"/>
<path d="M388.174 177.029H374.554V169.999C374.554 166.366 377.51 163.409 381.144 163.409H381.586C385.218 163.409 388.174 166.366 388.174 169.999V176.63V177.029ZM380.964 176.228V176.63H381.764V176.228H387.373V170.62H387.774V169.819H387.369C387.276 166.771 384.813 164.308 381.764 164.214V163.811H380.964V164.214C377.915 164.308 375.452 166.771 375.359 169.819H374.955V170.62H375.355V176.228H380.964Z" fill="#364D32"/>
<path d="M387.775 170.619H381.765V169.818H387.775V170.619ZM380.964 170.619H375.355H374.956V169.818H375.359H380.964V170.619Z" fill="#364D32"/>
<path d="M381.764 176.629H380.964V163.81H381.764V164.213V169.818V170.619V176.228V176.629Z" fill="#364D32"/>
<path d="M416.215 233.913H410.608V221.895H416.215V233.913ZM409.805 233.913H404.199V221.895H409.805V233.913ZM416.215 221.094H410.608V215.486H416.215V221.094ZM409.805 221.094H404.199V215.486H409.805V221.094Z" fill="#87D0D2"/>
<path d="M417.017 234.715H403.396V214.685H417.017V234.715ZM409.805 233.914V234.315H410.608V233.914H416.215V221.896H416.616V221.095H416.215V215.486H410.608V215.087H409.805V215.486H404.198V221.095H403.797V221.896H404.198V233.914H409.805Z" fill="#364D32"/>
<path d="M416.616 221.896H410.608V221.095H416.616V221.896ZM409.805 221.896H404.199H403.797V221.095H404.199H409.805V221.896Z" fill="#364D32"/>
<path d="M410.608 234.314H409.806V215.086H410.608V215.486V221.094V221.895V233.913V234.314Z" fill="#364D32"/>
<path d="M396.986 233.913L391.38 228.305V221.895H396.986V233.913ZM390.577 227.504L384.97 221.895H390.577V227.504ZM396.986 221.094H391.38V215.486H396.986V221.094ZM390.577 221.094H384.97V215.486H390.577V221.094Z" fill="#87D0D2"/>
<path d="M397.789 234.715L396.986 233.914V221.896H397.388V221.095H396.986V215.486H391.38V215.087H390.577V215.486H384.97V221.095H384.569V221.496L384.167 221.095V214.685H397.789V234.715ZM384.97 221.896H384.968H384.97Z" fill="#364D32"/>
<path d="M397.388 221.896H391.38V221.095H397.388V221.896ZM390.577 221.896H384.97H384.968L384.569 221.496V221.095H384.97H390.577V221.896Z" fill="#364D32"/>
<path d="M391.38 228.305L390.577 227.504V215.086H391.38V215.486V221.094V221.895V228.305Z" fill="#364D32"/>
<path d="M378.561 215.486L377.758 214.685H378.561V215.486Z" fill="#364D32"/>
<path d="M416.215 205.072H410.608V193.054H416.215V205.072ZM409.805 205.072H404.199V193.054H409.805V205.072ZM416.215 192.253H410.608V186.645H416.215V192.253ZM409.805 192.253H404.199V186.645H409.805V192.253Z" fill="#87D0D2"/>
<path d="M417.017 205.872H403.396V185.843H417.017V205.872ZM409.805 205.071V205.471H410.608V205.071H416.215V193.053H416.616V192.252H416.215V186.644H410.608V186.242H409.805V186.644H404.198V192.252H403.797V193.053H404.198V205.071H409.805Z" fill="#364D32"/>
<path d="M416.616 193.054H410.608V192.253H416.616V193.054ZM409.805 193.054H404.199H403.797V192.253H404.199H409.805V193.054Z" fill="#364D32"/>
<path d="M410.608 205.472H409.806V186.243H410.608V186.645V192.253V193.054V205.072V205.472Z" fill="#364D32"/>
<path d="M396.986 205.072H391.38V193.054H396.986V205.072ZM390.577 205.072H384.97V193.054H390.577V205.072ZM396.986 192.253H391.38V186.645H396.986V192.253ZM390.577 192.253H384.97V186.645H390.577V192.253Z" fill="#87D0D2"/>
<path d="M397.789 205.872H384.167V185.843H397.789V205.872ZM390.577 205.071V205.471H391.38V205.071H396.986V193.053H397.388V192.252H396.986V186.644H391.38V186.242H390.577V186.644H384.97V192.252H384.569V193.053H384.97V205.071H390.577Z" fill="#364D32"/>
<path d="M397.388 193.054H391.38V192.253H397.388V193.054ZM390.577 193.054H384.97H384.569V192.253H384.97H390.577V193.054Z" fill="#364D32"/>
<path d="M391.38 205.472H390.577V186.243H391.38V186.645V192.253V193.054V205.072V205.472Z" fill="#364D32"/>
<path d="M377.758 205.072H372.151V193.054H377.758V205.072ZM371.349 205.072H368.145L365.742 202.668V193.054H371.349V205.072ZM377.758 192.253H372.151V186.645H377.758V192.253ZM371.349 192.253H365.742V186.645H371.349V192.253Z" fill="#87D0D2"/>
<path d="M378.561 205.872H368.946L368.145 205.071H371.348V205.471H372.151V205.071H377.758V193.053H378.159V192.252H377.758V186.644H372.151V186.242H371.348V186.644H365.742V192.252H365.34V193.053H365.742V202.666L364.939 201.865V185.843H378.561V205.872Z" fill="#364D32"/>
<path d="M378.159 193.054H372.151V192.253H378.159V193.054ZM371.348 193.054H365.742H365.34V192.253H365.742H371.348V193.054Z" fill="#364D32"/>
<path d="M372.151 205.472H371.349V186.243H372.151V186.645V192.253V193.054V205.072V205.472Z" fill="#364D32"/>
<path d="M357.729 194.656L356.127 193.054H357.729V194.656ZM357.729 192.253H355.326L352.12 189.048V186.645H357.729V192.253ZM351.319 188.247L349.717 186.645H351.319V188.247Z" fill="#87D0D2"/>
<path d="M358.53 195.456L357.729 194.655V193.053H358.13V192.252H357.729V186.644H352.12V186.242H351.319V186.644H349.717L348.916 185.843H358.53V195.456Z" fill="#364D32"/>
<path d="M358.13 193.054H356.127L355.326 192.253H358.13V193.054Z" fill="#364D32"/>
<path d="M352.12 189.047L351.319 188.246V186.243H352.12V186.644V189.047Z" fill="#364D32"/>
<path d="M423.026 259.953L411.008 247.935H423.026V259.953Z" fill="#4C614A"/>
<path d="M423.026 247.935H411.008L404.598 241.525H423.026V247.935Z" fill="#ABCBA7"/>
<path d="M107.601 245.826C107.601 255.724 99.5758 263.75 89.6778 263.75C79.7798 263.75 71.756 255.724 71.756 245.826C71.756 235.928 79.7798 227.905 89.6778 227.905C99.5758 227.905 107.601 235.928 107.601 245.826Z" fill="#89D425"/>
<path d="M89.6777 263.75V227.905C99.5757 227.905 107.601 235.928 107.601 245.826C107.601 247.241 107.437 248.617 107.127 249.937C107.064 250.206 106.995 250.473 106.919 250.738C106.339 252.779 105.407 254.672 104.191 256.347C103.993 256.619 103.786 256.886 103.574 257.148C103.13 257.692 102.654 258.209 102.15 258.697C101.892 258.95 101.623 259.194 101.349 259.429C99.7101 260.836 97.8147 261.952 95.7407 262.698C95.4772 262.792 95.2102 262.882 94.9397 262.965C93.2936 263.469 91.5449 263.743 89.7326 263.75C89.7149 263.75 89.6972 263.75 89.6777 263.75Z" fill="#60941A"/>
<path d="M91.0218 285.591H88.3342V241.347H91.0218V285.591Z" fill="#5A351F"/>
<path d="M90.5742 263.411L80.0468 252.201L81.3534 250.974L88.7813 258.885V254.012L98.0375 245.178L99.2752 246.476L90.5742 254.777V263.411Z" fill="#5A351F"/>
<path d="M275.104 245.826C275.104 255.724 267.078 263.75 257.18 263.75C247.282 263.75 239.258 255.724 239.258 245.826C239.258 235.928 247.282 227.905 257.18 227.905C267.078 227.905 275.104 235.928 275.104 245.826Z" fill="#89D425"/>
<path d="M257.18 263.75V227.905C267.078 227.905 275.102 235.928 275.102 245.826C275.102 255.512 267.419 263.403 257.815 263.738C257.604 263.745 257.392 263.75 257.18 263.75Z" fill="#60941A"/>
<path d="M258.524 285.591H255.837V241.347H258.524V285.591Z" fill="#5A351F"/>
<path d="M258.077 263.411L247.549 252.201L248.856 250.974L256.284 258.885V254.012L265.542 245.178L266.778 246.476L258.077 254.777V263.411Z" fill="#5A351F"/>
<path d="M196.484 285.591L188.925 273.562H194.012L186.446 261.521H190.002L182.8 250.058H186.161L180.155 240.498H183.509L175.597 227.905L167.684 240.498H171.04L165.032 250.058H168.395L161.192 261.521H164.749L157.184 273.562H162.27L154.712 285.591H196.484Z" fill="#89D425"/>
<path d="M196.484 285.591H175.597V227.905L183.509 240.498H180.155L186.161 250.058H182.8L190.002 261.521H186.446L194.012 273.562H188.925L196.484 285.591Z" fill="#60941A"/>
<path d="M431.23 27.5925C428.99 27.5925 426.866 28.0787 424.946 28.9345C425.001 28.4942 425.038 28.0469 425.038 27.5925C425.038 21.6409 420.213 16.8157 414.263 16.8157C413.527 16.8157 412.81 16.8917 412.115 17.0314C411.3 9.26225 404.731 3.20636 396.746 3.20636C388.703 3.20636 382.099 9.35242 381.363 17.2029C380.463 16.9589 379.521 16.8157 378.543 16.8157C372.592 16.8157 367.768 21.6409 367.768 27.5925L367.775 27.764C360.275 28.8249 354.5 35.2538 354.5 43.0477C354.5 51.5842 361.421 58.5029 369.955 58.5029C378.492 58.5029 422.693 58.5029 431.23 58.5029C439.765 58.5029 446.685 51.5842 446.685 43.0477C446.685 34.5112 439.765 27.5925 431.23 27.5925Z" fill="white"/>
<path d="M83.8253 84.7216C82.4479 84.7216 81.1413 85.0204 79.9584 85.5491C79.992 85.2768 80.015 85.0027 80.015 84.7216C80.015 81.0598 77.048 78.0911 73.3845 78.0911C72.9318 78.0911 72.4898 78.1371 72.0637 78.2237C71.5615 73.4427 67.5196 69.7155 62.6059 69.7155C57.6569 69.7155 53.5938 73.4975 53.1411 78.328C52.5877 78.1795 52.006 78.0911 51.4048 78.0911C47.743 78.0911 44.7743 81.0598 44.7743 84.7216L44.7796 84.8277C40.1648 85.4801 36.6108 89.4354 36.6108 94.2324C36.6108 99.4855 40.8685 103.743 46.1216 103.743C51.373 103.743 78.5722 103.743 83.8253 103.743C89.0784 103.743 93.3361 99.4855 93.3361 94.2324C93.3361 88.9793 89.0784 84.7216 83.8253 84.7216Z" fill="white"/>
<path d="M278.81 48.8347C277.931 48.8347 277.098 49.0257 276.345 49.3616C276.366 49.1883 276.38 49.0133 276.38 48.8347C276.38 46.5008 274.488 44.6089 272.156 44.6089C271.866 44.6089 271.585 44.6389 271.313 44.6938C270.993 41.6473 268.419 39.2709 265.285 39.2709C262.131 39.2709 259.542 41.6808 259.254 44.7609C258.901 44.6654 258.531 44.6089 258.147 44.6089C255.813 44.6089 253.922 46.5008 253.922 48.8347L253.925 48.9019C250.985 49.3192 248.72 51.8388 248.72 54.8959C248.72 58.2447 251.432 60.957 254.781 60.957C258.128 60.957 275.461 60.957 278.81 60.957C282.157 60.957 284.871 58.2447 284.871 54.8959C284.871 51.5488 282.157 48.8347 278.81 48.8347Z" fill="white"/>
<path d="M347.587 238.574H343.536L341.045 229.843H350.078L347.587 238.574Z" fill="#FFFF99"/>
<path d="M347.905 226.874H343.217L340.333 229.843H350.79L347.905 226.874Z" fill="#166872"/>
<path d="M347.16 269.532H343.962L341.992 271.557H349.13L347.16 269.532Z" fill="#166872"/>
<path d="M347.615 271.041H343.508L340.979 285.591H350.143L347.615 271.041Z" fill="#166872"/>
<path d="M344.268 238.984H346.855L348.446 238.166H342.677L344.268 238.984Z" fill="#166872"/>
<path d="M344.996 227.864H346.126V223.341H344.996V227.864Z" fill="#166872"/>
<path d="M344.996 243.506H346.126V238.985H344.996V243.506Z" fill="#166872"/>
<path d="M344.43 270.074H346.692V240.421H344.43V270.074Z" fill="#166872"/>
<path d="M347.01 222.944C347.01 223.744 346.361 224.393 345.562 224.393C344.761 224.393 344.112 223.744 344.112 222.944C344.112 222.145 344.761 221.496 345.562 221.496C346.361 221.496 347.01 222.145 347.01 222.944Z" fill="#166872"/>
<path d="M347.914 237.423L341.329 230.838L341.045 229.843H350.078L347.914 237.423Z" fill="#E5E589"/>
<path d="M349.13 271.557L347.161 269.532L349.13 271.557Z" fill="#2A3C27"/>
<path d="M349.13 271.557H347.705L347.615 271.04H345.562V270.073H346.692V269.532H347.16L349.13 271.557Z" fill="#0F4950"/>
<path d="M350.143 285.591H345.562V271.041H347.615L347.705 271.557L350.143 285.591Z" fill="#0F4950"/>
<path d="M346.854 238.984H345.562V238.166H348.446L346.854 238.984Z" fill="#0F4950"/>
<path d="M345.562 240.421H346.126V238.985H345.562V240.421Z" fill="#0F4950"/>
<path d="M346.692 270.074H345.562V240.421H346.692V241.526V247.935V254.925V257.952V258.205V262.135V269.533V270.074Z" fill="#0F4950"/>
<path d="M350.791 229.843L347.905 226.874H346.126V224.277V226.874H347.905L350.791 229.843Z" fill="#69A2A3"/>
<path d="M350.79 229.843H345.562V227.864H346.126V226.874H347.905L350.79 229.843Z" fill="#0F4950"/>
<path d="M346.126 227.864H345.562V224.392C345.762 224.392 345.953 224.351 346.126 224.277V226.874V227.864Z" fill="#0F4950"/>
<path d="M347.005 223.07C347.005 223.07 347.005 223.07 347.005 223.069C347.005 223.07 347.005 223.07 347.005 223.07ZM347.007 223.044C347.007 223.042 347.007 223.042 347.007 223.042C347.007 223.042 347.007 223.042 347.007 223.044ZM347.008 223.016V223.014V223.016ZM347.01 222.989C347.01 222.987 347.01 222.987 347.01 222.985C347.01 222.987 347.01 222.987 347.01 222.989ZM347.01 222.961C347.01 222.959 347.01 222.959 347.01 222.957C347.01 222.959 347.01 222.959 347.01 222.961Z" fill="#69A2A3"/>
<path d="M345.562 224.393V221.496C346.361 221.496 347.01 222.145 347.01 222.944C347.01 222.948 347.01 222.953 347.01 222.957C347.01 222.959 347.01 222.959 347.01 222.96C347.01 222.964 347.01 222.967 347.01 222.973C347.01 222.976 347.01 222.982 347.01 222.985C347.01 222.987 347.01 222.987 347.01 222.989C347.008 222.996 347.008 223.005 347.008 223.013V223.015C347.008 223.024 347.006 223.033 347.006 223.042C347.006 223.042 347.006 223.042 347.006 223.043C347.006 223.052 347.005 223.061 347.005 223.068C347.005 223.07 347.005 223.07 347.005 223.07C347.003 223.079 347.003 223.088 347.001 223.097C346.946 223.63 346.602 224.076 346.126 224.278C345.953 224.352 345.762 224.393 345.562 224.393Z" fill="#0F4950"/>
<path d="M61.7698 238.574H57.7207L55.2277 229.843H64.261L61.7698 238.574Z" fill="#FFFF99"/>
<path d="M62.0879 226.874H57.4006L54.5167 229.843H64.9735L62.0879 226.874Z" fill="#166872"/>
<path d="M61.3453 269.532H58.145L56.1753 271.557H63.3132L61.3453 269.532Z" fill="#166872"/>
<path d="M61.7982 271.041H57.6908L55.1624 285.591H64.3266L61.7982 271.041Z" fill="#166872"/>
<path d="M58.4511 238.984H61.0378L62.6309 238.166H56.8597L58.4511 238.984Z" fill="#166872"/>
<path d="M59.1794 227.864H60.3115V223.341H59.1794V227.864Z" fill="#166872"/>
<path d="M59.1794 243.506H60.3115V238.985H59.1794V243.506Z" fill="#166872"/>
<path d="M58.6135 270.074H60.8748V240.421H58.6135V270.074Z" fill="#166872"/>
<path d="M61.1934 222.944C61.1934 223.744 60.5445 224.393 59.7454 224.393C58.9444 224.393 58.2972 223.744 58.2972 222.944C58.2972 222.145 58.9444 221.496 59.7454 221.496C60.5445 221.496 61.1934 222.145 61.1934 222.944Z" fill="#166872"/>
<path d="M62.5354 235.894L64.261 229.843L62.5354 235.894ZM55.5123 230.838L55.2277 229.843L55.5123 230.838Z" fill="#8CACB3"/>
<path d="M62.0986 237.423L55.5123 230.838L55.2277 229.843H64.261L62.5354 235.893L62.0986 237.423Z" fill="#E5E589"/>
<path d="M63.2125 279.182L61.8882 271.557L63.2125 279.182ZM63.3133 271.557L61.3453 269.533L63.3133 271.557Z" fill="#6D858B"/>
<path d="M64.3263 285.591L63.2124 279.181L64.3263 285.591Z" fill="#60941A"/>
<path d="M61.888 271.557L61.7978 271.04H59.745V270.073H60.8748V269.532H61.3451L63.3131 271.557H61.888Z" fill="#0F4950"/>
<path d="M64.3262 285.591H59.745V271.041H61.7978L61.888 271.557L63.2123 279.181L64.3262 285.591Z" fill="#0F4950"/>
<path d="M61.0375 238.984H59.745V238.166H62.6306L61.0375 238.984Z" fill="#0F4950"/>
<path d="M59.745 240.421H60.3114V238.985H59.745V240.421Z" fill="#0F4950"/>
<path d="M60.8748 270.074H59.745V240.421H60.8748V256.097V269.533V270.074Z" fill="#0F4950"/>
<path d="M64.9736 229.843L62.088 226.874H60.311V224.277V226.874H62.088L64.9736 229.843Z" fill="#6D858B"/>
<path d="M64.9734 229.843H59.745V227.864H60.3108V226.874H62.0878L64.9734 229.843Z" fill="#0F4950"/>
<path d="M60.3108 227.864H59.745V224.392C59.9448 224.392 60.1357 224.351 60.3108 224.277V226.874V227.864Z" fill="#0F4950"/>
<path d="M61.1825 223.124V223.122C61.1825 223.124 61.1825 223.124 61.1825 223.124ZM61.1843 223.098C61.186 223.096 61.186 223.096 61.186 223.096C61.186 223.096 61.186 223.096 61.1843 223.098ZM61.1878 223.069C61.1878 223.069 61.1878 223.069 61.1878 223.067C61.1878 223.069 61.1878 223.069 61.1878 223.069ZM61.1895 223.043C61.1895 223.041 61.1895 223.041 61.1895 223.039C61.1895 223.041 61.1895 223.041 61.1895 223.043ZM61.1913 223.014V223.013V223.014ZM61.1913 223C61.1913 223 61.1913 223 61.1913 222.998C61.1913 223 61.1913 223 61.1913 223ZM61.1931 222.988C61.1931 222.986 61.1931 222.986 61.1931 222.984C61.1931 222.986 61.1931 222.986 61.1931 222.988ZM61.1931 222.96C61.1931 222.958 61.1931 222.958 61.1931 222.956C61.1931 222.958 61.1931 222.958 61.1931 222.96ZM61.1895 222.832C61.1312 222.084 60.5071 221.496 59.745 221.496C60.5071 221.496 61.1312 222.084 61.1895 222.832Z" fill="#6D858B"/>
<path d="M59.745 224.393V221.496C60.5071 221.496 61.1312 222.085 61.1895 222.833C61.1913 222.87 61.1931 222.907 61.1931 222.944C61.1931 222.948 61.1931 222.953 61.1931 222.957C61.1931 222.959 61.1931 222.959 61.1931 222.96C61.1931 222.964 61.1931 222.967 61.1931 222.973C61.1931 222.976 61.1931 222.982 61.1931 222.985C61.1931 222.987 61.1931 222.987 61.1931 222.989C61.1931 222.992 61.1931 222.996 61.1913 222.999C61.1913 223.001 61.1913 223.001 61.1913 223.001C61.1913 223.005 61.1913 223.008 61.1913 223.013V223.015C61.1913 223.024 61.1913 223.033 61.1895 223.04C61.1895 223.042 61.1895 223.042 61.1895 223.043C61.1895 223.052 61.1878 223.059 61.1878 223.068C61.1878 223.07 61.1878 223.07 61.1878 223.07C61.1878 223.079 61.186 223.088 61.186 223.097C61.186 223.097 61.186 223.097 61.1843 223.098C61.1843 223.107 61.1825 223.114 61.1825 223.123V223.125C61.1807 223.134 61.1789 223.143 61.1789 223.151C61.1772 223.16 61.1754 223.169 61.1736 223.178C61.0941 223.675 60.7599 224.087 60.3108 224.278C60.1357 224.352 59.9448 224.393 59.745 224.393Z" fill="#0F4950"/>
</svg>
