<svg width="399" height="359" viewBox="0 0 399 359" fill="none" xmlns="http://www.w3.org/2000/svg">
<path d="M362.614 343.647C361.256 342.599 359.677 341.799 358.051 341.283C336.182 334.349 315.736 343.219 294.036 343.803C274.604 344.326 255.28 341.667 235.954 340.079C226.906 339.335 217.814 339.642 208.772 340.336C192.873 341.556 176.072 343.143 159.779 343.702C143.431 344.265 127.479 342.366 111.21 341.895C100.847 341.596 90.6422 342.212 80.2635 342.44C80.0494 342.444 79.8353 342.448 79.6212 342.453C70.692 342.636 61.8875 340.587 53.0142 339.572C44.1417 338.558 34.7336 338.676 26.8344 342.842C24.2475 344.206 21.2693 346.45 23.3009 349.266C24.9456 351.545 29.4042 353.178 31.9404 354.097C38.293 356.4 45.2456 356.721 51.9257 356.184C65.2542 355.115 77.3283 355.169 90.8863 355.752C104.478 356.336 119.327 359.239 132.969 358.984C138.271 358.885 143.545 358.12 148.848 358.095C159.712 358.045 170.446 359.199 181.279 358.56C190.974 357.989 200.55 356.391 210.21 355.477C237.207 352.922 264.291 355.691 291.275 356.978C304.929 357.629 318.632 357.951 332.279 356.98C342.852 356.228 353.414 357.551 363.58 354.297C364.471 354.012 365.402 353.681 366.006 352.966C366.817 352.008 366.83 350.6 366.539 349.38C365.984 347.06 364.516 345.112 362.614 343.647Z" fill="#FF0000"/>
<path d="M102.423 175.51C102.423 175.51 117.843 236.477 85.6455 251.533C59.6188 263.705 21.6357 232.81 21.6357 232.81L30.8985 215.583C30.8985 215.583 67.3005 239.103 71.864 224.692C77.9337 205.528 69.1593 176.881 69.1593 176.881" fill="#FFA071"/>
<path d="M112.986 153.134L123.285 174.646C123.285 174.646 143.103 216.393 134.128 250.375C124.715 286.018 85.9156 314.396 85.9156 314.396L69.5188 300.751C69.5188 300.751 97.9468 270.1 103.208 252.211C111.929 222.559 104.263 206.633 99.0103 191.904C90.8892 169.132 85.3921 158.357 85.3921 158.357" fill="#FFA071"/>
<path d="M49.3602 318.362L50.9008 317.252L69.9439 342.553C70.6463 343.526 71.8078 344.059 73.0037 343.957L73.1585 344.105L70.6816 345.892C70.5896 345.959 70.4752 345.987 70.3626 345.973L70.2569 345.959C69.5373 345.866 68.8882 345.479 68.4643 344.891L49.2089 319.296C48.9931 318.996 49.061 318.578 49.3602 318.362Z" fill="#F47D7A"/>
<path d="M76.7149 293.369L59.4463 311.083L52.4403 318.251L70.9323 342.787C71.3949 343.429 72.2899 343.574 72.9321 343.111C73.4127 342.765 73.6302 342.158 73.4797 341.585L71.7087 326.282L91.0879 310.069" fill="#FFA071"/>
<path d="M72.7498 325.419L74.005 342.246C74.146 342.897 73.8408 343.614 73.2381 344.049C72.4334 344.63 71.1834 344.271 70.6718 343.562L50.9005 317.252L59.6861 310.871C59.6861 310.871 65.8057 322.203 72.7498 325.419Z" fill="#222A41"/>
<path d="M73.2265 328.467C71.8629 328.419 70.4951 328.532 69.1573 328.803" stroke="#F47D7A" stroke-width="1.33333" stroke-miterlimit="10" stroke-linecap="round" stroke-linejoin="round"/>
<path d="M73.4018 330.632C71.9325 330.624 71.1734 330.743 69.9766 330.966" stroke="#F47D7A" stroke-width="1.33333" stroke-miterlimit="10" stroke-linecap="round" stroke-linejoin="round"/>
<path d="M73.6543 332.388C72.6759 332.369 71.4903 332.575 70.5214 332.709" stroke="#F47D7A" stroke-width="1.33333" stroke-miterlimit="10" stroke-linecap="round" stroke-linejoin="round"/>
<path d="M73.5874 337.222C73.5874 337.222 68.7849 336.874 65.4801 338.911" stroke="#F47D7A" stroke-width="1.33333" stroke-miterlimit="10"/>
<path d="M55.1 324.332C55.1 324.332 60.6978 319.849 56.7026 313.039" stroke="#F47D7A" stroke-width="1.33333" stroke-miterlimit="10"/>
<path d="M59.6866 310.871C59.6866 310.871 64.8046 320.978 72.7503 325.419" stroke="#F47D7A" stroke-width="2" stroke-miterlimit="10" stroke-linecap="round"/>
<path d="M20.3146 207.587L21.8277 208.735L3.20329 234.347C2.47767 235.304 2.30744 236.57 2.75622 237.683L2.65821 237.875L0.225167 236.029C0.134895 235.96 0.0738539 235.86 0.0549398 235.748L0.0368854 235.642C-0.0843371 234.927 0.0962075 234.194 0.534672 233.616L19.3775 207.716C19.601 207.421 20.0205 207.364 20.3146 207.587Z" fill="#F47D7A"/>
<path d="M47.542 227.468L30.226 215.103L21.3226 210.5L3.26822 235.36C2.79021 235.99 2.91315 236.888 3.54334 237.367C4.01533 237.725 4.65927 237.756 5.16394 237.444L19.2791 231.274L40.4517 245.063" fill="#FFA071"/>
<path d="M20.409 232.018L4.68536 238.14C4.10332 238.466 3.32869 238.383 2.73634 237.935C1.94624 237.335 1.92303 236.034 2.45177 235.337L21.8276 208.736L30.4997 215.27C30.4997 215.27 21.4528 224.437 20.409 232.018Z" fill="#222A41"/>
<path d="M17.6349 233.364C17.2815 232.047 16.7734 230.771 16.1235 229.572" stroke="#F47D7A" stroke-width="1.33333" stroke-miterlimit="10" stroke-linecap="round" stroke-linejoin="round"/>
<path d="M15.6144 234.166C15.1931 232.759 14.8569 232.067 14.2938 230.988" stroke="#F47D7A" stroke-width="1.33333" stroke-miterlimit="10" stroke-linecap="round" stroke-linejoin="round"/>
<path d="M14.0087 234.921C13.7413 233.979 13.1971 232.907 12.7853 232.018" stroke="#F47D7A" stroke-width="1.33333" stroke-miterlimit="10" stroke-linecap="round" stroke-linejoin="round"/>
<path d="M69.7432 168.819C65.662 177.826 71.1884 189.942 72.2545 197.147C73.5587 205.964 72.9844 214.593 70.0561 223.255C94.9343 227.461 114.332 227.32 139.869 225.355C138.608 186.005 126.064 164.723 116.269 155.249" fill="#222A41"/>
<path d="M72.6201 171.615C72.1593 180.66 75.091 189.78 76.1579 196.985C77.4621 205.802 76.893 215.223 73.9647 223.885" stroke="#4F96BA" stroke-width="1.33333" stroke-miterlimit="10" stroke-linejoin="round"/>
<path d="M74.8323 177.757C74.8959 178.116 74.9587 178.468 75.0197 178.816" stroke="#4F96BA" stroke-width="1.33333" stroke-linejoin="round"/>
<path d="M75.3896 180.938C76.3602 186.559 77.0781 191.174 77.98 197.271C79.1836 205.401 78.795 214.3 76.4316 222.428" stroke="#4F96BA" stroke-width="1.33333" stroke-linejoin="round" stroke-dasharray="3.33 3.33"/>
<path d="M76.1219 223.452C76.0144 223.793 75.9044 224.133 75.79 224.471" stroke="#4F96BA" stroke-width="1.33333" stroke-linejoin="round"/>
<path d="M73.0718 177.83C73.0718 177.83 100.129 180.187 127.239 170.516" stroke="#4F96BA" stroke-width="1.33333" stroke-miterlimit="10" stroke-linejoin="round"/>
<path d="M100.967 170.582L106.742 169.426C108.048 169.164 109.333 169.959 109.683 171.244L110.007 172.434C110.396 173.862 109.483 175.319 108.027 175.589L105.766 176.011" stroke="#4F96BA" stroke-width="1.33333" stroke-miterlimit="10" stroke-linejoin="round"/>
<path d="M107.672 172.381C107.696 172.965 107.242 173.457 106.659 173.482C106.075 173.506 105.583 173.052 105.559 172.468C105.535 171.885 105.988 171.392 106.571 171.368C107.155 171.344 107.648 171.797 107.672 172.381Z" fill="#4F96BA"/>
<path d="M94.7894 177.633L93.5935 169.937" stroke="#4F96BA" stroke-width="1.33333" stroke-miterlimit="10" stroke-linejoin="round"/>
<path d="M114.795 166.619L117.039 173.933" stroke="#4F96BA" stroke-width="1.33333" stroke-miterlimit="10" stroke-linejoin="round"/>
<path d="M76.6366 186.079C76.6366 186.079 87.0041 186.704 89.9006 177.805" stroke="#4F96BA" stroke-width="1.33333" stroke-miterlimit="10" stroke-linejoin="round"/>
<path d="M119.571 172.949C119.571 172.949 125.093 177.779 130.902 178.197" stroke="#4F96BA" stroke-width="1.33333" stroke-miterlimit="10" stroke-linejoin="round"/>
<path d="M115.543 201.403C112.362 206.517 109.03 211.537 105.55 216.453" stroke="#4F96BA" stroke-miterlimit="10" stroke-linejoin="round"/>
<path d="M114.919 209.526C113.047 211.25 111.255 213.062 109.552 214.953" stroke="#4F96BA" stroke-miterlimit="10" stroke-linejoin="round"/>
<path d="M118.059 90.4147C130.584 72.3001 132.997 53.6972 134.24 40.6817C134.483 38.1463 134.523 33.435 134.715 30.8953C134.828 29.3977 135.177 26.7067 135.846 26.662C137.073 26.5795 136.211 30.646 137.072 30.4956C137.596 30.4044 137.966 27.3678 138.046 25.7068C138.117 24.2255 138.467 21.8612 139.099 21.8191C140.301 21.7383 139.811 29.8611 139.811 29.8611C140.175 29.837 140.66 21.1356 141.657 20.9611C143.095 20.7101 141.966 29.99 142.314 30.2944C142.314 30.2944 143.434 22.3393 144.498 22.1527C145.561 21.967 144.305 29.0022 144.365 31.2573C144.701 29.6384 145.336 23.8498 146.112 23.714C146.887 23.579 146.975 26.4213 146.912 27.2105C146.535 31.9786 146.309 37.7551 146.078 41.3213C145.241 54.2586 144.832 77.7233 133.468 96.9521" fill="#FFA071"/>
<path d="M144.224 32.1589C142.348 33.2576 140.583 34.83 140.282 37.2373" stroke="#DD6945" stroke-width="1.33333" stroke-miterlimit="10" stroke-linejoin="round"/>
<path d="M133.567 43.6514C132.952 45.9709 138.565 47.4058 140.102 47.5941C141.797 47.8013 146.586 48.0171 146.19 45.204C146.152 44.9324 145.702 44.9444 145.653 45.204C145.195 47.625 140.695 47.0456 139.17 46.7249C137.878 46.4532 133.987 45.3717 133.837 43.6883C133.824 43.5404 133.609 43.4923 133.567 43.6514Z" fill="#AD3A3A"/>
<path d="M133.823 41.8328C133.334 42.058 133.155 42.4759 133.442 42.9908C134.14 44.2409 137.468 44.4971 138.719 44.6673C141.113 44.9932 146.42 44.7602 146.358 41.298C146.353 40.9653 145.839 40.9644 145.841 41.298C145.859 44.4369 140.738 44.387 138.826 44.1403C137.987 44.0328 137.175 43.8583 136.357 43.6442C136.16 43.5927 133.061 42.8335 133.985 42.0434C134.11 41.9377 133.952 41.7735 133.823 41.8328Z" fill="#AD3A3A"/>
<path d="M43.9975 99.5405C32.0515 81.0399 30.2262 62.3691 29.3949 49.3209C29.2333 46.7795 29.3407 42.069 29.2298 39.5242C29.1645 38.0248 28.9005 35.3235 28.2325 35.2573C27.0083 35.137 27.7425 39.2284 26.8862 39.0513C26.366 38.943 26.0918 35.8961 26.0643 34.2343C26.0402 32.7504 25.7651 30.3766 25.134 30.3147C23.9356 30.1961 24.1686 38.33 24.1686 38.33C23.8058 38.2939 23.596 29.5822 22.6047 29.3768C21.175 29.0801 22.0106 38.3911 21.653 38.6842C21.653 38.6842 20.7855 30.6973 19.728 30.4781C18.6697 30.2588 19.704 37.3302 19.5724 39.5818C19.2878 37.9535 18.8365 32.1477 18.0653 31.9878C17.2941 31.8279 17.117 34.6658 17.1548 35.4568C17.381 40.2343 17.4239 46.0152 17.5426 49.5865C17.9716 62.5444 17.6389 86.01 28.3899 105.588" fill="#FFA071"/>
<path d="M19.6852 40.4889C21.5251 41.647 23.2402 43.2736 23.4646 45.6895" stroke="#DD6945" stroke-width="1.33333" stroke-miterlimit="10" stroke-linejoin="round"/>
<path d="M137.178 97.3001C141.985 87.9282 145.11 77.0216 145.713 69.1284C141.839 66.3265 135.477 61.1526 127.888 64.5408C124.397 93.6213 93.7762 102.774 93.7762 102.774L76.1672 103.133C76.1672 103.133 51.8702 106.69 41.4296 89.584C38.3569 84.5494 36.7664 80.6342 35.7674 76.4181C31.1575 78.2287 25.0216 79.7186 17.8909 81.2627C18.9209 88.7088 21.7967 96.8281 25.6191 103.591C36.4148 122.696 54.501 129.096 62.506 131.062C63.1662 134.288 64.406 161.445 64.7568 173.099C92.7557 173.24 115.512 170.349 129.652 163.574C126.793 155.66 117.911 126.88 116.685 120.804C120.192 118.735 129.805 111.676 137.178 97.3001Z" fill="#F47D7A"/>
<path d="M37.3412 79.1105L35.5031 72.8964C32.2937 72.7132 16.7574 79.3031 16.7574 79.3031L18.6085 87.4121L37.3412 79.1105Z" fill="#FFB6B6"/>
<path d="M112.865 112.501C112.865 112.501 115.584 116.321 116.685 120.803" stroke="#AD3A3A" stroke-width="1.33333" stroke-miterlimit="10"/>
<path d="M72.5713 103.409C72.5713 103.409 78.316 114.997 90.4443 112.996C97.789 111.784 95.6913 102.546 95.6913 102.546" stroke="#AD3A3A" stroke-width="1.33333" stroke-miterlimit="10"/>
<path d="M62.5057 131.061C62.5057 131.061 69.0826 134.576 71.085 136.672" stroke="#AD3A3A" stroke-width="1.33333" stroke-miterlimit="10"/>
<path d="M65.0784 132.508C65.0784 132.508 65.1334 132.875 65.228 133.569" stroke="#AD3A3A" stroke-width="1.33333" stroke-miterlimit="10"/>
<path d="M65.5187 135.799C66.2538 141.661 67.6878 154.79 68.0713 170.594" stroke="#AD3A3A" stroke-width="1.33333" stroke-miterlimit="10" stroke-dasharray="3.49 3.49"/>
<path d="M68.0969 171.726C68.1047 172.084 68.1115 172.443 68.1176 172.804" stroke="#AD3A3A" stroke-width="1.33333" stroke-miterlimit="10"/>
<path d="M127.499 61.4698L126.794 67.8447C126.794 67.8447 138.516 71.006 145.41 74.2119C146.353 73.5534 147.962 66.2688 147.962 66.2688C147.962 66.2688 132.205 60.5335 127.499 61.4698Z" fill="#FFB6B6"/>
<path d="M59.0726 119.078L56.6567 121.548L59.5841 122.53L59.0726 119.078Z" fill="#E05F5F"/>
<path d="M107.567 124.915L105.151 127.385L108.079 128.368L107.567 124.915Z" fill="#E05F5F"/>
<path d="M111.743 140.772L111.417 144.212L114.312 143.136L111.743 140.772Z" fill="#E05F5F"/>
<path d="M91.017 134.975L88.7731 132.348L87.5325 135.176L91.017 134.975Z" fill="#E05F5F"/>
<path d="M74.771 161.408L74.4452 164.848L77.3399 163.771L74.771 161.408Z" fill="#E05F5F"/>
<path d="M40.2272 105.971L40.1094 109.424L42.9345 108.175L40.2272 105.971Z" fill="#E05F5F"/>
<path d="M120.708 96.3789L123.881 95.0128L121.548 92.9907L120.708 96.3789Z" fill="#E05F5F"/>
<path d="M134.529 91.2422L136.5 88.4051L133.45 87.9228L134.529 91.2422Z" fill="#E05F5F"/>
<path d="M128.756 76.2899L132.19 76.6699L131.16 73.7589L128.756 76.2899Z" fill="#E05F5F"/>
<path d="M120.568 109.721L124.022 109.773L122.721 106.973L120.568 109.721Z" fill="#E05F5F"/>
<path d="M95.7773 120.634L96.2596 117.213L93.3193 118.156L95.7773 120.634Z" fill="#E05F5F"/>
<path d="M105.409 103.156L108.512 104.675L108.527 101.587L105.409 103.156Z" fill="#E05F5F"/>
<path d="M29.1504 99.9971L30.912 97.025L27.835 96.7636L29.1504 99.9971Z" fill="#E05F5F"/>
<path d="M54.899 107.648L58.1205 106.4L55.8628 104.294L54.899 107.648Z" fill="#E05F5F"/>
<path d="M73.468 122.831L76.9224 122.869L75.6087 120.074L73.468 122.831Z" fill="#E05F5F"/>
<path d="M79.8619 146.378L77.0274 144.404L76.5408 147.453L79.8619 146.378Z" fill="#E05F5F"/>
<path d="M116.256 158.089L115.937 154.649L113.293 156.245L116.256 158.089Z" fill="#E05F5F"/>
<path d="M99.4565 151.667L98.3826 148.383L96.1577 150.525L99.4565 151.667Z" fill="#E05F5F"/>
<path d="M90.8464 161.775L93.0637 159.126L90.0684 158.373L90.8464 161.775Z" fill="#E05F5F"/>
<path d="M92.5008 90.3928C92.9685 90.2114 93.9641 90.177 94.0509 90.827C94.1343 91.4494 93.2247 91.2422 92.8481 91.2251C92.665 91.2165 92.6031 91.4417 92.708 91.5629C93.217 92.1518 94.6433 91.716 94.602 90.8812C94.5504 89.8486 93.0708 89.7996 92.4028 90.1598C92.2781 90.2269 92.3641 90.4461 92.5008 90.3928Z" fill="#F47D7A"/>
<path d="M87.6658 79.8029C90.496 82.9831 96.319 92.564 90.6749 96.8282C86.2653 100.158 79.0624 95.8628 77.0085 91.5443C75.7894 88.9806 74.989 84.7275 76.2855 82.0391C78.3609 77.7353 84.4323 76.1697 87.6658 79.8029Z" fill="#FFA071"/>
<path d="M87.6137 94.7809L89.1707 101.626C90.6228 102.219 92.8039 102.555 92.8039 102.555C92.8039 102.555 95.0083 110.885 86.6534 110.692C78.2985 110.5 75.1957 103.243 75.1957 103.243C75.1957 103.243 77.8196 102.911 79.3387 102.206L79.4918 92.6024" fill="#FFA071"/>
<path d="M75.808 91.9938C79.7627 89.4842 82.9584 85.7942 84.8764 81.5205C87.4402 83.1334 91.9675 85.7323 91.9675 85.7323C93.6973 83.2933 92.6054 79.5276 91.4921 77.7781C89.9394 75.3356 85.6235 74.1405 82.5775 74.42C81.0506 74.561 79.3982 74.9659 78.0648 74.2085C76.9652 73.5834 76.3969 72.3127 76.1329 71.0747C75.869 69.8376 75.8355 68.5506 75.4503 67.3452C74.4702 64.2785 71.0124 62.2298 67.852 62.8445C66.1875 63.1678 64.603 64.1281 62.9197 63.9252C60.8761 63.6784 59.4678 61.8438 58.1241 60.2851C56.0513 57.8804 52.8152 54.9358 49.7606 53.9342C46.522 52.8724 42.6893 55.0347 40.9148 57.7188C38.8274 60.8766 38.7895 65.1116 40.2545 68.6013C40.8168 69.9382 41.5897 71.2243 41.7599 72.6644C42.0221 74.8954 40.791 77.1694 41.3481 79.3462C41.7143 80.7777 42.8251 81.9306 44.1096 82.6631C45.4103 83.4042 47.1694 84.0283 48.6558 84.2072C50.469 84.4247 52.2951 83.8727 53.9578 84.9173C55.863 86.1149 56.2714 88.6443 57.1087 90.7326C58.3055 93.7141 60.7394 96.1764 63.7072 97.4067C68.2887 99.3058 75.4151 98.1847 79.0449 94.7105" fill="#2F2209"/>
<path d="M78.2796 90.6612C77.9985 90.0551 77.1379 89.8892 76.5481 90.2047C75.9592 90.5202 75.6248 91.1788 75.4975 91.8348C75.4176 92.2483 75.4073 92.6816 75.5225 93.0865C75.7314 93.8182 76.328 94.3796 76.978 94.7759C78.1343 95.4809 79.5288 95.3339 80.2183 94.0537" fill="#FFA071"/>
<path d="M87.4238 87.1747C87.4238 87.1747 90.003 89.0507 89.9764 89.8545C89.9489 90.6592 88.1245 91.0908 88.1245 91.0908" stroke="#DD6945" stroke-miterlimit="10" stroke-linejoin="round"/>
<path d="M91.2063 91.1673L84.9869 93.6597C84.9869 93.6597 86.8122 96.722 90.141 95.3508C92.5156 94.3724 91.2063 91.1673 91.2063 91.1673Z" fill="white"/>
<path d="M84.3985 87.3948C84.5025 87.9734 83.9849 88.4815 83.4897 88.681C83.016 88.871 82.6549 88.7008 82.2044 88.5572C82.0221 88.4996 81.87 88.7154 81.9611 88.8736C82.3394 89.5244 83.2885 89.4419 83.8594 89.1083C84.481 88.7446 84.9642 88.0336 84.7415 87.3003C84.6744 87.0776 84.358 87.1722 84.3985 87.3948Z" fill="#010101"/>
<path d="M88.4184 86.1925C88.8809 86.3885 89.4002 86.4779 89.8275 86.1504C90.2238 85.846 90.3889 85.3113 90.1757 84.8539C90.1224 84.7395 89.9281 84.7395 89.8748 84.8539C89.7544 85.1101 89.72 85.4566 89.5111 85.6612C89.2678 85.9002 88.8844 85.8813 88.5792 85.8116C88.3617 85.7626 88.1906 86.0962 88.4184 86.1925Z" fill="#010101"/>
<path d="M88.3568 98.048C88.3568 98.048 85.5214 98.845 81.9681 96.5461" stroke="#DD6945" stroke-miterlimit="10" stroke-linejoin="round"/>
<path d="M77.1318 94.8346L77.0638 94.8354C76.9572 94.8372 76.8807 94.9059 76.8455 95.0022C76.4921 95.9582 77.8539 97.486 78.693 96.505C79.067 96.0674 79.0791 95.3865 78.8581 94.8801C78.6767 94.4657 78.1531 93.9181 77.6777 94.2336C77.498 94.3523 77.541 94.5964 77.7344 94.6686C78.0173 94.7753 78.2176 94.8354 78.3457 95.1363C78.4549 95.3925 78.4781 95.6943 78.3792 95.9582C78.0689 96.7853 77.075 95.6264 77.3063 95.0641C77.3519 94.9532 77.2384 94.8329 77.1318 94.8346Z" fill="#F47D7A"/>
<path d="M167.273 40.9678C168.578 38.7815 171.214 34.88 172.52 32.6928C173.289 31.4041 174.553 29.0029 174.032 28.5807C173.075 27.8061 171.439 31.6285 170.822 31.0095C170.446 30.6329 171.892 27.9368 172.783 26.5337C173.578 25.2811 174.653 23.1463 174.16 22.7483C173.224 21.99 168.948 28.9134 168.948 28.9134C168.665 28.6839 173.277 21.291 172.562 20.574C171.531 19.5406 167.111 27.7786 166.651 27.8267C166.651 27.8267 170.316 20.678 169.554 19.9129C168.79 19.1486 165.768 25.6241 164.42 27.433C165.078 25.9164 167.891 20.8173 167.335 20.2602C166.779 19.7031 165.071 21.9762 164.668 22.658C162.231 26.7736 158.219 35.4139 158.219 35.4139" fill="#FFA071"/>
<path d="M164.016 28.2535C164.917 30.2317 165.455 32.5341 164.315 34.6748" stroke="#DD6945" stroke-width="1.33333" stroke-miterlimit="10" stroke-linejoin="round"/>
<path d="M256.427 38.7292C257.651 35.592 259.128 32.4712 260.579 29.9805C261.42 28.537 262.487 26.2235 263.078 26.5828C264.161 27.2414 262.323 30.6227 263.138 31.0062C263.632 31.2392 265.736 28.8912 266.782 27.5346C267.716 26.3232 269.405 24.5324 269.963 24.8711C271.023 25.5159 265.819 32.0946 265.819 32.0946C266.14 32.2889 271.681 25.2193 272.625 25.6638C273.984 26.3043 267.559 33.4822 267.673 33.9456C267.673 33.9456 273.309 27.8819 274.315 28.3565C275.321 28.8302 270.113 34.0341 268.834 35.9763C270.071 34.807 274.023 30.2823 274.754 30.6339C275.514 31.001 274.11 33.0472 273.061 34.3488C269.968 38.1884 263.509 44.7705 263.509 44.7705" fill="#FFA071"/>
<path d="M268.136 36.4184C267.11 36.3341 265.018 36.8388 264.249 37.6934" stroke="#DD6945" stroke-width="1.33333" stroke-miterlimit="10" stroke-linejoin="round"/>
<path d="M262.806 31.9913C262.806 31.9913 263.213 33.9231 262.392 35.7793" stroke="#DD6945" stroke-width="1.33333" stroke-miterlimit="10" stroke-linejoin="round"/>
<path d="M247.233 214.034L245.796 215.275L266.406 240.419C267.19 241.327 267.44 242.581 267.062 243.721L267.171 243.906L269.484 241.91C269.57 241.836 269.624 241.732 269.636 241.618L269.648 241.513C269.724 240.791 269.498 240.07 269.023 239.521L248.177 214.104C247.935 213.823 247.513 213.792 247.233 214.034Z" fill="#2F2209"/>
<path d="M216.58 234.85L237.814 222.158L246.411 217.004L266.405 241.435C266.922 242.033 266.855 242.938 266.257 243.455C265.808 243.842 265.167 243.913 264.645 243.634L250.169 238.364L229.905 253.457" fill="#FFA071"/>
<path d="M249.088 239.176L265.165 244.298C265.767 244.586 266.535 244.456 267.098 243.97C267.849 243.322 267.79 242.023 267.219 241.361L245.795 215.275L237.552 222.343C237.552 222.343 247.57 231.676 249.088 239.176Z" fill="#F7633A"/>
<path d="M251.942 240.346C252.211 239.009 252.639 237.704 253.211 236.466" stroke="#2F2209" stroke-width="1.33333" stroke-miterlimit="10" stroke-linecap="round" stroke-linejoin="round"/>
<path d="M254.008 241.019C254.34 239.587 254.632 238.877 255.127 237.764" stroke="#2F2209" stroke-width="1.33333" stroke-miterlimit="10" stroke-linecap="round" stroke-linejoin="round"/>
<path d="M255.658 241.672C255.866 240.716 256.342 239.61 256.697 238.699" stroke="#2F2209" stroke-width="1.33333" stroke-miterlimit="10" stroke-linecap="round" stroke-linejoin="round"/>
<path d="M161.992 187.621C161.992 187.621 127.956 260.752 154.723 278.24C188.517 300.319 245.52 247.818 245.52 247.818L233.948 222.499C233.948 222.499 174.705 260.153 177.168 249.358C179.632 238.562 207.72 200.452 202.112 186.16" fill="#1B4E61"/>
<path d="M232.872 227.616C232.872 227.616 177.433 264.252 173.706 251.878C170.165 240.123 205.2 204 199.592 189.707" stroke="#07202B" stroke-width="1.33333" stroke-miterlimit="10" stroke-linejoin="round" stroke-dasharray="3.33 3.33"/>
<path d="M275.846 294.332L274.051 293.713L262.667 324.166C262.276 325.301 261.316 326.146 260.142 326.392L260.037 326.58L262.924 327.576C263.031 327.614 263.148 327.608 263.252 327.561L263.349 327.518C264.012 327.221 264.521 326.664 264.759 325.978L276.26 295.182C276.38 294.833 276.195 294.452 275.846 294.332Z" fill="#2F2209"/>
<path d="M242.446 278.287L264.089 290.269L272.864 295.112L261.788 324.674C261.53 325.422 260.715 325.819 259.967 325.561C259.407 325.368 259.023 324.85 259.003 324.258L256.285 309.094L233.054 299.158" fill="#FFA071"/>
<path d="M255.04 308.567L258.69 325.041C258.743 325.706 259.241 326.304 259.945 326.546C260.883 326.87 261.976 326.166 262.262 325.34L274.05 293.711L263.798 290.134C263.798 290.134 260.762 303.486 255.04 308.567Z" fill="#F7633A"/>
<path d="M255.462 311.622C256.753 311.184 258.096 310.897 259.455 310.77" stroke="#2F2209" stroke-width="1.33333" stroke-miterlimit="10" stroke-linecap="round" stroke-linejoin="round"/>
<path d="M255.919 313.747C257.323 313.315 258.085 313.211 259.295 313.079" stroke="#2F2209" stroke-width="1.33333" stroke-miterlimit="10" stroke-linecap="round" stroke-linejoin="round"/>
<path d="M256.184 315.502C257.115 315.201 258.31 315.057 259.276 314.905" stroke="#2F2209" stroke-width="1.33333" stroke-miterlimit="10" stroke-linecap="round" stroke-linejoin="round"/>
<path d="M182.571 189.35C182.571 189.35 172.029 242.105 196.984 274.938C218.832 303.683 241.903 312.612 241.903 312.612L257.928 286.033C257.928 286.033 231.729 269.234 222.76 250.355C215.475 235.02 217.4 213.481 218.621 184.562" fill="#1B4E61"/>
<path d="M182.22 191.012C182.22 191.012 171.017 243.831 198.757 277.223" stroke="#07202B" stroke-width="1.33333" stroke-miterlimit="10" stroke-linejoin="round"/>
<path d="M228.985 260.971C228.985 260.971 219.144 248.239 218.1 232.206" stroke="#07202B" stroke-width="1.33333" stroke-miterlimit="10" stroke-linejoin="round"/>
<path d="M256.438 288.505C256.438 288.505 256.118 288.305 255.537 287.926" stroke="#07202B" stroke-width="1.33333" stroke-linejoin="round"/>
<path d="M253.719 286.715C246.47 281.787 226.786 267.348 220.19 251.759C210.938 229.89 214.845 216.377 216.18 188.936" stroke="#07202B" stroke-width="1.33333" stroke-linejoin="round" stroke-dasharray="3.39 3.39"/>
<path d="M216.232 187.834C216.248 187.478 216.263 187.12 216.279 186.758" stroke="#07202B" stroke-width="1.33333" stroke-linejoin="round"/>
<path d="M256.039 284.922L260.446 287.301L246.029 315.073L239.48 312.242L256.039 284.922Z" fill="#2B778E"/>
<path d="M201.59 195.609C201.59 195.609 202.622 206.509 214.515 208.642" stroke="#07202B" stroke-width="1.33333" stroke-miterlimit="10" stroke-linejoin="round"/>
<path d="M177.39 193.198C177.39 193.198 176.874 205.421 176.805 207.049C176.737 208.677 179.466 210.875 179.466 210.875" stroke="#07202B" stroke-width="1.33333" stroke-miterlimit="10" stroke-linejoin="round"/>
<path d="M157.197 199.053C157.197 199.053 165.85 203.589 171.675 194.346" stroke="#07202B" stroke-width="1.33333" stroke-miterlimit="10" stroke-linejoin="round"/>
<path d="M229.667 225.035L242.056 251.256L247.985 247.165L234.478 221.829L229.667 225.035Z" fill="#2B778E"/>
<path d="M256.847 33.1069C238.446 51.2507 220.063 94.4326 208.003 103.051C204.612 105.474 199.127 106.022 199.127 106.022L180.528 104.339C180.528 104.339 165.368 103.063 162.003 85.4801C158.638 67.896 173.29 35.6336 173.29 35.6336L157.709 31.8422C157.709 31.8422 136.36 60.4576 141.009 91.61C143.583 108.861 154.644 120.756 162.952 126.744C160.658 140.347 158.083 175.348 158.927 193.158C158.927 193.158 181.079 204.439 219.244 192.314C219.244 192.314 220.965 157.816 228.627 128.542C235.253 103.225 256.754 61.0353 272.13 40.5711L256.847 33.1069Z" fill="#F7633A"/>
<path d="M150.558 186.253C163.599 192.937 178.779 194.815 193.272 194.013C201.424 193.562 209.544 192.237 217.509 190.48C221.538 189.591 225.54 188.577 229.517 187.478C231.659 186.887 233.79 186.253 235.915 185.601C237.855 185.004 239.957 184.559 241.722 183.538C242.561 183.052 242.256 181.514 241.2 181.611C237.357 181.96 233.363 183.748 229.646 184.822C225.68 185.969 221.69 187.037 217.671 187.98C209.886 189.807 201.978 191.198 193.998 191.799C179.603 192.884 164.368 191.349 151.151 185.238C150.474 184.926 149.877 185.904 150.558 186.253Z" fill="#FF8650"/>
<path d="M148.8 183.842C164.104 188.764 180.281 190.382 196.298 189.393C204.168 188.906 211.993 187.816 219.699 186.151C227.328 184.503 235.085 182.544 242.181 179.234C243.053 178.827 242.43 177.468 241.538 177.708C234.025 179.728 226.683 182.216 219.068 183.861C211.443 185.509 203.699 186.652 195.916 187.19C180.197 188.278 164.318 186.925 149.144 182.596C148.339 182.366 148.011 183.589 148.8 183.842Z" fill="#FF8650"/>
<path d="M152.866 180.825C164.347 185.748 178.127 185.35 190.344 184.757C204.667 184.062 219.07 182.103 233.032 178.81C236.123 178.081 239.21 177.285 242.232 176.305C244.439 175.589 246.864 174.847 248.772 173.495C249.488 172.988 249.084 171.747 248.147 172.012C243.612 173.296 239.235 175.047 234.644 176.208C228.369 177.795 222 179.015 215.608 180.022C201.331 182.269 186.727 183.608 172.268 182.958C165.889 182.672 159.304 182.106 153.273 179.859C152.718 179.652 152.314 180.589 152.866 180.825Z" fill="#FF8650"/>
<path d="M245.792 33.1877C250.384 37.1992 255.538 40.5272 260.981 43.2663C266.305 45.947 272.17 48.9956 277.997 50.3428C278.671 50.4993 279.104 49.5682 278.477 49.2045C273.374 46.2444 267.463 44.5912 262.14 42.018C256.619 39.3502 251.323 36.3094 246.574 32.4062C246.032 31.9617 245.25 32.7148 245.792 33.1877Z" fill="#FF8650"/>
<path d="M242.969 36.1027C247.561 40.1142 252.715 43.4422 258.158 46.1814C263.482 48.862 269.346 51.9106 275.173 53.2578C275.847 53.4143 276.281 52.4832 275.653 52.1195C270.551 49.1595 264.64 47.5062 259.317 44.933C253.795 42.2653 248.499 39.2244 243.75 35.3212C243.209 34.8767 242.427 35.6298 242.969 36.1027Z" fill="#FF8650"/>
<path d="M149.438 33.8092C154.685 36.9266 160.373 39.2582 166.226 40.9725C171.963 42.6524 178.241 44.5636 184.234 44.8361C184.972 44.8696 185.031 43.8371 184.4 43.6119C178.849 41.6276 172.725 41.0653 167.026 39.4963C161.115 37.8697 155.372 35.833 149.996 32.8549C149.374 32.5101 148.826 33.4455 149.438 33.8092Z" fill="#FF8650"/>
<path d="M144.784 36.6685C150.03 39.7859 155.719 42.1175 161.571 43.8318C167.309 45.5118 173.586 47.423 179.58 47.6955C180.317 47.729 180.376 46.6965 179.745 46.4712C174.194 44.487 168.07 43.9247 162.371 42.3557C156.46 40.7291 150.717 38.6924 145.342 35.7142C144.719 35.3695 144.171 36.3049 144.784 36.6685Z" fill="#FF8650"/>
<path d="M162.952 126.744C162.952 126.744 164.723 120.303 164.291 116.199" stroke="#C6341C" stroke-width="1.33333" stroke-miterlimit="10" stroke-linejoin="round"/>
<path d="M199.945 127.513C199.945 127.513 198.411 138.44 199.12 139.04C199.829 139.641 203.136 143.628 204.561 143.477C205.986 143.328 212.994 141.135 213.3 139.447C213.914 136.067 215.087 128.726 215.087 128.726" stroke="#FF8650" stroke-width="1.33333" stroke-miterlimit="10" stroke-linejoin="round"/>
<path d="M177.745 103.763C177.745 103.763 181.698 118.582 186.662 118.915C192.425 119.302 202.598 105.366 202.598 105.366" stroke="#C6341C" stroke-width="1.33333" stroke-miterlimit="10" stroke-linejoin="round"/>
<path d="M199.573 127.424C199.573 127.424 207.739 129.501 215.087 128.726" stroke="#C6341C" stroke-width="1.33333" stroke-miterlimit="10" stroke-linejoin="round"/>
<path d="M199.726 128.877C199.726 128.877 207.892 130.954 215.24 130.179" stroke="#C6341C" stroke-width="1.33333" stroke-miterlimit="10" stroke-linejoin="round" stroke-dasharray="3.33 3.33"/>
<path d="M156.694 33.3278L172.169 38.2266" stroke="#C6341C" stroke-width="1.33333" stroke-miterlimit="10" stroke-linejoin="round"/>
<path d="M255.249 34.7515L270.33 43.0273" stroke="#C6341C" stroke-width="1.33333" stroke-miterlimit="10" stroke-linejoin="round"/>
<path d="M185.64 97.6123C185.64 97.6123 184.593 102.778 183.985 103.654C183.377 104.528 180.528 104.339 180.528 104.339C180.528 104.339 183.824 116.504 186.908 116.179C189.994 115.854 199.877 105.923 199.877 105.923C199.877 105.923 196.757 106.107 196.623 104.843C196.49 103.579 197.452 95.3134 197.452 95.3134" fill="#FFA071"/>
<path d="M186.926 82.1462C184.248 85.4554 178.938 94.7104 184.751 98.7408C189.597 102.101 195.125 97.0592 195.125 97.0592C195.125 97.0592 195.819 97.6404 196.68 97.5501C198.04 97.4065 199.735 95.7687 199.75 93.6168C199.763 91.838 198.681 90.8631 198.681 90.8631C198.681 90.8631 199.88 86.5833 198.399 83.8477C196.124 79.6453 189.986 78.366 186.926 82.1462Z" fill="#FFA071"/>
<path d="M187.85 87.4302C187.85 87.4302 184.947 90.0464 185.032 90.8468C185.116 91.6472 186.966 91.9473 186.966 91.9473" stroke="#DD6945" stroke-miterlimit="10" stroke-linejoin="round"/>
<path d="M184.328 92.8015L189.884 94.5794C189.884 94.5794 188.489 97.3521 185.514 96.3677C183.39 95.6653 184.328 92.8015 184.328 92.8015Z" fill="white"/>
<path d="M190.073 87.9134C189.903 88.6605 190.413 89.332 191.063 89.6553C191.646 89.9458 192.615 89.9897 192.948 89.3096C193.021 89.1618 192.895 88.9185 192.705 88.9941C192.264 89.1704 191.914 89.3793 191.421 89.2168C190.885 89.0397 190.357 88.566 190.423 87.9607C190.444 87.7613 190.117 87.72 190.073 87.9134Z" fill="#010101"/>
<path d="M186.151 86.7106C185.853 86.8009 185.478 86.855 185.211 86.6453C184.976 86.4613 184.922 86.1122 184.783 85.8629C184.703 85.721 184.514 85.7709 184.463 85.9042C184.288 86.365 184.522 86.8946 184.928 87.1525C185.369 87.4328 185.875 87.3141 186.311 87.0915C186.521 86.984 186.376 86.6427 186.151 86.7106Z" fill="#010101"/>
<path d="M198.249 91.9861C196.216 91.9749 195.327 93.8422 195.327 93.8422L194.036 93.3359C194.036 93.3359 195.505 89.0114 195.405 88.0588C195.364 87.6728 194.897 87.2335 194.655 86.9506C194.272 86.5027 193.721 86.2069 193.2 85.9499C190.495 84.6182 187.445 83.9991 184.918 82.3553C184.16 81.8627 183.437 81.2566 183.038 80.445C182.639 79.6334 182.63 78.5794 183.21 77.8856C184.022 76.9132 185.449 76.498 186.678 76.5616C186.867 76.5719 188.02 76.6708 188.084 76.8668C188.084 76.8668 186.461 71.9044 189.887 72.2311C193.314 72.5578 194.44 75.4181 194.44 75.4181C194.44 75.4181 194.278 73.0066 195.766 73.2164C197.255 73.4261 199.796 79.7125 201.748 80.8362C203.7 81.9599 204.275 83.8891 204.126 85.7874C203.6 92.5354 199.74 94.3701 199.74 94.3701C199.74 94.3701 199.9 91.9955 198.249 91.9861Z" fill="#2F2209"/>
<path d="M185.229 99.5023C185.229 99.5023 187.686 100.149 191.695 99.332" stroke="#DD6945" stroke-width="1.33333" stroke-miterlimit="10" stroke-linejoin="round"/>
<path d="M244.509 49.1337C243.925 46.6551 243.102 42.0194 242.517 39.5408C242.172 38.0793 241.409 35.4751 240.741 35.5344C239.516 35.6445 241.001 39.5279 240.126 39.5133C239.595 39.5038 238.757 36.5627 238.42 34.9344C238.119 33.4814 237.405 31.2014 236.773 31.2573C235.574 31.3647 237.322 39.3121 237.322 39.3121C236.959 39.3448 235.125 30.8257 234.113 30.8085C232.653 30.7844 235.213 39.7755 234.917 40.1306C234.917 40.1306 232.573 32.4463 231.493 32.4282C230.413 32.4102 232.749 39.1634 233.04 41.4004C232.457 39.8538 230.929 34.2345 230.141 34.2216C229.354 34.2079 229.711 37.0295 229.895 37.799C231.01 42.451 234.143 51.4473 234.143 51.4473" fill="#FFA071"/>
<path d="M233.321 42.2692C235.345 43.0627 237.333 44.3411 238.005 46.6719" stroke="#DD6945" stroke-width="1.33333" stroke-miterlimit="10" stroke-linejoin="round"/>
<path d="M377.347 65.0343C378.54 62.7844 380.508 58.5072 381.7 56.2565C382.403 54.9299 383.8 52.6034 384.432 52.8304C385.589 53.2465 383.171 56.6279 384.02 56.8351C384.536 56.9606 386.092 54.3263 386.83 52.8364C387.489 51.5073 388.756 49.4809 389.352 49.6958C390.486 50.1033 386.784 57.35 386.784 57.35C387.128 57.473 391.056 49.6941 392.04 49.934C393.458 50.2796 388.708 58.331 388.905 58.7497C388.905 58.7497 393.116 51.9079 394.165 52.1633C395.215 52.4195 391.246 58.3628 390.399 60.4528C391.354 59.1039 394.254 54.0538 395.019 54.2404C395.784 54.4269 394.726 57.0663 394.353 57.7644C392.098 61.9831 386.791 69.8936 386.791 69.8936" fill="#FFA071"/>
<path d="M389.908 61.2226C387.749 61.4788 385.502 62.213 384.262 64.2979" stroke="#DD6945" stroke-width="1.33333" stroke-miterlimit="10" stroke-linejoin="round"/>
<path d="M377.425 61.349C355.251 93.6226 346.488 96.2138 332.051 101.448C307.044 110.515 290.312 104.721 278.847 97.9195C265.41 89.9498 253.013 77.635 244.881 46.1386L230.652 49.4202C236.053 82.9137 247.674 105.566 274.284 121.874C274.284 121.874 272.675 126.6 271.944 133.663C270.264 149.897 271.661 160.26 269.262 169.878C266.862 179.496 310.984 179.262 316.939 174.384C317.456 153.797 325.181 127.678 325.181 127.678C348.01 119.02 370.153 112.88 389.957 66.1429L377.425 61.349Z" fill="#7FB0C6"/>
<path d="M375.894 63.5602L388.374 69.7812" stroke="#A0CFE0" stroke-width="1.33333" stroke-miterlimit="10" stroke-linejoin="round"/>
<path d="M231.171 52.4893L245.71 49.23" stroke="#A0CFE0" stroke-width="1.33333" stroke-miterlimit="10" stroke-linejoin="round"/>
<path d="M286.217 102.026C286.217 102.026 288.987 112.21 299.624 112.929C311.597 113.738 315.811 105.547 315.811 105.547" stroke="#A0CFE0" stroke-width="1.33333" stroke-miterlimit="10" stroke-linejoin="round"/>
<path d="M274.285 121.875C274.285 121.875 276.255 116.883 278.816 113.928" stroke="#448196" stroke-width="1.33333" stroke-miterlimit="10" stroke-linejoin="round"/>
<path d="M325.181 127.678C325.181 127.678 322.262 129.259 320.416 131.389" stroke="#448196" stroke-width="1.33333" stroke-miterlimit="10" stroke-linejoin="round"/>
<path d="M315.473 160.702C313.686 162.966 312.069 165.34 310.637 167.801" stroke="#448196" stroke-miterlimit="10" stroke-linejoin="round"/>
<path d="M309.201 164.087C308.746 165.247 308.379 166.44 308.102 167.655" stroke="#448196" stroke-miterlimit="10" stroke-linejoin="round"/>
<path d="M299.579 128.494C299.618 129.05 299.2 129.533 298.643 129.573C298.087 129.612 297.604 129.193 297.564 128.637C297.525 128.081 297.944 127.598 298.5 127.558C299.056 127.519 299.539 127.937 299.579 128.494Z" fill="#A0CFE0"/>
<path d="M277.684 155.287C277.724 155.843 277.305 156.326 276.749 156.366C276.192 156.405 275.709 155.986 275.67 155.43C275.63 154.874 276.049 154.391 276.605 154.351C277.161 154.312 277.645 154.73 277.684 155.287Z" fill="#A0CFE0"/>
<path d="M286.985 147.433C287.025 147.989 286.606 148.473 286.05 148.512C285.494 148.552 285.01 148.133 284.971 147.577C284.931 147.02 285.35 146.537 285.906 146.498C286.462 146.458 286.946 146.877 286.985 147.433Z" fill="#A0CFE0"/>
<path d="M295.319 164.067C295.358 164.623 294.94 165.106 294.384 165.146C293.827 165.186 293.344 164.767 293.305 164.21C293.265 163.654 293.684 163.171 294.24 163.131C294.796 163.092 295.279 163.511 295.319 164.067Z" fill="#A0CFE0"/>
<path d="M337.344 118.381C337.383 118.938 336.965 119.421 336.408 119.46C335.852 119.5 335.369 119.081 335.329 118.525C335.29 117.969 335.709 117.485 336.265 117.446C336.821 117.406 337.304 117.825 337.344 118.381Z" fill="#A0CFE0"/>
<path d="M318.186 138.791C318.226 139.348 317.807 139.831 317.251 139.87C316.694 139.911 316.211 139.491 316.172 138.935C316.132 138.379 316.551 137.896 317.107 137.856C317.663 137.816 318.146 138.235 318.186 138.791Z" fill="#A0CFE0"/>
<path d="M303.142 148.013C303.182 148.569 302.763 149.053 302.207 149.092C301.651 149.132 301.168 148.713 301.128 148.157C301.088 147.601 301.507 147.117 302.063 147.078C302.62 147.038 303.103 147.457 303.142 148.013Z" fill="#A0CFE0"/>
<path d="M311.092 160.002C311.132 160.559 310.713 161.042 310.157 161.081C309.601 161.121 309.118 160.702 309.078 160.146C309.038 159.59 309.457 159.107 310.013 159.067C310.57 159.027 311.053 159.446 311.092 160.002Z" fill="#A0CFE0"/>
<path d="M317.466 114.538C317.505 115.095 317.087 115.578 316.531 115.617C315.974 115.658 315.491 115.238 315.452 114.682C315.412 114.126 315.831 113.643 316.387 113.603C316.943 113.564 317.426 113.982 317.466 114.538Z" fill="#A0CFE0"/>
<path d="M366.541 98.3071C366.581 98.8634 366.162 99.3465 365.606 99.3861C365.05 99.4256 364.567 99.0069 364.527 98.4507C364.488 97.8944 364.906 97.4113 365.463 97.3717C366.019 97.3322 366.502 97.7509 366.541 98.3071Z" fill="#A0CFE0"/>
<path d="M270.042 109.958C270.081 110.515 269.662 110.998 269.106 111.037C268.55 111.077 268.067 110.658 268.027 110.102C267.988 109.546 268.406 109.063 268.963 109.023C269.519 108.984 270.002 109.402 270.042 109.958Z" fill="#A0CFE0"/>
<path d="M288.105 114.277C288.144 114.833 287.726 115.316 287.17 115.356C286.613 115.396 286.13 114.977 286.091 114.42C286.051 113.864 286.47 113.381 287.026 113.341C287.582 113.302 288.065 113.72 288.105 114.277Z" fill="#A0CFE0"/>
<path d="M348.201 103.362C348.241 103.918 347.822 104.401 347.266 104.441C346.71 104.481 346.226 104.062 346.187 103.505C346.147 102.949 346.566 102.466 347.122 102.426C347.679 102.387 348.162 102.805 348.201 103.362Z" fill="#A0CFE0"/>
<path d="M368.456 82.5864C368.495 83.1427 368.076 83.6258 367.52 83.6654C366.964 83.7049 366.481 83.2862 366.441 82.73C366.402 82.1737 366.82 81.6906 367.377 81.651C367.933 81.6115 368.416 82.0302 368.456 82.5864Z" fill="#A0CFE0"/>
<path d="M382.739 75.144C382.779 75.7003 382.36 76.1835 381.804 76.223C381.247 76.2625 380.764 75.8439 380.725 75.2876C380.685 74.7314 381.104 74.2482 381.66 74.2086C382.216 74.1691 382.7 74.5878 382.739 75.144Z" fill="#A0CFE0"/>
<path d="M281.659 128.688C281.699 129.244 281.28 129.727 280.724 129.767C280.167 129.806 279.684 129.388 279.645 128.832C279.605 128.275 280.024 127.792 280.58 127.753C281.136 127.713 281.619 128.132 281.659 128.688Z" fill="#A0CFE0"/>
<path d="M248.302 88.0531C248.341 88.6094 247.923 89.0925 247.366 89.1321C246.81 89.1725 246.327 88.7529 246.287 88.1967C246.248 87.6404 246.667 87.1573 247.223 87.1177C247.779 87.0782 248.262 87.4969 248.302 88.0531Z" fill="#A0CFE0"/>
<path d="M264.001 92.1224C264.04 92.6787 263.621 93.1619 263.065 93.2014C262.509 93.2418 262.026 92.8223 261.986 92.266C261.947 91.7098 262.365 91.2266 262.922 91.1871C263.478 91.1475 263.961 91.5662 264.001 92.1224Z" fill="#A0CFE0"/>
<path d="M246.871 68.0181C246.91 68.5743 246.491 69.0575 245.935 69.097C245.379 69.1366 244.896 68.7179 244.856 68.1616C244.817 67.6054 245.235 67.1222 245.792 67.0827C246.348 67.0431 246.831 67.4618 246.871 68.0181Z" fill="#A0CFE0"/>
<path d="M295.662 93.9685C297.308 95.7834 299.502 97.2209 301.94 97.4608C302.88 97.5527 303.831 97.4659 304.761 97.2948C307.245 96.8366 309.659 95.7318 311.399 93.8997C315.42 89.6655 314.611 82.467 310.635 78.5285C310.143 78.0411 309.605 77.5906 308.988 77.2759C307.563 76.5503 305.874 76.6208 304.288 76.8203C302.802 77.0068 301.286 77.3069 300.028 78.1193C297.579 79.7012 296.667 83.2622 298.054 85.8268" fill="#2F2209"/>
<path d="M341.226 63.3009C341.361 64.0661 341.298 64.8493 340.975 65.5689C340.046 67.6391 337.484 68.4155 336.056 70.1797C333.109 73.8206 336.092 79.004 332.039 81.7388C328.387 84.2277 324.072 84.4306 319.883 83.4445C316.963 82.7567 308.811 83.3963 308.074 80.7561C307.118 77.3283 311.395 73.0563 314.189 72.0281C315.608 71.5054 317.134 71.3334 318.575 70.8735C323.474 69.3079 322.364 63.7291 325.333 60.3752C327.295 58.1588 330.633 57.8382 333.577 58.1374C335.616 58.3437 337.718 58.8114 339.308 60.1036C340.287 60.898 341.01 62.0767 341.226 63.3009Z" fill="#2F2209"/>
<path d="M295.13 82.2735C293.109 86.0211 289.655 96.6869 296.131 99.5335C299.813 101.152 304.964 96.9277 306.422 95.3526C310.351 91.1081 308.68 84.2371 306.719 81.823C303.707 78.1141 297.437 77.992 295.13 82.2735Z" fill="#FFA071"/>
<path d="M298.333 96.2922C298.333 96.2922 297.017 101.412 296.35 102.978C295.684 104.546 289.955 103.152 289.955 103.152C289.955 103.152 292.912 108.838 298.847 109.817C307.928 111.315 312.387 105.918 312.387 105.918C312.387 105.918 305.831 104.819 305.819 103.627C305.806 102.436 306.546 94.4876 306.546 94.4876" fill="#FFA071"/>
<path d="M307.92 77.935C305.353 75.8364 301.555 75.5535 298.528 76.9076C295.501 78.2608 293.971 80.987 292.927 84.1345C295.666 84.3658 298.278 85.2823 300.64 86.3698C300.64 86.3698 302.817 84.965 303.561 83.8792C303.372 85.0699 302.954 86.2237 302.335 87.2571C303.914 88.6765 305.57 90.0099 307.293 91.2497C307.874 91.6684 308.644 92.0879 309.26 91.7225C309.586 91.53 309.763 91.1646 309.906 90.8147C311.561 86.7945 311.136 81.98 308.801 78.3124" fill="#2F2209"/>
<path d="M306.62 91.4297C306.933 90.9972 307.58 90.888 308.062 91.1176C308.543 91.348 308.853 91.8578 308.933 92.3848C309.014 92.9127 308.89 93.4535 308.681 93.9444C308.428 94.5376 308.037 95.0878 307.492 95.4317C306.946 95.7756 306.235 95.8874 305.645 95.6278C305.055 95.3681 304.642 94.7018 304.765 94.0691" fill="#FFA071"/>
<path d="M297.337 99.9468C297.337 99.9468 300.974 100.964 303.85 98.0287" stroke="#DD6945" stroke-width="1.33333" stroke-miterlimit="10" stroke-linejoin="round"/>
<path d="M300.767 90.369C301.257 90.0922 301.835 90.0449 302.336 90.3269C302.748 90.5607 302.887 90.933 303.14 91.301C303.256 91.4669 303.513 91.4067 303.522 91.1969C303.55 90.5994 303.019 90.0561 302.5 89.8308C301.86 89.5523 301.153 89.6847 300.611 90.1025C300.458 90.2194 300.588 90.4696 300.767 90.369Z" fill="#010101"/>
<path d="M295.474 88.9215C295.454 88.3455 295.112 87.8176 294.528 87.6766C294.016 87.5536 293.43 87.7591 293.31 88.3059C293.291 88.3988 293.393 88.5011 293.483 88.4392C293.736 88.2646 294.084 88.0884 294.398 88.1469C294.796 88.2208 295.081 88.5982 295.21 88.9576C295.259 89.0917 295.48 89.0823 295.474 88.9215Z" fill="#010101"/>
<path d="M296.998 89.7657C296.998 89.7657 294.51 92.8186 295.14 93.5812C295.77 94.3429 297.078 93.8451 297.078 93.8451" stroke="#DD6945" stroke-miterlimit="10" stroke-linejoin="round"/>
<path d="M295.491 95.9916C296.35 99.4392 301.294 98.7136 300.809 94.6848L295.491 95.9916Z" fill="white"/>
<path d="M306.851 95.3047C307.305 95.3047 307.306 94.5997 306.851 94.5997C306.397 94.5997 306.396 95.3047 306.851 95.3047Z" fill="#222A41"/>
<path d="M352.22 201.932L350.914 203.31L373.449 225.558C374.321 226.384 374.694 227.607 374.432 228.778L374.56 228.951L376.66 226.734C376.738 226.652 376.782 226.543 376.783 226.43V226.322C376.787 225.596 376.49 224.903 375.964 224.403L353.165 201.907C352.897 201.653 352.474 201.664 352.22 201.932Z" fill="#7FB0C6"/>
<path d="M323.802 225.709L343.66 210.957L351.698 204.969L373.549 226.568C374.124 227.112 374.148 228.018 373.603 228.593C373.196 229.023 372.566 229.158 372.018 228.932L357.088 225.136L338.435 242.181" fill="#FFA071"/>
<path d="M356.093 226.053L372.602 229.541C373.23 229.767 373.981 229.561 374.492 229.022C375.174 228.302 374.986 227.015 374.352 226.413L350.914 203.31L343.418 211.167C343.418 211.167 353.832 218.742 356.093 226.053Z" fill="#222A41"/>
<path d="M359.049 226.933C359.184 225.575 359.478 224.234 359.925 222.945" stroke="#7FB0C6" stroke-width="1.33333" stroke-miterlimit="10" stroke-linecap="round" stroke-linejoin="round"/>
<path d="M361.173 227.395C361.36 225.937 361.58 225.201 361.961 224.044" stroke="#7FB0C6" stroke-width="1.33333" stroke-miterlimit="10" stroke-linecap="round" stroke-linejoin="round"/>
<path d="M362.88 227.88C362.991 226.908 363.354 225.76 363.616 224.818" stroke="#7FB0C6" stroke-width="1.33333" stroke-miterlimit="10" stroke-linecap="round" stroke-linejoin="round"/>
<path d="M366.272 228.204C366.272 228.204 366.775 224.195 369.892 220.626" stroke="#7FB0C6" stroke-width="1.33333" stroke-miterlimit="10"/>
<path d="M346.148 208.306C346.148 208.306 350.595 212.133 356.861 207.702" stroke="#7FB0C6" stroke-width="1.33333" stroke-miterlimit="10"/>
<path d="M268.443 171.99C263.962 176.463 236.454 245.402 276.979 266.306C312.179 284.463 352.854 229.8 352.854 229.8L339.699 213.437C339.699 213.437 297.737 246.077 296.634 230.641C295.532 215.205 307.482 197.949 300.65 171.142" fill="#222A41"/>
<path d="M341.532 215.769C341.532 215.769 294.729 250.956 293.559 234.585C292.39 218.214 305.38 199.547 298.134 171.117" stroke="#4A5C82" stroke-width="1.33333" stroke-miterlimit="10" stroke-linejoin="round"/>
<path d="M384.882 235.683L383.137 236.432L395.026 265.782C395.499 266.885 395.358 268.156 394.654 269.128L394.702 269.338L397.509 268.133C397.613 268.089 397.697 268.006 397.742 267.902L397.785 267.804C398.076 267.139 398.078 266.384 397.792 265.717L385.761 236.034C385.615 235.694 385.222 235.537 384.882 235.683Z" fill="#7FB0C6"/>
<path d="M349.373 246.27L373.449 240.583L383.201 238.267L394.718 266.751C395.03 267.477 394.694 268.32 393.966 268.632C393.421 268.866 392.789 268.74 392.376 268.315L380.167 258.92L356.292 267.189" fill="#FFA071"/>
<path d="M378.892 259.368L392.671 269.106C393.158 269.562 393.929 269.67 394.613 269.377C395.525 268.986 395.861 267.729 395.516 266.926L383.137 236.432L373.143 240.68C373.143 240.68 379.709 251.759 378.892 259.368Z" fill="#222A41"/>
<path d="M381.258 261.346C381.919 260.152 382.721 259.037 383.641 258.031" stroke="#7FB0C6" stroke-width="1.33333" stroke-miterlimit="10" stroke-linecap="round" stroke-linejoin="round"/>
<path d="M383.026 262.611C383.774 261.348 384.267 260.758 385.075 259.846" stroke="#7FB0C6" stroke-width="1.33333" stroke-miterlimit="10" stroke-linecap="round" stroke-linejoin="round"/>
<path d="M384.401 263.73C384.888 262.882 385.675 261.971 386.289 261.21" stroke="#7FB0C6" stroke-width="1.33333" stroke-miterlimit="10" stroke-linecap="round" stroke-linejoin="round"/>
<path d="M387.388 265.372C387.388 265.372 389.436 261.889 393.711 259.846" stroke="#7FB0C6" stroke-width="1.33333" stroke-miterlimit="10"/>
<path d="M376.783 239.133C376.783 239.133 379.353 244.408 386.861 242.819" stroke="#7FB0C6" stroke-width="1.33333" stroke-miterlimit="10"/>
<path d="M285.995 175.326C285.199 176.245 261.188 254.959 298.231 270.197C330.606 283.515 374.063 261.7 374.063 261.7L367.129 241.805C367.129 241.805 316.369 250.155 315.266 234.719C314.164 219.284 328.843 193.28 316.693 173.133" fill="#222A41"/>
<path d="M285.995 175.326C285.199 176.246 261.188 254.959 298.231 270.197" stroke="#4A5C82" stroke-width="1.33333" stroke-miterlimit="10" stroke-linejoin="round"/>
<path d="M340.251 244.059C328.322 243.947 315.78 241.919 315.266 234.72C315.149 233.083 315.178 231.401 315.313 229.669" stroke="#4A5C82" stroke-width="1.33333" stroke-miterlimit="10" stroke-linejoin="round"/>
<path d="M368.224 244.949C368.224 244.949 312.158 254.046 310.993 237.736C309.827 221.426 324.975 200.424 314.738 175.388" stroke="#4A5C82" stroke-width="1.33333" stroke-miterlimit="10" stroke-linejoin="round"/>
<path d="M363.926 242.277L371.747 262.787" stroke="#4A5C82" stroke-width="1.33333" stroke-miterlimit="10" stroke-linejoin="round"/>
<path d="M318.306 194.033C318.306 194.033 306.975 188.884 302.664 175.789" stroke="#4A5C82" stroke-width="1.33333" stroke-miterlimit="10" stroke-linejoin="round"/>
<path d="M317.924 191.183C317.924 191.183 308.73 185.694 305.136 175.612" stroke="#4A5C82" stroke-width="1.33333" stroke-miterlimit="10" stroke-linejoin="round" stroke-dasharray="3.33 3.33"/>
<path d="M337.722 214.938L350.857 232.336" stroke="#4A5C82" stroke-width="1.33333" stroke-miterlimit="10" stroke-linejoin="round"/>
<path d="M279.532 174.814C279.532 174.814 275.644 191.322 280.801 195.792" stroke="#4A5C82" stroke-width="1.33333" stroke-miterlimit="10" stroke-linejoin="round"/>
<path d="M261.174 189.146C261.174 189.146 271.8 186.645 274.963 174.477" stroke="#4A5C82" stroke-width="1.33333" stroke-miterlimit="10" stroke-linejoin="round"/>
<path d="M262.098 185.943C262.098 185.943 269.663 182.516 272.561 174.022" stroke="#4A5C82" stroke-width="1.33333" stroke-miterlimit="10" stroke-linejoin="round" stroke-dasharray="3.33 3.33"/>
<path d="M267.747 172.916L269.627 166.556C269.627 166.556 281.79 168.93 292.163 169.477C302.537 170.024 317.192 168.875 317.192 168.875L317.625 174.941C317.625 174.941 292.983 179.604 267.747 172.916Z" fill="#222A41"/>
<path d="M267.747 172.916C267.747 172.916 290.93 179.429 317.625 174.941" stroke="#4A5C82" stroke-width="1.33333" stroke-miterlimit="10" stroke-linejoin="round"/>
<path d="M310.99 175.848L310.522 169.288" stroke="#4A5C82" stroke-width="1.33333" stroke-miterlimit="10" stroke-linejoin="round"/>
<path d="M297.774 176.518L298.21 169.624" stroke="#4A5C82" stroke-width="1.33333" stroke-miterlimit="10" stroke-linejoin="round"/>
<path d="M284.009 175.761L286.705 176.114C287.621 176.302 288.517 175.72 288.727 174.802L289.481 171.512C289.717 170.483 288.999 169.479 287.957 169.381L285.447 169.146" stroke="#4A5C82" stroke-width="1.33333" stroke-miterlimit="10" stroke-linejoin="round"/>
<path d="M278.459 168.028L277.405 174.967" stroke="#4A5C82" stroke-width="1.33333" stroke-miterlimit="10" stroke-linejoin="round"/>
<path d="M287.766 172.54C287.818 173.267 287.27 173.9 286.543 173.952C285.815 174.004 285.183 173.456 285.131 172.728C285.079 172 285.626 171.368 286.355 171.317C287.082 171.264 287.715 171.813 287.766 172.54Z" fill="#4A5C82"/>
<path d="M99.5268 16.4223C99.5268 17.2614 98.8467 17.9414 98.0076 17.9414C97.1694 17.9414 96.4893 17.2614 96.4893 16.4223C96.4893 15.5832 97.1694 14.9031 98.0076 14.9031C98.8467 14.9031 99.5268 15.5832 99.5268 16.4223Z" fill="white"/>
<path d="M199.704 1.51991C199.704 2.35901 199.023 3.03906 198.184 3.03906C197.346 3.03906 196.666 2.35901 196.666 1.51991C196.666 0.680811 197.346 0.000761509 198.184 0.000761509C199.023 0.000761509 199.704 0.680811 199.704 1.51991Z" fill="white"/>
<path d="M115.37 49.2299C115.37 50.069 114.69 50.749 113.851 50.749C113.012 50.749 112.332 50.069 112.332 49.2299C112.332 48.3908 113.012 47.7107 113.851 47.7107C114.69 47.7107 115.37 48.3908 115.37 49.2299Z" fill="white"/>
<path d="M18.6031 121.873C18.6031 122.713 17.9231 123.393 17.084 123.393C16.2457 123.393 15.5657 122.713 15.5657 121.873C15.5657 121.034 16.2457 120.354 17.084 120.354C17.9231 120.354 18.6031 121.034 18.6031 121.873Z" fill="white"/>
<path d="M221.751 40.4887C221.751 41.3278 221.071 42.0078 220.232 42.0078C219.394 42.0078 218.714 41.3278 218.714 40.4887C218.714 39.6496 219.394 38.9695 220.232 38.9695C221.071 38.9695 221.751 39.6496 221.751 40.4887Z" fill="white"/>
<path d="M145.686 128.162C145.686 129.001 145.006 129.681 144.167 129.681C143.329 129.681 142.649 129.001 142.649 128.162C142.649 127.322 143.329 126.642 144.167 126.642C145.006 126.642 145.686 127.322 145.686 128.162Z" fill="white"/>
<path d="M308.812 40.4887C308.812 41.3278 308.132 42.0078 307.293 42.0078C306.455 42.0078 305.775 41.3278 305.775 40.4887C305.775 39.6496 306.455 38.9695 307.293 38.9695C308.132 38.9695 308.812 39.6496 308.812 40.4887Z" fill="white"/>
<path d="M363.538 38.226C363.538 39.0651 362.858 39.7451 362.019 39.7451C361.181 39.7451 360.501 39.0651 360.501 38.226C360.501 37.3869 361.181 36.7068 362.019 36.7068C362.858 36.7068 363.538 37.3869 363.538 38.226Z" fill="white"/>
<path d="M291.805 3.03847C291.805 3.87757 291.125 4.55762 290.286 4.55762C289.447 4.55762 288.767 3.87757 288.767 3.03847C288.767 2.19937 289.447 1.51932 290.286 1.51932C291.125 1.51932 291.805 2.19937 291.805 3.03847Z" fill="white"/>
<path d="M368.244 133.868C368.244 134.707 367.564 135.387 366.725 135.387C365.887 135.387 365.207 134.707 365.207 133.868C365.207 133.028 365.887 132.348 366.725 132.348C367.564 132.348 368.244 133.028 368.244 133.868Z" fill="white"/>
<path d="M260.851 156.37C260.851 157.209 260.171 157.889 259.332 157.889C258.494 157.889 257.814 157.209 257.814 156.37C257.814 155.53 258.494 154.85 259.332 154.85C260.171 154.85 260.851 155.53 260.851 156.37Z" fill="white"/>
<path d="M84.5171 36.7033L79.921 40.8369" stroke="white" stroke-width="2.66667" stroke-miterlimit="10" stroke-linecap="round"/>
<path d="M138.209 5.26758L132.193 3.84816" stroke="white" stroke-width="2.66667" stroke-miterlimit="10" stroke-linecap="round"/>
<path d="M208.467 49.4248L203.322 45.997" stroke="white" stroke-width="2.66667" stroke-miterlimit="10" stroke-linecap="round"/>
<path d="M366.8 59.3291L362.492 54.8955" stroke="white" stroke-width="2.66667" stroke-miterlimit="10" stroke-linecap="round"/>
<path d="M353.362 14.9043L347.322 13.5889" stroke="white" stroke-width="2.66667" stroke-miterlimit="10" stroke-linecap="round"/>
<path d="M258.535 15.2495L255.222 16.7979" stroke="white" stroke-width="2.66667" stroke-miterlimit="10" stroke-linecap="round"/>
<path d="M327.324 28.7861L323.825 27.7209" stroke="white" stroke-width="2.66667" stroke-miterlimit="10" stroke-linecap="round"/>
<path d="M254.053 128.884L250.854 130.655" stroke="white" stroke-width="2.66667" stroke-miterlimit="10" stroke-linecap="round"/>
<path d="M45.4826 144.472L42.4081 142.492" stroke="white" stroke-width="2.66667" stroke-miterlimit="10" stroke-linecap="round"/>
<path d="M346.473 145.929L342.997 147.063" stroke="white" stroke-width="2.66667" stroke-miterlimit="10" stroke-linecap="round"/>
<path d="M50.1154 27.9023L46.4771 27.5378" stroke="white" stroke-width="2.66667" stroke-miterlimit="10" stroke-linecap="round"/>
</svg>
