<svg width="531" height="146" viewBox="0 0 531 146" fill="none" xmlns="http://www.w3.org/2000/svg">
<rect y="0.101562" width="531" height="144.923" rx="7" fill="#A9F1DF" fill-opacity="0.4"/>
<g clip-path="url(#clip0)">
<path d="M38.3582 18.3865C38.3582 16.0724 38.3582 15.6865 40.2867 15.6865V11.3799C35.7871 11.3799 34.4998 14.4034 34.4998 19.7361V26.803H42.8599V19.7361H38.3582V18.3865Z" fill="black"/>
<path d="M48.0014 19.7361V18.3865C48.0014 16.0724 48.0014 15.6865 49.9299 15.6865V11.3799C45.4303 11.3799 44.1437 14.4034 44.1437 19.7361V26.803H52.4997V19.7361H48.0014Z" fill="black"/>
</g>
<g clip-path="url(#clip1)">
<path d="M484.641 111.747C484.641 114.061 484.641 114.447 482.713 114.447L482.713 118.754C487.212 118.754 488.5 115.73 488.5 110.397L488.5 103.33L480.14 103.33L480.14 110.397L484.641 110.397L484.641 111.747Z" fill="black"/>
<path d="M474.998 110.397L474.998 111.747C474.998 114.061 474.998 114.447 473.07 114.447L473.07 118.754C477.569 118.754 478.856 115.73 478.856 110.397L478.856 103.33L470.5 103.33L470.5 110.397L474.998 110.397Z" fill="black"/>
</g>
<path d="M72.8066 25.6537H65.2166V45.0938H63.1166V25.6537H55.5266V23.7937H72.8066V25.6537ZM78.958 45.3938C77.838 45.3938 76.798 45.1838 75.838 44.7637C74.878 44.3237 74.048 43.7338 73.348 42.9937C72.648 42.2337 72.098 41.3637 71.698 40.3837C71.318 39.4037 71.128 38.3537 71.128 37.2337C71.128 35.7737 71.458 34.4337 72.118 33.2137C72.798 31.9937 73.728 31.0237 74.908 30.3037C76.088 29.5637 77.428 29.1937 78.928 29.1937C80.468 29.1937 81.808 29.5637 82.948 30.3037C84.108 31.0437 85.018 32.0237 85.678 33.2437C86.338 34.4437 86.668 35.7637 86.668 37.2037C86.668 37.3637 86.668 37.5237 86.668 37.6837C86.668 37.8237 86.658 37.9337 86.638 38.0137H73.258C73.358 39.1337 73.668 40.1337 74.188 41.0137C74.728 41.8737 75.418 42.5637 76.258 43.0837C77.118 43.5837 78.048 43.8337 79.048 43.8337C80.068 43.8337 81.028 43.5737 81.928 43.0537C82.848 42.5337 83.488 41.8537 83.848 41.0137L85.618 41.4937C85.298 42.2337 84.808 42.9037 84.148 43.5037C83.488 44.1037 82.708 44.5737 81.808 44.9137C80.928 45.2338 79.978 45.3938 78.958 45.3938ZM73.198 36.5437H84.748C84.668 35.4037 84.358 34.4037 83.818 33.5437C83.298 32.6837 82.608 32.0137 81.748 31.5337C80.908 31.0337 79.978 30.7837 78.958 30.7837C77.938 30.7837 77.008 31.0337 76.168 31.5337C75.328 32.0137 74.638 32.6937 74.098 33.5737C73.578 34.4337 73.278 35.4237 73.198 36.5437ZM97.6154 31.2637C96.2554 31.3037 95.0554 31.6837 94.0154 32.4037C92.9954 33.1237 92.2754 34.1137 91.8554 35.3737V45.0938H89.8154V29.4637H91.7354V33.2137C92.2754 32.1137 92.9854 31.2237 93.8654 30.5437C94.7654 29.8637 95.7154 29.4837 96.7154 29.4037C96.9154 29.3837 97.0854 29.3737 97.2254 29.3737C97.3854 29.3737 97.5154 29.3837 97.6154 29.4037V31.2637ZM120.013 29.4637H122.023L115.303 45.0938H113.533L110.263 37.3237L107.023 45.0938H105.253L98.533 29.4637H100.513L106.213 42.9937L109.093 35.9437L106.453 29.4937H108.283L110.263 34.5637L112.273 29.4937H114.073L111.463 35.9437L114.343 42.9937L120.013 29.4637ZM124.587 38.6437V29.4637H126.627V38.2837C126.627 40.0637 126.927 41.3937 127.527 42.2737C128.147 43.1537 129.057 43.5937 130.257 43.5937C131.057 43.5937 131.827 43.4237 132.567 43.0837C133.327 42.7237 133.997 42.2237 134.577 41.5837C135.157 40.9237 135.597 40.1637 135.897 39.3037V29.4637H137.937V42.6337C137.937 42.9137 137.997 43.1237 138.117 43.2637C138.237 43.3837 138.417 43.4537 138.657 43.4737V45.0938C138.417 45.1138 138.227 45.1238 138.087 45.1238C137.947 45.1438 137.817 45.1538 137.697 45.1538C137.297 45.1138 136.947 44.9537 136.647 44.6737C136.367 44.3937 136.217 44.0537 136.197 43.6537L136.137 41.5537C135.457 42.7537 134.527 43.6937 133.347 44.3737C132.187 45.0538 130.927 45.3938 129.567 45.3938C127.927 45.3938 126.687 44.8237 125.847 43.6837C125.007 42.5437 124.587 40.8637 124.587 38.6437ZM140.21 50.5238C139.55 50.5238 138.93 50.4338 138.35 50.2538C137.75 50.0738 137.23 49.7738 136.79 49.3538L137.78 47.9738C138.08 48.2538 138.43 48.4438 138.83 48.5438C139.21 48.6438 139.59 48.6938 139.97 48.6938C140.45 48.6938 140.9 48.5738 141.32 48.3338C141.74 48.0938 142.08 47.7538 142.34 47.3138C142.62 46.8938 142.76 46.4238 142.76 45.9038V29.4637H144.8V45.7838C144.8 46.7038 144.58 47.5238 144.14 48.2438C143.7 48.9638 143.13 49.5238 142.43 49.9238C141.73 50.3238 140.99 50.5238 140.21 50.5238ZM142.76 26.1937V23.1937H144.8V26.1937H142.76ZM149.138 38.6437V29.4637H151.178V38.2837C151.178 40.0637 151.478 41.3937 152.078 42.2737C152.698 43.1537 153.608 43.5937 154.808 43.5937C155.608 43.5937 156.378 43.4237 157.118 43.0837C157.878 42.7237 158.548 42.2237 159.128 41.5837C159.708 40.9237 160.148 40.1637 160.448 39.3037V29.4637H162.488V42.6337C162.488 42.9137 162.548 43.1237 162.668 43.2637C162.788 43.3837 162.968 43.4537 163.208 43.4737V45.0938C162.968 45.1138 162.778 45.1238 162.638 45.1238C162.498 45.1438 162.368 45.1538 162.248 45.1538C161.848 45.1138 161.498 44.9537 161.198 44.6737C160.918 44.3937 160.768 44.0537 160.748 43.6537L160.688 41.5537C160.008 42.7537 159.078 43.6937 157.898 44.3737C156.738 45.0538 155.478 45.3938 154.118 45.3938C152.478 45.3938 151.238 44.8237 150.398 43.6837C149.558 42.5437 149.138 40.8637 149.138 38.6437ZM166.051 37.3237C166.051 35.8437 166.351 34.4937 166.951 33.2737C167.571 32.0337 168.421 31.0437 169.501 30.3037C170.581 29.5637 171.811 29.1937 173.191 29.1937C174.491 29.1937 175.651 29.5437 176.671 30.2437C177.711 30.9237 178.521 31.7537 179.101 32.7337V23.1937H181.141V42.6337C181.141 42.9137 181.201 43.1237 181.321 43.2637C181.441 43.3837 181.621 43.4537 181.861 43.4737V45.0938C181.461 45.1538 181.151 45.1738 180.931 45.1538C180.511 45.1338 180.141 44.9637 179.821 44.6437C179.501 44.3237 179.341 43.9737 179.341 43.5937V42.0637C178.721 43.0837 177.881 43.8937 176.821 44.4937C175.761 45.0938 174.661 45.3938 173.521 45.3938C172.441 45.3938 171.441 45.1738 170.521 44.7337C169.621 44.2937 168.831 43.6937 168.151 42.9337C167.491 42.1737 166.971 41.3137 166.591 40.3537C166.231 39.3737 166.051 38.3637 166.051 37.3237ZM179.101 39.7237V34.8937C178.841 34.1737 178.421 33.5237 177.841 32.9437C177.261 32.3437 176.601 31.8737 175.861 31.5337C175.141 31.1737 174.421 30.9937 173.701 30.9937C172.861 30.9937 172.101 31.1737 171.421 31.5337C170.741 31.8737 170.151 32.3437 169.651 32.9437C169.171 33.5437 168.801 34.2237 168.541 34.9837C168.281 35.7437 168.151 36.5237 168.151 37.3237C168.151 38.1637 168.291 38.9637 168.571 39.7237C168.871 40.4837 169.291 41.1637 169.831 41.7637C170.371 42.3437 170.991 42.7937 171.691 43.1138C172.391 43.4337 173.151 43.5937 173.971 43.5937C174.491 43.5937 175.031 43.4937 175.591 43.2937C176.151 43.0937 176.681 42.8237 177.181 42.4837C177.701 42.1237 178.131 41.7037 178.471 41.2237C178.811 40.7437 179.021 40.2437 179.101 39.7237ZM198.903 45.0938H196.863V36.3637C196.863 34.5237 196.593 33.1837 196.053 32.3437C195.513 31.4837 194.663 31.0537 193.503 31.0537C192.703 31.0537 191.913 31.2537 191.133 31.6537C190.353 32.0337 189.663 32.5637 189.063 33.2437C188.483 33.9037 188.063 34.6637 187.803 35.5237V45.0938H185.763V29.4637H187.623V33.0037C188.043 32.2437 188.593 31.5837 189.273 31.0237C189.953 30.4437 190.723 29.9937 191.583 29.6738C192.443 29.3537 193.333 29.1937 194.253 29.1937C195.113 29.1937 195.843 29.3537 196.443 29.6738C197.043 29.9937 197.523 30.4537 197.883 31.0537C198.243 31.6337 198.503 32.3437 198.663 33.1837C198.823 34.0037 198.903 34.9237 198.903 35.9437V45.0938ZM203.831 49.8938C204.111 49.9138 204.381 49.9238 204.641 49.9238C204.901 49.9438 205.091 49.9338 205.211 49.8938C205.451 49.8538 205.681 49.7138 205.901 49.4738C206.121 49.2338 206.381 48.7738 206.681 48.0938C206.981 47.4138 207.401 46.4137 207.941 45.0938L201.131 29.4637H203.291L209.021 42.9937L214.301 29.4637H216.341L208.241 49.6238C208.101 50.0038 207.891 50.3538 207.611 50.6738C207.331 51.0138 206.981 51.2738 206.561 51.4538C206.161 51.6538 205.661 51.7638 205.061 51.7838C204.881 51.8038 204.691 51.8038 204.491 51.7838C204.311 51.7838 204.091 51.7638 203.831 51.7238V49.8938ZM217.52 40.5937C217.52 39.6137 217.8 38.7737 218.36 38.0737C218.92 37.3537 219.69 36.8037 220.67 36.4237C221.67 36.0237 222.82 35.8237 224.12 35.8237C224.88 35.8237 225.67 35.8837 226.49 36.0037C227.31 36.1237 228.04 36.3037 228.68 36.5437V35.2237C228.68 33.9037 228.29 32.8537 227.51 32.0737C226.73 31.2937 225.65 30.9037 224.27 30.9037C223.43 30.9037 222.6 31.0637 221.78 31.3837C220.98 31.6837 220.14 32.1337 219.26 32.7337L218.48 31.2937C219.5 30.5937 220.5 30.0737 221.48 29.7337C222.46 29.3737 223.46 29.1937 224.48 29.1937C226.4 29.1937 227.92 29.7437 229.04 30.8437C230.16 31.9437 230.72 33.4637 230.72 35.4037V42.6337C230.72 42.9137 230.78 43.1237 230.9 43.2637C231.02 43.3837 231.21 43.4537 231.47 43.4737V45.0938C231.25 45.1138 231.06 45.1338 230.9 45.1538C230.74 45.1738 230.62 45.1738 230.54 45.1538C230.04 45.1338 229.66 44.9737 229.4 44.6737C229.14 44.3737 229 44.0537 228.98 43.7137L228.95 42.5737C228.25 43.4737 227.34 44.1737 226.22 44.6737C225.1 45.1538 223.96 45.3938 222.8 45.3938C221.8 45.3938 220.89 45.1838 220.07 44.7637C219.27 44.3237 218.64 43.7437 218.18 43.0237C217.74 42.2837 217.52 41.4737 217.52 40.5937ZM227.99 41.7937C228.21 41.5137 228.38 41.2437 228.5 40.9837C228.62 40.7237 228.68 40.4937 228.68 40.2937V38.0137C228 37.7537 227.29 37.5537 226.55 37.4137C225.83 37.2737 225.1 37.2037 224.36 37.2037C222.9 37.2037 221.72 37.4937 220.82 38.0737C219.92 38.6537 219.47 39.4437 219.47 40.4437C219.47 41.0237 219.62 41.5737 219.92 42.0937C220.22 42.5937 220.66 43.0137 221.24 43.3537C221.82 43.6737 222.5 43.8337 223.28 43.8337C224.26 43.8337 225.17 43.6437 226.01 43.2637C226.87 42.8837 227.53 42.3937 227.99 41.7937ZM243.194 45.0938V23.8237H245.294V36.1837L257.024 23.7937H259.334L250.634 33.1537L259.784 45.0938H257.414L249.284 34.4137L245.294 38.5537V45.0938H243.194ZM267.774 45.3938C266.654 45.3938 265.614 45.1838 264.654 44.7637C263.714 44.3237 262.894 43.7338 262.194 42.9937C261.514 42.2337 260.984 41.3737 260.604 40.4137C260.224 39.4337 260.034 38.4037 260.034 37.3237C260.034 36.2037 260.224 35.1637 260.604 34.2037C260.984 33.2237 261.524 32.3637 262.224 31.6237C262.924 30.8637 263.744 30.2737 264.684 29.8537C265.644 29.4137 266.684 29.1937 267.804 29.1937C268.924 29.1937 269.954 29.4137 270.894 29.8537C271.834 30.2737 272.654 30.8637 273.354 31.6237C274.054 32.3637 274.594 33.2237 274.974 34.2037C275.354 35.1637 275.544 36.2037 275.544 37.3237C275.544 38.4037 275.354 39.4337 274.974 40.4137C274.594 41.3737 274.054 42.2337 273.354 42.9937C272.674 43.7338 271.854 44.3237 270.894 44.7637C269.954 45.1838 268.914 45.3938 267.774 45.3938ZM262.104 37.3537C262.104 38.5137 262.354 39.5737 262.854 40.5337C263.374 41.4737 264.064 42.2237 264.924 42.7837C265.784 43.3237 266.734 43.5937 267.774 43.5937C268.814 43.5937 269.764 43.3137 270.624 42.7537C271.484 42.1937 272.174 41.4337 272.694 40.4737C273.214 39.4937 273.474 38.4337 273.474 37.2937C273.474 36.1337 273.214 35.0737 272.694 34.1137C272.174 33.1537 271.484 32.3937 270.624 31.8337C269.764 31.2737 268.814 30.9937 267.774 30.9937C266.734 30.9937 265.784 31.2837 264.924 31.8637C264.084 32.4437 263.404 33.2137 262.884 34.1737C262.364 35.1137 262.104 36.1737 262.104 37.3537ZM286.222 44.3437C286.062 44.4037 285.812 44.5137 285.472 44.6737C285.132 44.8337 284.722 44.9737 284.242 45.0938C283.762 45.2138 283.242 45.2738 282.682 45.2738C282.102 45.2738 281.552 45.1637 281.032 44.9437C280.532 44.7237 280.132 44.3937 279.832 43.9537C279.532 43.4937 279.382 42.9337 279.382 42.2737V31.0837H277.222V29.4637H279.382V24.1837H281.422V29.4637H285.022V31.0837H281.422V41.7037C281.462 42.2637 281.662 42.6837 282.022 42.9637C282.402 43.2437 282.832 43.3837 283.312 43.3837C283.872 43.3837 284.382 43.2937 284.842 43.1138C285.302 42.9137 285.582 42.7737 285.682 42.6937L286.222 44.3437ZM287.511 40.5937C287.511 39.6137 287.791 38.7737 288.351 38.0737C288.911 37.3537 289.681 36.8037 290.661 36.4237C291.661 36.0237 292.811 35.8237 294.111 35.8237C294.871 35.8237 295.661 35.8837 296.481 36.0037C297.301 36.1237 298.031 36.3037 298.671 36.5437V35.2237C298.671 33.9037 298.281 32.8537 297.501 32.0737C296.721 31.2937 295.641 30.9037 294.261 30.9037C293.421 30.9037 292.591 31.0637 291.771 31.3837C290.971 31.6837 290.131 32.1337 289.251 32.7337L288.471 31.2937C289.491 30.5937 290.491 30.0737 291.471 29.7337C292.451 29.3737 293.451 29.1937 294.471 29.1937C296.391 29.1937 297.911 29.7437 299.031 30.8437C300.151 31.9437 300.711 33.4637 300.711 35.4037V42.6337C300.711 42.9137 300.771 43.1237 300.891 43.2637C301.011 43.3837 301.201 43.4537 301.461 43.4737V45.0938C301.241 45.1138 301.051 45.1338 300.891 45.1538C300.731 45.1738 300.611 45.1738 300.531 45.1538C300.031 45.1338 299.651 44.9737 299.391 44.6737C299.131 44.3737 298.991 44.0537 298.971 43.7137L298.941 42.5737C298.241 43.4737 297.331 44.1737 296.211 44.6737C295.091 45.1538 293.951 45.3938 292.791 45.3938C291.791 45.3938 290.881 45.1838 290.061 44.7637C289.261 44.3237 288.631 43.7437 288.171 43.0237C287.731 42.2837 287.511 41.4737 287.511 40.5937ZM297.981 41.7937C298.201 41.5137 298.371 41.2437 298.491 40.9837C298.611 40.7237 298.671 40.4937 298.671 40.2937V38.0137C297.991 37.7537 297.281 37.5537 296.541 37.4137C295.821 37.2737 295.091 37.2037 294.351 37.2037C292.891 37.2037 291.711 37.4937 290.811 38.0737C289.911 38.6537 289.461 39.4437 289.461 40.4437C289.461 41.0237 289.611 41.5737 289.911 42.0937C290.211 42.5937 290.651 43.0137 291.231 43.3537C291.811 43.6737 292.491 43.8337 293.271 43.8337C294.251 43.8337 295.161 43.6437 296.001 43.2637C296.861 42.8837 297.521 42.3937 297.981 41.7937ZM329.205 39.6037C329.205 40.6637 328.935 41.6137 328.395 42.4537C327.855 43.2737 327.125 43.9237 326.205 44.4037C325.305 44.8637 324.315 45.0938 323.235 45.0938H313.185V23.7937H323.445C324.445 23.7937 325.305 24.0637 326.025 24.6037C326.765 25.1237 327.325 25.8037 327.705 26.6437C328.105 27.4637 328.305 28.3237 328.305 29.2237C328.305 30.2837 328.035 31.2637 327.495 32.1637C326.955 33.0637 326.205 33.7337 325.245 34.1737C326.465 34.5337 327.425 35.2037 328.125 36.1837C328.845 37.1637 329.205 38.3037 329.205 39.6037ZM327.105 39.2437C327.105 38.5237 326.945 37.8637 326.625 37.2637C326.305 36.6437 325.865 36.1437 325.305 35.7637C324.765 35.3837 324.145 35.1937 323.445 35.1937H315.285V43.2637H323.235C323.955 43.2637 324.605 43.0737 325.185 42.6937C325.765 42.3137 326.225 41.8237 326.565 41.2237C326.925 40.6037 327.105 39.9437 327.105 39.2437ZM315.285 25.6237V33.4837H322.605C323.305 33.4837 323.925 33.3037 324.465 32.9437C325.005 32.5637 325.435 32.0737 325.755 31.4737C326.075 30.8737 326.235 30.2337 326.235 29.5537C326.235 28.8337 326.085 28.1837 325.785 27.6037C325.485 27.0037 325.075 26.5237 324.555 26.1637C324.035 25.8037 323.445 25.6237 322.785 25.6237H315.285ZM332.745 45.0938V29.4637H334.785V45.0938H332.745ZM332.745 26.1937V23.1937H334.785V26.1937H332.745ZM346.778 44.3437C346.618 44.4037 346.368 44.5137 346.028 44.6737C345.688 44.8337 345.278 44.9737 344.798 45.0938C344.318 45.2138 343.798 45.2738 343.238 45.2738C342.658 45.2738 342.108 45.1637 341.588 44.9437C341.088 44.7237 340.688 44.3937 340.388 43.9537C340.088 43.4937 339.938 42.9337 339.938 42.2737V31.0837H337.778V29.4637H339.938V24.1837H341.978V29.4637H345.578V31.0837H341.978V41.7037C342.018 42.2637 342.218 42.6837 342.578 42.9637C342.958 43.2437 343.388 43.3837 343.868 43.3837C344.428 43.3837 344.938 43.2937 345.398 43.1138C345.858 42.9137 346.138 42.7737 346.238 42.6937L346.778 44.3437ZM349.177 38.6437V29.4637H351.217V38.2837C351.217 40.0637 351.517 41.3937 352.117 42.2737C352.737 43.1537 353.647 43.5937 354.847 43.5937C355.647 43.5937 356.417 43.4237 357.157 43.0837C357.917 42.7237 358.587 42.2237 359.167 41.5837C359.747 40.9237 360.187 40.1637 360.487 39.3037V29.4637H362.527V42.6337C362.527 42.9137 362.587 43.1237 362.707 43.2637C362.827 43.3837 363.007 43.4537 363.247 43.4737V45.0938C363.007 45.1138 362.817 45.1238 362.677 45.1238C362.537 45.1438 362.407 45.1538 362.287 45.1538C361.887 45.1138 361.537 44.9537 361.237 44.6737C360.957 44.3937 360.807 44.0537 360.787 43.6537L360.727 41.5537C360.047 42.7537 359.117 43.6937 357.937 44.3737C356.777 45.0538 355.517 45.3938 354.157 45.3938C352.517 45.3938 351.277 44.8237 350.437 43.6837C349.597 42.5437 349.177 40.8637 349.177 38.6437ZM380.28 45.0938H378.24V36.3637C378.24 34.5237 377.97 33.1837 377.43 32.3437C376.89 31.4837 376.04 31.0537 374.88 31.0537C374.08 31.0537 373.29 31.2537 372.51 31.6537C371.73 32.0337 371.04 32.5637 370.44 33.2437C369.86 33.9037 369.44 34.6637 369.18 35.5237V45.0938H367.14V29.4637H369V33.0037C369.42 32.2437 369.97 31.5837 370.65 31.0237C371.33 30.4437 372.1 29.9937 372.96 29.6738C373.82 29.3537 374.71 29.1937 375.63 29.1937C376.49 29.1937 377.22 29.3537 377.82 29.6738C378.42 29.9937 378.9 30.4537 379.26 31.0537C379.62 31.6337 379.88 32.3437 380.04 33.1837C380.2 34.0037 380.28 34.9237 380.28 35.9437V45.0938ZM390.9 45.3038C389.84 45.3038 388.86 45.0837 387.96 44.6437C387.06 44.2037 386.28 43.6137 385.62 42.8737C384.98 42.1137 384.48 41.2537 384.12 40.2937C383.76 39.3337 383.58 38.3437 383.58 37.3237C383.58 36.2237 383.75 35.1937 384.09 34.2337C384.45 33.2537 384.95 32.3837 385.59 31.6237C386.25 30.8637 387.02 30.2737 387.9 29.8537C388.78 29.4137 389.76 29.1937 390.84 29.1937C392.18 29.1937 393.34 29.5337 394.32 30.2137C395.32 30.8937 396.16 31.7337 396.84 32.7337V29.4637H398.67V45.1538C398.67 46.5938 398.32 47.8038 397.62 48.7838C396.94 49.7838 396.01 50.5338 394.83 51.0338C393.67 51.5338 392.4 51.7838 391.02 51.7838C389.24 51.7838 387.8 51.4638 386.7 50.8238C385.6 50.1838 384.7 49.3238 384 48.2438L385.26 47.2538C385.88 48.2338 386.7 48.9638 387.72 49.4438C388.76 49.9238 389.86 50.1638 391.02 50.1638C392.04 50.1638 392.97 49.9738 393.81 49.5938C394.67 49.2338 395.35 48.6838 395.85 47.9438C396.37 47.2038 396.63 46.2738 396.63 45.1538V42.0637C396.03 43.0437 395.21 43.8337 394.17 44.4337C393.13 45.0137 392.04 45.3038 390.9 45.3038ZM391.47 43.5937C392.09 43.5937 392.68 43.4837 393.24 43.2637C393.82 43.0437 394.35 42.7537 394.83 42.3937C395.31 42.0137 395.71 41.5937 396.03 41.1338C396.35 40.6737 396.55 40.2037 396.63 39.7237V34.8937C396.33 34.1337 395.9 33.4637 395.34 32.8837C394.78 32.2837 394.14 31.8237 393.42 31.5037C392.72 31.1637 391.99 30.9937 391.23 30.9937C390.35 30.9937 389.56 31.1837 388.86 31.5637C388.18 31.9237 387.6 32.4137 387.12 33.0337C386.66 33.6337 386.3 34.3137 386.04 35.0737C385.78 35.8337 385.65 36.5937 385.65 37.3537C385.65 38.1937 385.8 38.9937 386.1 39.7537C386.4 40.4937 386.81 41.1637 387.33 41.7637C387.87 42.3437 388.49 42.7937 389.19 43.1138C389.91 43.4337 390.67 43.5937 391.47 43.5937ZM410.901 49.8938C411.181 49.9138 411.451 49.9238 411.711 49.9238C411.971 49.9438 412.161 49.9338 412.281 49.8938C412.521 49.8538 412.751 49.7138 412.971 49.4738C413.191 49.2338 413.451 48.7738 413.751 48.0938C414.051 47.4138 414.471 46.4137 415.011 45.0938L408.201 29.4637H410.361L416.091 42.9937L421.371 29.4637H423.411L415.311 49.6238C415.171 50.0038 414.961 50.3538 414.681 50.6738C414.401 51.0138 414.051 51.2738 413.631 51.4538C413.231 51.6538 412.731 51.7638 412.131 51.7838C411.951 51.8038 411.761 51.8038 411.561 51.7838C411.381 51.7838 411.161 51.7638 410.901 51.7238V49.8938ZM424.591 40.5937C424.591 39.6137 424.871 38.7737 425.431 38.0737C425.991 37.3537 426.761 36.8037 427.741 36.4237C428.741 36.0237 429.891 35.8237 431.191 35.8237C431.951 35.8237 432.741 35.8837 433.561 36.0037C434.381 36.1237 435.111 36.3037 435.751 36.5437V35.2237C435.751 33.9037 435.361 32.8537 434.581 32.0737C433.801 31.2937 432.721 30.9037 431.341 30.9037C430.501 30.9037 429.671 31.0637 428.851 31.3837C428.051 31.6837 427.211 32.1337 426.331 32.7337L425.551 31.2937C426.571 30.5937 427.571 30.0737 428.551 29.7337C429.531 29.3737 430.531 29.1937 431.551 29.1937C433.471 29.1937 434.991 29.7437 436.111 30.8437C437.231 31.9437 437.791 33.4637 437.791 35.4037V42.6337C437.791 42.9137 437.851 43.1237 437.971 43.2637C438.091 43.3837 438.281 43.4537 438.541 43.4737V45.0938C438.321 45.1138 438.131 45.1338 437.971 45.1538C437.811 45.1738 437.691 45.1738 437.611 45.1538C437.111 45.1338 436.731 44.9737 436.471 44.6737C436.211 44.3737 436.071 44.0537 436.051 43.7137L436.021 42.5737C435.321 43.4737 434.411 44.1737 433.291 44.6737C432.171 45.1538 431.031 45.3938 429.871 45.3938C428.871 45.3938 427.961 45.1838 427.141 44.7637C426.341 44.3237 425.711 43.7437 425.251 43.0237C424.811 42.2837 424.591 41.4737 424.591 40.5937ZM435.061 41.7937C435.281 41.5137 435.451 41.2437 435.571 40.9837C435.691 40.7237 435.751 40.4937 435.751 40.2937V38.0137C435.071 37.7537 434.361 37.5537 433.621 37.4137C432.901 37.2737 432.171 37.2037 431.431 37.2037C429.971 37.2037 428.791 37.4937 427.891 38.0737C426.991 38.6537 426.541 39.4437 426.541 40.4437C426.541 41.0237 426.691 41.5737 426.991 42.0937C427.291 42.5937 427.731 43.0137 428.311 43.3537C428.891 43.6737 429.571 43.8337 430.351 43.8337C431.331 43.8337 432.241 43.6437 433.081 43.2637C433.941 42.8837 434.601 42.3937 435.061 41.7937ZM455.338 45.0938H453.298V36.3637C453.298 34.5237 453.028 33.1837 452.488 32.3437C451.948 31.4837 451.098 31.0537 449.938 31.0537C449.138 31.0537 448.348 31.2537 447.568 31.6537C446.788 32.0337 446.098 32.5637 445.498 33.2437C444.918 33.9037 444.498 34.6637 444.238 35.5237V45.0938H442.198V29.4637H444.058V33.0037C444.478 32.2437 445.028 31.5837 445.708 31.0237C446.388 30.4437 447.158 29.9937 448.018 29.6738C448.878 29.3537 449.768 29.1937 450.688 29.1937C451.548 29.1937 452.278 29.3537 452.878 29.6738C453.478 29.9937 453.958 30.4537 454.318 31.0537C454.678 31.6337 454.938 32.3437 455.098 33.1837C455.258 34.0037 455.338 34.9237 455.338 35.9437V45.0938ZM465.958 45.3038C464.898 45.3038 463.918 45.0837 463.018 44.6437C462.118 44.2037 461.338 43.6137 460.678 42.8737C460.038 42.1137 459.538 41.2537 459.178 40.2937C458.818 39.3337 458.638 38.3437 458.638 37.3237C458.638 36.2237 458.808 35.1937 459.148 34.2337C459.508 33.2537 460.008 32.3837 460.648 31.6237C461.308 30.8637 462.078 30.2737 462.958 29.8537C463.838 29.4137 464.818 29.1937 465.898 29.1937C467.238 29.1937 468.398 29.5337 469.378 30.2137C470.378 30.8937 471.218 31.7337 471.898 32.7337V29.4637H473.728V45.1538C473.728 46.5938 473.378 47.8038 472.678 48.7838C471.998 49.7838 471.068 50.5338 469.888 51.0338C468.728 51.5338 467.458 51.7838 466.078 51.7838C464.298 51.7838 462.858 51.4638 461.758 50.8238C460.658 50.1838 459.758 49.3238 459.058 48.2438L460.318 47.2538C460.938 48.2338 461.758 48.9638 462.778 49.4438C463.818 49.9238 464.918 50.1638 466.078 50.1638C467.098 50.1638 468.028 49.9738 468.868 49.5938C469.728 49.2338 470.408 48.6838 470.908 47.9438C471.428 47.2038 471.688 46.2738 471.688 45.1538V42.0637C471.088 43.0437 470.268 43.8337 469.228 44.4337C468.188 45.0137 467.098 45.3038 465.958 45.3038ZM466.528 43.5937C467.148 43.5937 467.738 43.4837 468.298 43.2637C468.878 43.0437 469.408 42.7537 469.888 42.3937C470.368 42.0137 470.768 41.5937 471.088 41.1338C471.408 40.6737 471.608 40.2037 471.688 39.7237V34.8937C471.388 34.1337 470.958 33.4637 470.398 32.8837C469.838 32.2837 469.198 31.8237 468.478 31.5037C467.778 31.1637 467.048 30.9937 466.288 30.9937C465.408 30.9937 464.618 31.1837 463.918 31.5637C463.238 31.9237 462.658 32.4137 462.178 33.0337C461.718 33.6337 461.358 34.3137 461.098 35.0737C460.838 35.8337 460.708 36.5937 460.708 37.3537C460.708 38.1937 460.858 38.9937 461.158 39.7537C461.458 40.4937 461.868 41.1637 462.388 41.7637C462.928 42.3437 463.548 42.7937 464.248 43.1138C464.968 43.4337 465.728 43.5937 466.528 43.5937ZM32.983 86.3938C31.763 86.3938 30.633 86.0837 29.593 85.4637C28.553 84.8237 27.743 84.0237 27.163 83.0637V86.0938H25.333V64.1937H27.373V73.7337C28.073 72.6737 28.913 71.8237 29.893 71.1837C30.873 70.5237 32.013 70.1937 33.313 70.1937C34.413 70.1937 35.393 70.4237 36.253 70.8837C37.133 71.3437 37.883 71.9637 38.503 72.7437C39.123 73.5037 39.593 74.3737 39.913 75.3537C40.233 76.3137 40.393 77.3037 40.393 78.3237C40.393 79.4237 40.203 80.4537 39.823 81.4137C39.463 82.3737 38.943 83.2337 38.263 83.9937C37.583 84.7338 36.793 85.3237 35.893 85.7637C35.013 86.1838 34.043 86.3938 32.983 86.3938ZM32.503 84.5937C33.343 84.5937 34.123 84.4237 34.843 84.0837C35.563 83.7437 36.183 83.2737 36.703 82.6737C37.223 82.0737 37.623 81.4037 37.903 80.6637C38.183 79.9037 38.323 79.1237 38.323 78.3237C38.323 77.2237 38.083 76.1937 37.603 75.2337C37.143 74.2537 36.493 73.4737 35.653 72.8937C34.833 72.2937 33.863 71.9937 32.743 71.9937C31.943 71.9937 31.193 72.1737 30.493 72.5337C29.813 72.8937 29.203 73.3737 28.663 73.9737C28.143 74.5537 27.713 75.1937 27.373 75.8937V80.7537C27.453 81.2937 27.663 81.8037 28.003 82.2837C28.343 82.7437 28.763 83.1437 29.263 83.4837C29.783 83.8237 30.323 84.0937 30.883 84.2937C31.443 84.4937 31.983 84.5937 32.503 84.5937ZM50.5986 86.3938C49.4786 86.3938 48.4386 86.1838 47.4786 85.7637C46.5186 85.3237 45.6886 84.7338 44.9886 83.9937C44.2886 83.2337 43.7386 82.3637 43.3386 81.3837C42.9586 80.4037 42.7686 79.3537 42.7686 78.2337C42.7686 76.7737 43.0986 75.4337 43.7586 74.2137C44.4386 72.9937 45.3686 72.0237 46.5486 71.3037C47.7286 70.5637 49.0686 70.1937 50.5686 70.1937C52.1086 70.1937 53.4486 70.5637 54.5886 71.3037C55.7486 72.0437 56.6586 73.0237 57.3186 74.2437C57.9786 75.4437 58.3086 76.7637 58.3086 78.2037C58.3086 78.3637 58.3086 78.5237 58.3086 78.6837C58.3086 78.8237 58.2986 78.9337 58.2786 79.0137H44.8986C44.9986 80.1337 45.3086 81.1337 45.8286 82.0137C46.3686 82.8737 47.0586 83.5637 47.8986 84.0837C48.7586 84.5837 49.6886 84.8337 50.6886 84.8337C51.7086 84.8337 52.6686 84.5737 53.5686 84.0537C54.4886 83.5337 55.1286 82.8537 55.4886 82.0137L57.2586 82.4937C56.9386 83.2337 56.4486 83.9037 55.7886 84.5037C55.1286 85.1037 54.3486 85.5737 53.4486 85.9137C52.5686 86.2338 51.6186 86.3938 50.5986 86.3938ZM44.8386 77.5437H56.3886C56.3086 76.4037 55.9986 75.4037 55.4586 74.5437C54.9386 73.6837 54.2486 73.0137 53.3886 72.5337C52.5486 72.0337 51.6186 71.7837 50.5986 71.7837C49.5786 71.7837 48.6486 72.0337 47.8086 72.5337C46.9686 73.0137 46.2786 73.6937 45.7386 74.5737C45.2186 75.4337 44.9186 76.4237 44.8386 77.5437ZM69.2561 72.2637C67.8961 72.3037 66.6961 72.6837 65.6561 73.4037C64.6361 74.1237 63.9161 75.1137 63.4961 76.3737V86.0938H61.4561V70.4637H63.3761V74.2137C63.9161 73.1137 64.6261 72.2237 65.5061 71.5437C66.4061 70.8637 67.3561 70.4837 68.3561 70.4037C68.5561 70.3837 68.7261 70.3737 68.8661 70.3737C69.0261 70.3737 69.1561 70.3837 69.2561 70.4037V72.2637ZM70.5135 78.3237C70.5135 76.8437 70.8135 75.4937 71.4135 74.2737C72.0335 73.0337 72.8835 72.0437 73.9635 71.3037C75.0435 70.5637 76.2735 70.1937 77.6535 70.1937C78.9535 70.1937 80.1135 70.5437 81.1335 71.2437C82.1735 71.9237 82.9835 72.7537 83.5635 73.7337V64.1937H85.6035V83.6337C85.6035 83.9137 85.6635 84.1237 85.7835 84.2637C85.9035 84.3837 86.0835 84.4537 86.3235 84.4737V86.0938C85.9235 86.1538 85.6135 86.1738 85.3935 86.1538C84.9735 86.1338 84.6035 85.9637 84.2835 85.6437C83.9635 85.3237 83.8035 84.9737 83.8035 84.5937V83.0637C83.1835 84.0837 82.3435 84.8937 81.2835 85.4937C80.2235 86.0938 79.1235 86.3938 77.9835 86.3938C76.9035 86.3938 75.9035 86.1738 74.9835 85.7337C74.0835 85.2937 73.2935 84.6937 72.6135 83.9337C71.9535 83.1737 71.4335 82.3137 71.0535 81.3537C70.6935 80.3737 70.5135 79.3637 70.5135 78.3237ZM83.5635 80.7237V75.8937C83.3035 75.1737 82.8835 74.5237 82.3035 73.9437C81.7235 73.3437 81.0635 72.8737 80.3235 72.5337C79.6035 72.1737 78.8835 71.9937 78.1635 71.9937C77.3235 71.9937 76.5635 72.1737 75.8835 72.5337C75.2035 72.8737 74.6135 73.3437 74.1135 73.9437C73.6335 74.5437 73.2635 75.2237 73.0035 75.9837C72.7435 76.7437 72.6135 77.5237 72.6135 78.3237C72.6135 79.1637 72.7535 79.9637 73.0335 80.7237C73.3335 81.4837 73.7535 82.1637 74.2935 82.7637C74.8335 83.3437 75.4535 83.7937 76.1535 84.1138C76.8535 84.4337 77.6135 84.5937 78.4335 84.5937C78.9535 84.5937 79.4935 84.4937 80.0535 84.2937C80.6135 84.0937 81.1435 83.8237 81.6435 83.4837C82.1635 83.1237 82.5935 82.7037 82.9335 82.2237C83.2735 81.7437 83.4835 81.2437 83.5635 80.7237ZM88.9656 81.5937C88.9656 80.6137 89.2456 79.7737 89.8056 79.0737C90.3656 78.3537 91.1356 77.8037 92.1156 77.4237C93.1156 77.0237 94.2656 76.8237 95.5656 76.8237C96.3256 76.8237 97.1156 76.8837 97.9356 77.0037C98.7556 77.1237 99.4856 77.3037 100.126 77.5437V76.2237C100.126 74.9037 99.7356 73.8537 98.9556 73.0737C98.1756 72.2937 97.0956 71.9037 95.7156 71.9037C94.8756 71.9037 94.0456 72.0637 93.2256 72.3837C92.4256 72.6837 91.5856 73.1337 90.7056 73.7337L89.9256 72.2937C90.9456 71.5937 91.9456 71.0737 92.9256 70.7337C93.9056 70.3737 94.9056 70.1937 95.9256 70.1937C97.8456 70.1937 99.3656 70.7437 100.486 71.8437C101.606 72.9437 102.166 74.4637 102.166 76.4037V83.6337C102.166 83.9137 102.226 84.1237 102.346 84.2637C102.466 84.3837 102.656 84.4537 102.916 84.4737V86.0938C102.696 86.1138 102.506 86.1338 102.346 86.1538C102.186 86.1738 102.066 86.1738 101.986 86.1538C101.486 86.1338 101.106 85.9737 100.846 85.6737C100.586 85.3737 100.446 85.0537 100.426 84.7137L100.396 83.5737C99.6956 84.4737 98.7856 85.1737 97.6656 85.6737C96.5456 86.1538 95.4056 86.3938 94.2456 86.3938C93.2456 86.3938 92.3356 86.1838 91.5156 85.7637C90.7156 85.3237 90.0856 84.7437 89.6256 84.0237C89.1856 83.2837 88.9656 82.4737 88.9656 81.5937ZM99.4356 82.7937C99.6556 82.5137 99.8256 82.2437 99.9456 81.9837C100.066 81.7237 100.126 81.4937 100.126 81.2937V79.0137C99.4456 78.7537 98.7356 78.5537 97.9956 78.4137C97.2756 78.2737 96.5456 78.2037 95.8056 78.2037C94.3456 78.2037 93.1656 78.4937 92.2656 79.0737C91.3656 79.6537 90.9156 80.4437 90.9156 81.4437C90.9156 82.0237 91.0656 82.5737 91.3656 83.0937C91.6656 83.5937 92.1056 84.0137 92.6856 84.3537C93.2656 84.6737 93.9456 84.8337 94.7256 84.8337C95.7056 84.8337 96.6156 84.6437 97.4556 84.2637C98.3156 83.8837 98.9756 83.3937 99.4356 82.7937ZM106.423 79.6437V70.4637H108.463V79.2837C108.463 81.0637 108.763 82.3937 109.363 83.2737C109.983 84.1537 110.893 84.5937 112.093 84.5937C112.893 84.5937 113.663 84.4237 114.403 84.0837C115.163 83.7237 115.833 83.2237 116.413 82.5837C116.993 81.9237 117.433 81.1637 117.733 80.3037V70.4637H119.773V83.6337C119.773 83.9137 119.833 84.1237 119.953 84.2637C120.073 84.3837 120.253 84.4537 120.493 84.4737V86.0938C120.253 86.1138 120.063 86.1238 119.923 86.1238C119.783 86.1438 119.653 86.1538 119.533 86.1538C119.133 86.1138 118.783 85.9537 118.483 85.6737C118.203 85.3937 118.053 85.0537 118.033 84.6537L117.973 82.5537C117.293 83.7537 116.363 84.6937 115.183 85.3737C114.023 86.0538 112.763 86.3938 111.403 86.3938C109.763 86.3938 108.523 85.8237 107.683 84.6837C106.843 83.5437 106.423 81.8637 106.423 79.6437ZM124.476 64.1937H126.516V82.5537C126.516 83.3337 126.656 83.8437 126.936 84.0837C127.216 84.3237 127.556 84.4437 127.956 84.4437C128.316 84.4437 128.676 84.4037 129.036 84.3237C129.396 84.2437 129.706 84.1637 129.966 84.0837L130.326 85.7337C129.946 85.8937 129.476 86.0237 128.916 86.1238C128.376 86.2238 127.906 86.2738 127.506 86.2738C126.586 86.2738 125.846 86.0037 125.286 85.4637C124.746 84.9237 124.476 84.1837 124.476 83.2437V64.1937ZM131.3 81.5937C131.3 80.6137 131.58 79.7737 132.14 79.0737C132.7 78.3537 133.47 77.8037 134.45 77.4237C135.45 77.0237 136.6 76.8237 137.9 76.8237C138.66 76.8237 139.45 76.8837 140.27 77.0037C141.09 77.1237 141.82 77.3037 142.46 77.5437V76.2237C142.46 74.9037 142.07 73.8537 141.29 73.0737C140.51 72.2937 139.43 71.9037 138.05 71.9037C137.21 71.9037 136.38 72.0637 135.56 72.3837C134.76 72.6837 133.92 73.1337 133.04 73.7337L132.26 72.2937C133.28 71.5937 134.28 71.0737 135.26 70.7337C136.24 70.3737 137.24 70.1937 138.26 70.1937C140.18 70.1937 141.7 70.7437 142.82 71.8437C143.94 72.9437 144.5 74.4637 144.5 76.4037V83.6337C144.5 83.9137 144.56 84.1237 144.68 84.2637C144.8 84.3837 144.99 84.4537 145.25 84.4737V86.0938C145.03 86.1138 144.84 86.1338 144.68 86.1538C144.52 86.1738 144.4 86.1738 144.32 86.1538C143.82 86.1338 143.44 85.9737 143.18 85.6737C142.92 85.3737 142.78 85.0537 142.76 84.7137L142.73 83.5737C142.03 84.4737 141.12 85.1737 140 85.6737C138.88 86.1538 137.74 86.3938 136.58 86.3938C135.58 86.3938 134.67 86.1838 133.85 85.7637C133.05 85.3237 132.42 84.7437 131.96 84.0237C131.52 83.2837 131.3 82.4737 131.3 81.5937ZM141.77 82.7937C141.99 82.5137 142.16 82.2437 142.28 81.9837C142.4 81.7237 142.46 81.4937 142.46 81.2937V79.0137C141.78 78.7537 141.07 78.5537 140.33 78.4137C139.61 78.2737 138.88 78.2037 138.14 78.2037C136.68 78.2037 135.5 78.4937 134.6 79.0737C133.7 79.6537 133.25 80.4437 133.25 81.4437C133.25 82.0237 133.4 82.5737 133.7 83.0937C134 83.5937 134.44 84.0137 135.02 84.3537C135.6 84.6737 136.28 84.8337 137.06 84.8337C138.04 84.8337 138.95 84.6437 139.79 84.2637C140.65 83.8837 141.31 83.3937 141.77 82.7937ZM156.29 85.3437C156.13 85.4037 155.88 85.5137 155.54 85.6737C155.2 85.8337 154.79 85.9737 154.31 86.0938C153.83 86.2138 153.31 86.2738 152.75 86.2738C152.17 86.2738 151.62 86.1637 151.1 85.9437C150.6 85.7237 150.2 85.3937 149.9 84.9537C149.6 84.4937 149.45 83.9337 149.45 83.2737V72.0837H147.29V70.4637H149.45V65.1837H151.49V70.4637H155.09V72.0837H151.49V82.7037C151.53 83.2637 151.73 83.6837 152.09 83.9637C152.47 84.2437 152.9 84.3837 153.38 84.3837C153.94 84.3837 154.45 84.2937 154.91 84.1138C155.37 83.9137 155.65 83.7737 155.75 83.6937L156.29 85.3437ZM159.169 88.5238L159.679 86.0037H158.989V83.1537H160.969V86.0037L160.219 88.5238H159.169ZM196.474 86.0938H194.434V77.3637C194.434 75.5437 194.144 74.2037 193.564 73.3437C192.984 72.4837 192.124 72.0537 190.984 72.0537C189.804 72.0537 188.744 72.4737 187.804 73.3137C186.884 74.1537 186.234 75.2337 185.854 76.5537V86.0938H183.814V77.3637C183.814 75.5237 183.534 74.1837 182.974 73.3437C182.414 72.4837 181.554 72.0537 180.394 72.0537C179.234 72.0537 178.184 72.4637 177.244 73.2837C176.304 74.1037 175.644 75.1837 175.264 76.5237V86.0938H173.224V70.4637H175.084V74.0037C175.744 72.7837 176.584 71.8437 177.604 71.1837C178.644 70.5237 179.794 70.1937 181.054 70.1937C182.354 70.1937 183.404 70.5637 184.204 71.3037C185.004 72.0437 185.494 73.0137 185.674 74.2137C186.394 72.8937 187.254 71.8937 188.254 71.2137C189.274 70.5337 190.424 70.1937 191.704 70.1937C192.584 70.1937 193.324 70.3537 193.924 70.6738C194.544 70.9937 195.034 71.4537 195.394 72.0537C195.774 72.6337 196.044 73.3437 196.204 74.1837C196.384 75.0037 196.474 75.9237 196.474 76.9437V86.0938ZM199.532 81.5937C199.532 80.6137 199.812 79.7737 200.372 79.0737C200.932 78.3537 201.702 77.8037 202.682 77.4237C203.682 77.0237 204.832 76.8237 206.132 76.8237C206.892 76.8237 207.682 76.8837 208.502 77.0037C209.322 77.1237 210.052 77.3037 210.692 77.5437V76.2237C210.692 74.9037 210.302 73.8537 209.522 73.0737C208.742 72.2937 207.662 71.9037 206.282 71.9037C205.442 71.9037 204.612 72.0637 203.792 72.3837C202.992 72.6837 202.152 73.1337 201.272 73.7337L200.492 72.2937C201.512 71.5937 202.512 71.0737 203.492 70.7337C204.472 70.3737 205.472 70.1937 206.492 70.1937C208.412 70.1937 209.932 70.7437 211.052 71.8437C212.172 72.9437 212.732 74.4637 212.732 76.4037V83.6337C212.732 83.9137 212.792 84.1237 212.912 84.2637C213.032 84.3837 213.222 84.4537 213.482 84.4737V86.0938C213.262 86.1138 213.072 86.1338 212.912 86.1538C212.752 86.1738 212.632 86.1738 212.552 86.1538C212.052 86.1338 211.672 85.9737 211.412 85.6737C211.152 85.3737 211.012 85.0537 210.992 84.7137L210.962 83.5737C210.262 84.4737 209.352 85.1737 208.232 85.6737C207.112 86.1538 205.972 86.3938 204.812 86.3938C203.812 86.3938 202.902 86.1838 202.082 85.7637C201.282 85.3237 200.652 84.7437 200.192 84.0237C199.752 83.2837 199.532 82.4737 199.532 81.5937ZM210.002 82.7937C210.222 82.5137 210.392 82.2437 210.512 81.9837C210.632 81.7237 210.692 81.4937 210.692 81.2937V79.0137C210.012 78.7537 209.302 78.5537 208.562 78.4137C207.842 78.2737 207.112 78.2037 206.372 78.2037C204.912 78.2037 203.732 78.4937 202.832 79.0737C201.932 79.6537 201.482 80.4437 201.482 81.4437C201.482 82.0237 201.632 82.5737 201.932 83.0937C202.232 83.5937 202.672 84.0137 203.252 84.3537C203.832 84.6737 204.512 84.8337 205.292 84.8337C206.272 84.8337 207.182 84.6437 208.022 84.2637C208.882 83.8837 209.542 83.3937 210.002 82.7937ZM230.28 86.0938H228.24V77.3637C228.24 75.5237 227.97 74.1837 227.43 73.3437C226.89 72.4837 226.04 72.0537 224.88 72.0537C224.08 72.0537 223.29 72.2537 222.51 72.6537C221.73 73.0337 221.04 73.5637 220.44 74.2437C219.86 74.9037 219.44 75.6637 219.18 76.5237V86.0938H217.14V70.4637H219V74.0037C219.42 73.2437 219.97 72.5837 220.65 72.0237C221.33 71.4437 222.1 70.9937 222.96 70.6738C223.82 70.3537 224.71 70.1937 225.63 70.1937C226.49 70.1937 227.22 70.3537 227.82 70.6738C228.42 70.9937 228.9 71.4537 229.26 72.0537C229.62 72.6337 229.88 73.3437 230.04 74.1837C230.2 75.0037 230.28 75.9237 230.28 76.9437V86.0938ZM233.58 78.3237C233.58 76.8437 233.88 75.4937 234.48 74.2737C235.1 73.0337 235.95 72.0437 237.03 71.3037C238.11 70.5637 239.34 70.1937 240.72 70.1937C242.02 70.1937 243.18 70.5437 244.2 71.2437C245.24 71.9237 246.05 72.7537 246.63 73.7337V64.1937H248.67V83.6337C248.67 83.9137 248.73 84.1237 248.85 84.2637C248.97 84.3837 249.15 84.4537 249.39 84.4737V86.0938C248.99 86.1538 248.68 86.1738 248.46 86.1538C248.04 86.1338 247.67 85.9637 247.35 85.6437C247.03 85.3237 246.87 84.9737 246.87 84.5937V83.0637C246.25 84.0837 245.41 84.8937 244.35 85.4937C243.29 86.0938 242.19 86.3938 241.05 86.3938C239.97 86.3938 238.97 86.1738 238.05 85.7337C237.15 85.2937 236.36 84.6937 235.68 83.9337C235.02 83.1737 234.5 82.3137 234.12 81.3537C233.76 80.3737 233.58 79.3637 233.58 78.3237ZM246.63 80.7237V75.8937C246.37 75.1737 245.95 74.5237 245.37 73.9437C244.79 73.3437 244.13 72.8737 243.39 72.5337C242.67 72.1737 241.95 71.9937 241.23 71.9937C240.39 71.9937 239.63 72.1737 238.95 72.5337C238.27 72.8737 237.68 73.3437 237.18 73.9437C236.7 74.5437 236.33 75.2237 236.07 75.9837C235.81 76.7437 235.68 77.5237 235.68 78.3237C235.68 79.1637 235.82 79.9637 236.1 80.7237C236.4 81.4837 236.82 82.1637 237.36 82.7637C237.9 83.3437 238.52 83.7937 239.22 84.1138C239.92 84.4337 240.68 84.5937 241.5 84.5937C242.02 84.5937 242.56 84.4937 243.12 84.2937C243.68 84.0937 244.21 83.8237 244.71 83.4837C245.23 83.1237 245.66 82.7037 246 82.2237C246.34 81.7437 246.55 81.2437 246.63 80.7237ZM253.292 86.0938V70.4637H255.332V86.0938H253.292ZM253.292 67.1937V64.1937H255.332V67.1937H253.292ZM267.625 72.2637C266.265 72.3037 265.065 72.6837 264.025 73.4037C263.005 74.1237 262.285 75.1137 261.865 76.3737V86.0938H259.825V70.4637H261.745V74.2137C262.285 73.1137 262.995 72.2237 263.875 71.5437C264.775 70.8637 265.725 70.4837 266.725 70.4037C266.925 70.3837 267.095 70.3737 267.235 70.3737C267.395 70.3737 267.525 70.3837 267.625 70.4037V72.2637ZM270.343 86.0938V70.4637H272.383V86.0938H270.343ZM270.343 67.1937V64.1937H272.383V67.1937H270.343ZM277.206 88.5238L277.716 86.0037H277.026V83.1537H279.006V86.0037L278.256 88.5238H277.206ZM290.211 78.3237C290.211 76.8437 290.511 75.4937 291.111 74.2737C291.731 73.0337 292.581 72.0437 293.661 71.3037C294.741 70.5637 295.971 70.1937 297.351 70.1937C298.651 70.1937 299.811 70.5437 300.831 71.2437C301.871 71.9237 302.681 72.7537 303.261 73.7337V64.1937H305.301V83.6337C305.301 83.9137 305.361 84.1237 305.481 84.2637C305.601 84.3837 305.781 84.4537 306.021 84.4737V86.0938C305.621 86.1538 305.311 86.1738 305.091 86.1538C304.671 86.1338 304.301 85.9637 303.981 85.6437C303.661 85.3237 303.501 84.9737 303.501 84.5937V83.0637C302.881 84.0837 302.041 84.8937 300.981 85.4937C299.921 86.0938 298.821 86.3938 297.681 86.3938C296.601 86.3938 295.601 86.1738 294.681 85.7337C293.781 85.2937 292.991 84.6937 292.311 83.9337C291.651 83.1737 291.131 82.3137 290.751 81.3537C290.391 80.3737 290.211 79.3637 290.211 78.3237ZM303.261 80.7237V75.8937C303.001 75.1737 302.581 74.5237 302.001 73.9437C301.421 73.3437 300.761 72.8737 300.021 72.5337C299.301 72.1737 298.581 71.9937 297.861 71.9937C297.021 71.9937 296.261 72.1737 295.581 72.5337C294.901 72.8737 294.311 73.3437 293.811 73.9437C293.331 74.5437 292.961 75.2237 292.701 75.9837C292.441 76.7437 292.311 77.5237 292.311 78.3237C292.311 79.1637 292.451 79.9637 292.731 80.7237C293.031 81.4837 293.451 82.1637 293.991 82.7637C294.531 83.3437 295.151 83.7937 295.851 84.1138C296.551 84.4337 297.311 84.5937 298.131 84.5937C298.651 84.5937 299.191 84.4937 299.751 84.2937C300.311 84.0937 300.841 83.8237 301.341 83.4837C301.861 83.1237 302.291 82.7037 302.631 82.2237C302.971 81.7437 303.181 81.2437 303.261 80.7237ZM308.663 81.5937C308.663 80.6137 308.943 79.7737 309.503 79.0737C310.063 78.3537 310.833 77.8037 311.813 77.4237C312.813 77.0237 313.963 76.8237 315.263 76.8237C316.023 76.8237 316.813 76.8837 317.633 77.0037C318.453 77.1237 319.183 77.3037 319.823 77.5437V76.2237C319.823 74.9037 319.433 73.8537 318.653 73.0737C317.873 72.2937 316.793 71.9037 315.413 71.9037C314.573 71.9037 313.743 72.0637 312.923 72.3837C312.123 72.6837 311.283 73.1337 310.403 73.7337L309.623 72.2937C310.643 71.5937 311.643 71.0737 312.623 70.7337C313.603 70.3737 314.603 70.1937 315.623 70.1937C317.543 70.1937 319.063 70.7437 320.183 71.8437C321.303 72.9437 321.863 74.4637 321.863 76.4037V83.6337C321.863 83.9137 321.923 84.1237 322.043 84.2637C322.163 84.3837 322.353 84.4537 322.613 84.4737V86.0938C322.393 86.1138 322.203 86.1338 322.043 86.1538C321.883 86.1738 321.763 86.1738 321.683 86.1538C321.183 86.1338 320.803 85.9737 320.543 85.6737C320.283 85.3737 320.143 85.0537 320.123 84.7137L320.093 83.5737C319.393 84.4737 318.483 85.1737 317.363 85.6737C316.243 86.1538 315.103 86.3938 313.943 86.3938C312.943 86.3938 312.033 86.1838 311.213 85.7637C310.413 85.3237 309.783 84.7437 309.323 84.0237C308.883 83.2837 308.663 82.4737 308.663 81.5937ZM319.133 82.7937C319.353 82.5137 319.523 82.2437 319.643 81.9837C319.763 81.7237 319.823 81.4937 319.823 81.2937V79.0137C319.143 78.7537 318.433 78.5537 317.693 78.4137C316.973 78.2737 316.243 78.2037 315.503 78.2037C314.043 78.2037 312.863 78.4937 311.963 79.0737C311.063 79.6537 310.613 80.4437 310.613 81.4437C310.613 82.0237 310.763 82.5737 311.063 83.0937C311.363 83.5937 311.803 84.0137 312.383 84.3537C312.963 84.6737 313.643 84.8337 314.423 84.8337C315.403 84.8337 316.313 84.6437 317.153 84.2637C318.013 83.8837 318.673 83.3937 319.133 82.7937ZM339.411 86.0938H337.371V77.3637C337.371 75.5237 337.101 74.1837 336.561 73.3437C336.021 72.4837 335.171 72.0537 334.011 72.0537C333.211 72.0537 332.421 72.2537 331.641 72.6537C330.861 73.0337 330.171 73.5637 329.571 74.2437C328.991 74.9037 328.571 75.6637 328.311 76.5237V86.0938H326.271V70.4637H328.131V74.0037C328.551 73.2437 329.101 72.5837 329.781 72.0237C330.461 71.4437 331.231 70.9937 332.091 70.6738C332.951 70.3537 333.841 70.1937 334.761 70.1937C335.621 70.1937 336.351 70.3537 336.951 70.6738C337.551 70.9937 338.031 71.4537 338.391 72.0537C338.751 72.6337 339.011 73.3437 339.171 74.1837C339.331 75.0037 339.411 75.9237 339.411 76.9437V86.0938ZM359.057 86.3938C357.837 86.3938 356.707 86.0837 355.667 85.4637C354.627 84.8237 353.817 84.0237 353.237 83.0637V86.0938H351.407V64.1937H353.447V73.7337C354.147 72.6737 354.987 71.8237 355.967 71.1837C356.947 70.5237 358.087 70.1937 359.387 70.1937C360.487 70.1937 361.467 70.4237 362.327 70.8837C363.207 71.3437 363.957 71.9637 364.577 72.7437C365.197 73.5037 365.667 74.3737 365.987 75.3537C366.307 76.3137 366.467 77.3037 366.467 78.3237C366.467 79.4237 366.277 80.4537 365.897 81.4137C365.537 82.3737 365.017 83.2337 364.337 83.9937C363.657 84.7338 362.867 85.3237 361.967 85.7637C361.087 86.1838 360.117 86.3938 359.057 86.3938ZM358.577 84.5937C359.417 84.5937 360.197 84.4237 360.917 84.0837C361.637 83.7437 362.257 83.2737 362.777 82.6737C363.297 82.0737 363.697 81.4037 363.977 80.6637C364.257 79.9037 364.397 79.1237 364.397 78.3237C364.397 77.2237 364.157 76.1937 363.677 75.2337C363.217 74.2537 362.567 73.4737 361.727 72.8937C360.907 72.2937 359.937 71.9937 358.817 71.9937C358.017 71.9937 357.267 72.1737 356.567 72.5337C355.887 72.8937 355.277 73.3737 354.737 73.9737C354.217 74.5537 353.787 75.1937 353.447 75.8937V80.7537C353.527 81.2937 353.737 81.8037 354.077 82.2837C354.417 82.7437 354.837 83.1437 355.337 83.4837C355.857 83.8237 356.397 84.0937 356.957 84.2937C357.517 84.4937 358.057 84.5937 358.577 84.5937ZM376.673 86.3938C375.553 86.3938 374.513 86.1838 373.553 85.7637C372.593 85.3237 371.763 84.7338 371.063 83.9937C370.363 83.2337 369.813 82.3637 369.413 81.3837C369.033 80.4037 368.843 79.3537 368.843 78.2337C368.843 76.7737 369.173 75.4337 369.833 74.2137C370.513 72.9937 371.443 72.0237 372.623 71.3037C373.803 70.5637 375.143 70.1937 376.643 70.1937C378.183 70.1937 379.523 70.5637 380.663 71.3037C381.823 72.0437 382.733 73.0237 383.393 74.2437C384.053 75.4437 384.383 76.7637 384.383 78.2037C384.383 78.3637 384.383 78.5237 384.383 78.6837C384.383 78.8237 384.373 78.9337 384.353 79.0137H370.973C371.073 80.1337 371.383 81.1337 371.903 82.0137C372.443 82.8737 373.133 83.5637 373.973 84.0837C374.833 84.5837 375.763 84.8337 376.763 84.8337C377.783 84.8337 378.743 84.5737 379.643 84.0537C380.563 83.5337 381.203 82.8537 381.563 82.0137L383.333 82.4937C383.013 83.2337 382.523 83.9037 381.863 84.5037C381.203 85.1037 380.423 85.5737 379.523 85.9137C378.643 86.2338 377.693 86.3938 376.673 86.3938ZM370.913 77.5437H382.463C382.383 76.4037 382.073 75.4037 381.533 74.5437C381.013 73.6837 380.323 73.0137 379.463 72.5337C378.623 72.0337 377.693 71.7837 376.673 71.7837C375.653 71.7837 374.723 72.0337 373.883 72.5337C373.043 73.0137 372.353 73.6937 371.813 74.5737C371.293 75.4337 370.993 76.4237 370.913 77.5437ZM395.33 72.2637C393.97 72.3037 392.77 72.6837 391.73 73.4037C390.71 74.1237 389.99 75.1137 389.57 76.3737V86.0938H387.53V70.4637H389.45V74.2137C389.99 73.1137 390.7 72.2237 391.58 71.5437C392.48 70.8637 393.43 70.4837 394.43 70.4037C394.63 70.3837 394.8 70.3737 394.94 70.3737C395.1 70.3737 395.23 70.3837 395.33 70.4037V72.2637ZM409.208 86.0938L403.418 78.0837L400.088 81.2037V86.0938H398.048V64.1937H400.088V79.0137L408.938 70.4937H411.188L404.798 76.8837L411.428 86.0938H409.208ZM412.637 81.5937C412.637 80.6137 412.917 79.7737 413.477 79.0737C414.037 78.3537 414.807 77.8037 415.787 77.4237C416.787 77.0237 417.937 76.8237 419.237 76.8237C419.997 76.8237 420.787 76.8837 421.607 77.0037C422.427 77.1237 423.157 77.3037 423.797 77.5437V76.2237C423.797 74.9037 423.407 73.8537 422.627 73.0737C421.847 72.2937 420.767 71.9037 419.387 71.9037C418.547 71.9037 417.717 72.0637 416.897 72.3837C416.097 72.6837 415.257 73.1337 414.377 73.7337L413.597 72.2937C414.617 71.5937 415.617 71.0737 416.597 70.7337C417.577 70.3737 418.577 70.1937 419.597 70.1937C421.517 70.1937 423.037 70.7437 424.157 71.8437C425.277 72.9437 425.837 74.4637 425.837 76.4037V83.6337C425.837 83.9137 425.897 84.1237 426.017 84.2637C426.137 84.3837 426.327 84.4537 426.587 84.4737V86.0938C426.367 86.1138 426.177 86.1338 426.017 86.1538C425.857 86.1738 425.737 86.1738 425.657 86.1538C425.157 86.1338 424.777 85.9737 424.517 85.6737C424.257 85.3737 424.117 85.0537 424.097 84.7137L424.067 83.5737C423.367 84.4737 422.457 85.1737 421.337 85.6737C420.217 86.1538 419.077 86.3938 417.917 86.3938C416.917 86.3938 416.007 86.1838 415.187 85.7637C414.387 85.3237 413.757 84.7437 413.297 84.0237C412.857 83.2837 412.637 82.4737 412.637 81.5937ZM423.107 82.7937C423.327 82.5137 423.497 82.2437 423.617 81.9837C423.737 81.7237 423.797 81.4937 423.797 81.2937V79.0137C423.117 78.7537 422.407 78.5537 421.667 78.4137C420.947 78.2737 420.217 78.2037 419.477 78.2037C418.017 78.2037 416.837 78.4937 415.937 79.0737C415.037 79.6537 414.587 80.4437 414.587 81.4437C414.587 82.0237 414.737 82.5737 415.037 83.0937C415.337 83.5937 415.777 84.0137 416.357 84.3537C416.937 84.6737 417.617 84.8337 418.397 84.8337C419.377 84.8337 420.287 84.6437 421.127 84.2637C421.987 83.8837 422.647 83.3937 423.107 82.7937ZM438.045 72.2637C436.685 72.3037 435.485 72.6837 434.445 73.4037C433.425 74.1237 432.705 75.1137 432.285 76.3737V86.0938H430.245V70.4637H432.165V74.2137C432.705 73.1137 433.415 72.2237 434.295 71.5437C435.195 70.8637 436.145 70.4837 437.145 70.4037C437.345 70.3837 437.515 70.3737 437.655 70.3737C437.815 70.3737 437.945 70.3837 438.045 70.4037V72.2637ZM439.444 81.5937C439.444 80.6137 439.724 79.7737 440.284 79.0737C440.844 78.3537 441.614 77.8037 442.594 77.4237C443.594 77.0237 444.744 76.8237 446.044 76.8237C446.804 76.8237 447.594 76.8837 448.414 77.0037C449.234 77.1237 449.964 77.3037 450.604 77.5437V76.2237C450.604 74.9037 450.214 73.8537 449.434 73.0737C448.654 72.2937 447.574 71.9037 446.194 71.9037C445.354 71.9037 444.524 72.0637 443.704 72.3837C442.904 72.6837 442.064 73.1337 441.184 73.7337L440.404 72.2937C441.424 71.5937 442.424 71.0737 443.404 70.7337C444.384 70.3737 445.384 70.1937 446.404 70.1937C448.324 70.1937 449.844 70.7437 450.964 71.8437C452.084 72.9437 452.644 74.4637 452.644 76.4037V83.6337C452.644 83.9137 452.704 84.1237 452.824 84.2637C452.944 84.3837 453.134 84.4537 453.394 84.4737V86.0938C453.174 86.1138 452.984 86.1338 452.824 86.1538C452.664 86.1738 452.544 86.1738 452.464 86.1538C451.964 86.1338 451.584 85.9737 451.324 85.6737C451.064 85.3737 450.924 85.0537 450.904 84.7137L450.874 83.5737C450.174 84.4737 449.264 85.1737 448.144 85.6737C447.024 86.1538 445.884 86.3938 444.724 86.3938C443.724 86.3938 442.814 86.1838 441.994 85.7637C441.194 85.3237 440.564 84.7437 440.104 84.0237C439.664 83.2837 439.444 82.4737 439.444 81.5937ZM449.914 82.7937C450.134 82.5137 450.304 82.2437 450.424 81.9837C450.544 81.7237 450.604 81.4937 450.604 81.2937V79.0137C449.924 78.7537 449.214 78.5537 448.474 78.4137C447.754 78.2737 447.024 78.2037 446.284 78.2037C444.824 78.2037 443.644 78.4937 442.744 79.0737C441.844 79.6537 441.394 80.4437 441.394 81.4437C441.394 82.0237 441.544 82.5737 441.844 83.0937C442.144 83.5937 442.584 84.0137 443.164 84.3537C443.744 84.6737 444.424 84.8337 445.204 84.8337C446.184 84.8337 447.094 84.6437 447.934 84.2637C448.794 83.8837 449.454 83.3937 449.914 82.7937ZM468.212 86.0938L462.422 78.0837L459.092 81.2037V86.0938H457.052V64.1937H459.092V79.0137L467.942 70.4937H470.192L463.802 76.8837L470.432 86.0938H468.212ZM480.46 85.3437C480.3 85.4037 480.05 85.5137 479.71 85.6737C479.37 85.8337 478.96 85.9737 478.48 86.0938C478 86.2138 477.48 86.2738 476.92 86.2738C476.34 86.2738 475.79 86.1637 475.27 85.9437C474.77 85.7237 474.37 85.3937 474.07 84.9537C473.77 84.4937 473.62 83.9337 473.62 83.2737V72.0837H471.46V70.4637H473.62V65.1837H475.66V70.4637H479.26V72.0837H475.66V82.7037C475.7 83.2637 475.9 83.6837 476.26 83.9637C476.64 84.2437 477.07 84.3837 477.55 84.3837C478.11 84.3837 478.62 84.2937 479.08 84.1138C479.54 83.9137 479.82 83.7737 479.92 83.6937L480.46 85.3437ZM489.495 86.3938C488.375 86.3938 487.335 86.1838 486.375 85.7637C485.415 85.3237 484.585 84.7338 483.885 83.9937C483.185 83.2337 482.635 82.3637 482.235 81.3837C481.855 80.4037 481.665 79.3537 481.665 78.2337C481.665 76.7737 481.995 75.4337 482.655 74.2137C483.335 72.9937 484.265 72.0237 485.445 71.3037C486.625 70.5637 487.965 70.1937 489.465 70.1937C491.005 70.1937 492.345 70.5637 493.485 71.3037C494.645 72.0437 495.555 73.0237 496.215 74.2437C496.875 75.4437 497.205 76.7637 497.205 78.2037C497.205 78.3637 497.205 78.5237 497.205 78.6837C497.205 78.8237 497.195 78.9337 497.175 79.0137H483.795C483.895 80.1337 484.205 81.1337 484.725 82.0137C485.265 82.8737 485.955 83.5637 486.795 84.0837C487.655 84.5837 488.585 84.8337 489.585 84.8337C490.605 84.8337 491.565 84.5737 492.465 84.0537C493.385 83.5337 494.025 82.8537 494.385 82.0137L496.155 82.4937C495.835 83.2337 495.345 83.9037 494.685 84.5037C494.025 85.1037 493.245 85.5737 492.345 85.9137C491.465 86.2338 490.515 86.3938 489.495 86.3938ZM483.735 77.5437H495.285C495.205 76.4037 494.895 75.4037 494.355 74.5437C493.835 73.6837 493.145 73.0137 492.285 72.5337C491.445 72.0337 490.515 71.7837 489.495 71.7837C488.475 71.7837 487.545 72.0337 486.705 72.5337C485.865 73.0137 485.175 73.6937 484.635 74.5737C484.115 75.4337 483.815 76.4237 483.735 77.5437ZM508.153 72.2637C506.793 72.3037 505.593 72.6837 504.553 73.4037C503.533 74.1237 502.813 75.1137 502.393 76.3737V86.0938H500.353V70.4637H502.273V74.2137C502.813 73.1137 503.523 72.2237 504.403 71.5437C505.303 70.8637 506.253 70.4837 507.253 70.4037C507.453 70.3837 507.623 70.3737 507.763 70.3737C507.923 70.3737 508.053 70.3837 508.153 70.4037V72.2637ZM72.6217 127.394C71.4017 127.394 70.2717 127.084 69.2317 126.464C68.1917 125.824 67.3817 125.024 66.8017 124.064V127.094H64.9717V105.194H67.0117V114.734C67.7117 113.674 68.5517 112.824 69.5317 112.184C70.5117 111.524 71.6517 111.194 72.9517 111.194C74.0517 111.194 75.0317 111.424 75.8917 111.884C76.7717 112.344 77.5217 112.964 78.1417 113.744C78.7617 114.504 79.2317 115.374 79.5517 116.354C79.8717 117.314 80.0317 118.304 80.0317 119.324C80.0317 120.424 79.8417 121.454 79.4617 122.414C79.1017 123.374 78.5817 124.234 77.9017 124.994C77.2217 125.734 76.4317 126.324 75.5317 126.764C74.6517 127.184 73.6817 127.394 72.6217 127.394ZM72.1417 125.594C72.9817 125.594 73.7617 125.424 74.4817 125.084C75.2017 124.744 75.8217 124.274 76.3417 123.674C76.8617 123.074 77.2617 122.404 77.5417 121.664C77.8217 120.904 77.9617 120.124 77.9617 119.324C77.9617 118.224 77.7217 117.194 77.2417 116.234C76.7817 115.254 76.1317 114.474 75.2917 113.894C74.4717 113.294 73.5017 112.994 72.3817 112.994C71.5817 112.994 70.8317 113.174 70.1317 113.534C69.4517 113.894 68.8417 114.374 68.3017 114.974C67.7817 115.554 67.3517 116.194 67.0117 116.894V121.754C67.0917 122.294 67.3017 122.804 67.6417 123.284C67.9817 123.744 68.4017 124.144 68.9017 124.484C69.4217 124.824 69.9617 125.094 70.5217 125.294C71.0817 125.494 71.6217 125.594 72.1417 125.594ZM90.2373 127.394C89.1173 127.394 88.0773 127.184 87.1173 126.764C86.1573 126.324 85.3273 125.734 84.6273 124.994C83.9273 124.234 83.3773 123.364 82.9773 122.384C82.5973 121.404 82.4073 120.354 82.4073 119.234C82.4073 117.774 82.7373 116.434 83.3973 115.214C84.0773 113.994 85.0073 113.024 86.1873 112.304C87.3673 111.564 88.7073 111.194 90.2073 111.194C91.7473 111.194 93.0873 111.564 94.2273 112.304C95.3873 113.044 96.2973 114.024 96.9573 115.244C97.6173 116.444 97.9473 117.764 97.9473 119.204C97.9473 119.364 97.9473 119.524 97.9473 119.684C97.9473 119.824 97.9373 119.934 97.9173 120.014H84.5373C84.6373 121.134 84.9473 122.134 85.4673 123.014C86.0073 123.874 86.6973 124.564 87.5373 125.084C88.3973 125.584 89.3273 125.834 90.3273 125.834C91.3473 125.834 92.3073 125.574 93.2073 125.054C94.1273 124.534 94.7673 123.854 95.1273 123.014L96.8973 123.494C96.5773 124.234 96.0873 124.904 95.4273 125.504C94.7673 126.104 93.9873 126.574 93.0873 126.914C92.2073 127.234 91.2573 127.394 90.2373 127.394ZM84.4773 118.544H96.0273C95.9473 117.404 95.6373 116.404 95.0973 115.544C94.5773 114.684 93.8873 114.014 93.0273 113.534C92.1873 113.034 91.2573 112.784 90.2373 112.784C89.2173 112.784 88.2873 113.034 87.4473 113.534C86.6073 114.014 85.9173 114.694 85.3773 115.574C84.8573 116.434 84.5573 117.424 84.4773 118.544ZM108.895 113.264C107.535 113.304 106.335 113.684 105.295 114.404C104.275 115.124 103.555 116.114 103.135 117.374V127.094H101.095V111.464H103.015V115.214C103.555 114.114 104.265 113.224 105.145 112.544C106.045 111.864 106.995 111.484 107.995 111.404C108.195 111.384 108.365 111.374 108.505 111.374C108.665 111.374 108.795 111.384 108.895 111.404V113.264ZM111.702 105.194H113.742V123.554C113.742 124.334 113.882 124.844 114.162 125.084C114.442 125.324 114.782 125.444 115.182 125.444C115.542 125.444 115.902 125.404 116.262 125.324C116.622 125.244 116.932 125.164 117.192 125.084L117.552 126.734C117.172 126.894 116.702 127.024 116.142 127.124C115.602 127.224 115.132 127.274 114.732 127.274C113.812 127.274 113.072 127.004 112.512 126.464C111.972 125.924 111.702 125.184 111.702 124.244V105.194ZM118.526 122.594C118.526 121.614 118.806 120.774 119.366 120.074C119.926 119.354 120.696 118.804 121.676 118.424C122.676 118.024 123.826 117.824 125.126 117.824C125.886 117.824 126.676 117.884 127.496 118.004C128.316 118.124 129.046 118.304 129.686 118.544V117.224C129.686 115.904 129.296 114.854 128.516 114.074C127.736 113.294 126.656 112.904 125.276 112.904C124.436 112.904 123.606 113.064 122.786 113.384C121.986 113.684 121.146 114.134 120.266 114.734L119.486 113.294C120.506 112.594 121.506 112.074 122.486 111.734C123.466 111.374 124.466 111.194 125.486 111.194C127.406 111.194 128.926 111.744 130.046 112.844C131.166 113.944 131.726 115.464 131.726 117.404V124.634C131.726 124.914 131.786 125.124 131.906 125.264C132.026 125.384 132.216 125.454 132.476 125.474V127.094C132.256 127.114 132.066 127.134 131.906 127.154C131.746 127.174 131.626 127.174 131.546 127.154C131.046 127.134 130.666 126.974 130.406 126.674C130.146 126.374 130.006 126.054 129.986 125.714L129.956 124.574C129.256 125.474 128.346 126.174 127.226 126.674C126.106 127.154 124.966 127.394 123.806 127.394C122.806 127.394 121.896 127.184 121.076 126.764C120.276 126.324 119.646 125.744 119.186 125.024C118.746 124.284 118.526 123.474 118.526 122.594ZM128.996 123.794C129.216 123.514 129.386 123.244 129.506 122.984C129.626 122.724 129.686 122.494 129.686 122.294V120.014C129.006 119.754 128.296 119.554 127.556 119.414C126.836 119.274 126.106 119.204 125.366 119.204C123.906 119.204 122.726 119.494 121.826 120.074C120.926 120.654 120.476 121.444 120.476 122.444C120.476 123.024 120.626 123.574 120.926 124.094C121.226 124.594 121.666 125.014 122.246 125.354C122.826 125.674 123.506 125.834 124.286 125.834C125.266 125.834 126.176 125.644 127.016 125.264C127.876 124.884 128.536 124.394 128.996 123.794ZM149.274 127.094H147.234V118.364C147.234 116.524 146.964 115.184 146.424 114.344C145.884 113.484 145.034 113.054 143.874 113.054C143.074 113.054 142.284 113.254 141.504 113.654C140.724 114.034 140.034 114.564 139.434 115.244C138.854 115.904 138.434 116.664 138.174 117.524V127.094H136.134V111.464H137.994V115.004C138.414 114.244 138.964 113.584 139.644 113.024C140.324 112.444 141.094 111.994 141.954 111.674C142.814 111.354 143.704 111.194 144.624 111.194C145.484 111.194 146.214 111.354 146.814 111.674C147.414 111.994 147.894 112.454 148.254 113.054C148.614 113.634 148.874 114.344 149.034 115.184C149.194 116.004 149.274 116.924 149.274 117.944V127.094ZM152.574 119.324C152.574 117.844 152.874 116.494 153.474 115.274C154.094 114.034 154.944 113.044 156.024 112.304C157.104 111.564 158.334 111.194 159.714 111.194C161.014 111.194 162.174 111.544 163.194 112.244C164.234 112.924 165.044 113.754 165.624 114.734V105.194H167.664V124.634C167.664 124.914 167.724 125.124 167.844 125.264C167.964 125.384 168.144 125.454 168.384 125.474V127.094C167.984 127.154 167.674 127.174 167.454 127.154C167.034 127.134 166.664 126.964 166.344 126.644C166.024 126.324 165.864 125.974 165.864 125.594V124.064C165.244 125.084 164.404 125.894 163.344 126.494C162.284 127.094 161.184 127.394 160.044 127.394C158.964 127.394 157.964 127.174 157.044 126.734C156.144 126.294 155.354 125.694 154.674 124.934C154.014 124.174 153.494 123.314 153.114 122.354C152.754 121.374 152.574 120.364 152.574 119.324ZM165.624 121.724V116.894C165.364 116.174 164.944 115.524 164.364 114.944C163.784 114.344 163.124 113.874 162.384 113.534C161.664 113.174 160.944 112.994 160.224 112.994C159.384 112.994 158.624 113.174 157.944 113.534C157.264 113.874 156.674 114.344 156.174 114.944C155.694 115.544 155.324 116.224 155.064 116.984C154.804 117.744 154.674 118.524 154.674 119.324C154.674 120.164 154.814 120.964 155.094 121.724C155.394 122.484 155.814 123.164 156.354 123.764C156.894 124.344 157.514 124.794 158.214 125.114C158.914 125.434 159.674 125.594 160.494 125.594C161.014 125.594 161.554 125.494 162.114 125.294C162.674 125.094 163.204 124.824 163.704 124.484C164.224 124.124 164.654 123.704 164.994 123.224C165.334 122.744 165.544 122.244 165.624 121.724ZM171.026 122.594C171.026 121.614 171.306 120.774 171.866 120.074C172.426 119.354 173.196 118.804 174.176 118.424C175.176 118.024 176.326 117.824 177.626 117.824C178.386 117.824 179.176 117.884 179.996 118.004C180.816 118.124 181.546 118.304 182.186 118.544V117.224C182.186 115.904 181.796 114.854 181.016 114.074C180.236 113.294 179.156 112.904 177.776 112.904C176.936 112.904 176.106 113.064 175.286 113.384C174.486 113.684 173.646 114.134 172.766 114.734L171.986 113.294C173.006 112.594 174.006 112.074 174.986 111.734C175.966 111.374 176.966 111.194 177.986 111.194C179.906 111.194 181.426 111.744 182.546 112.844C183.666 113.944 184.226 115.464 184.226 117.404V124.634C184.226 124.914 184.286 125.124 184.406 125.264C184.526 125.384 184.716 125.454 184.976 125.474V127.094C184.756 127.114 184.566 127.134 184.406 127.154C184.246 127.174 184.126 127.174 184.046 127.154C183.546 127.134 183.166 126.974 182.906 126.674C182.646 126.374 182.506 126.054 182.486 125.714L182.456 124.574C181.756 125.474 180.846 126.174 179.726 126.674C178.606 127.154 177.466 127.394 176.306 127.394C175.306 127.394 174.396 127.184 173.576 126.764C172.776 126.324 172.146 125.744 171.686 125.024C171.246 124.284 171.026 123.474 171.026 122.594ZM181.496 123.794C181.716 123.514 181.886 123.244 182.006 122.984C182.126 122.724 182.186 122.494 182.186 122.294V120.014C181.506 119.754 180.796 119.554 180.056 119.414C179.336 119.274 178.606 119.204 177.866 119.204C176.406 119.204 175.226 119.494 174.326 120.074C173.426 120.654 172.976 121.444 172.976 122.444C172.976 123.024 173.126 123.574 173.426 124.094C173.726 124.594 174.166 125.014 174.746 125.354C175.326 125.674 176.006 125.834 176.786 125.834C177.766 125.834 178.676 125.644 179.516 125.264C180.376 124.884 181.036 124.394 181.496 123.794ZM193.764 127.394C192.484 127.394 191.294 127.184 190.194 126.764C189.094 126.344 188.144 125.704 187.344 124.844L188.184 123.404C189.064 124.224 189.944 124.824 190.824 125.204C191.724 125.564 192.674 125.744 193.674 125.744C194.894 125.744 195.884 125.504 196.644 125.024C197.404 124.524 197.784 123.814 197.784 122.894C197.784 122.274 197.594 121.804 197.214 121.484C196.854 121.144 196.324 120.874 195.624 120.674C194.944 120.454 194.124 120.224 193.164 119.984C192.084 119.684 191.174 119.374 190.434 119.054C189.714 118.714 189.164 118.294 188.784 117.794C188.424 117.274 188.244 116.604 188.244 115.784C188.244 114.764 188.494 113.924 188.994 113.264C189.514 112.584 190.214 112.074 191.094 111.734C191.994 111.374 192.994 111.194 194.094 111.194C195.294 111.194 196.354 111.384 197.274 111.764C198.194 112.144 198.944 112.674 199.524 113.354L198.534 114.734C197.974 114.094 197.304 113.624 196.524 113.324C195.764 113.004 194.914 112.844 193.974 112.844C193.334 112.844 192.724 112.934 192.144 113.114C191.564 113.274 191.084 113.554 190.704 113.954C190.344 114.334 190.164 114.864 190.164 115.544C190.164 116.104 190.304 116.544 190.584 116.864C190.864 117.164 191.284 117.424 191.844 117.644C192.404 117.844 193.094 118.064 193.914 118.304C195.094 118.624 196.124 118.954 197.004 119.294C197.884 119.614 198.564 120.034 199.044 120.554C199.524 121.074 199.764 121.804 199.764 122.744C199.764 124.204 199.214 125.344 198.114 126.164C197.014 126.984 195.564 127.394 193.764 127.394ZM214.296 127.094L208.506 119.084L205.176 122.204V127.094H203.136V105.194H205.176V120.014L214.026 111.494H216.276L209.886 117.884L216.516 127.094H214.296ZM217.725 122.594C217.725 121.614 218.005 120.774 218.565 120.074C219.125 119.354 219.895 118.804 220.875 118.424C221.875 118.024 223.025 117.824 224.325 117.824C225.085 117.824 225.875 117.884 226.695 118.004C227.515 118.124 228.245 118.304 228.885 118.544V117.224C228.885 115.904 228.495 114.854 227.715 114.074C226.935 113.294 225.855 112.904 224.475 112.904C223.635 112.904 222.805 113.064 221.985 113.384C221.185 113.684 220.345 114.134 219.465 114.734L218.685 113.294C219.705 112.594 220.705 112.074 221.685 111.734C222.665 111.374 223.665 111.194 224.685 111.194C226.605 111.194 228.125 111.744 229.245 112.844C230.365 113.944 230.925 115.464 230.925 117.404V124.634C230.925 124.914 230.985 125.124 231.105 125.264C231.225 125.384 231.415 125.454 231.675 125.474V127.094C231.455 127.114 231.265 127.134 231.105 127.154C230.945 127.174 230.825 127.174 230.745 127.154C230.245 127.134 229.865 126.974 229.605 126.674C229.345 126.374 229.205 126.054 229.185 125.714L229.155 124.574C228.455 125.474 227.545 126.174 226.425 126.674C225.305 127.154 224.165 127.394 223.005 127.394C222.005 127.394 221.095 127.184 220.275 126.764C219.475 126.324 218.845 125.744 218.385 125.024C217.945 124.284 217.725 123.474 217.725 122.594ZM228.195 123.794C228.415 123.514 228.585 123.244 228.705 122.984C228.825 122.724 228.885 122.494 228.885 122.294V120.014C228.205 119.754 227.495 119.554 226.755 119.414C226.035 119.274 225.305 119.204 224.565 119.204C223.105 119.204 221.925 119.494 221.025 120.074C220.125 120.654 219.675 121.444 219.675 122.444C219.675 123.024 219.825 123.574 220.125 124.094C220.425 124.594 220.865 125.014 221.445 125.354C222.025 125.674 222.705 125.834 223.485 125.834C224.465 125.834 225.375 125.644 226.215 125.264C227.075 124.884 227.735 124.394 228.195 123.794ZM248.473 127.094H246.433V118.364C246.433 116.524 246.163 115.184 245.623 114.344C245.083 113.484 244.233 113.054 243.073 113.054C242.273 113.054 241.483 113.254 240.703 113.654C239.923 114.034 239.233 114.564 238.633 115.244C238.053 115.904 237.633 116.664 237.373 117.524V127.094H235.333V111.464H237.193V115.004C237.613 114.244 238.163 113.584 238.843 113.024C239.523 112.444 240.293 111.994 241.153 111.674C242.013 111.354 242.903 111.194 243.823 111.194C244.683 111.194 245.413 111.354 246.013 111.674C246.613 111.994 247.093 112.454 247.453 113.054C247.813 113.634 248.073 114.344 248.233 115.184C248.393 116.004 248.473 116.924 248.473 117.944V127.094ZM266.74 127.304C265.68 127.304 264.7 127.084 263.8 126.644C262.9 126.204 262.12 125.614 261.46 124.874C260.82 124.114 260.32 123.254 259.96 122.294C259.6 121.334 259.42 120.344 259.42 119.324C259.42 118.224 259.59 117.194 259.93 116.234C260.29 115.254 260.79 114.384 261.43 113.624C262.09 112.864 262.86 112.274 263.74 111.854C264.62 111.414 265.6 111.194 266.68 111.194C268.02 111.194 269.18 111.534 270.16 112.214C271.16 112.894 272 113.734 272.68 114.734V111.464H274.51V127.154C274.51 128.594 274.16 129.804 273.46 130.784C272.78 131.784 271.85 132.534 270.67 133.034C269.51 133.534 268.24 133.784 266.86 133.784C265.08 133.784 263.64 133.464 262.54 132.824C261.44 132.184 260.54 131.324 259.84 130.244L261.1 129.254C261.72 130.234 262.54 130.964 263.56 131.444C264.6 131.924 265.7 132.164 266.86 132.164C267.88 132.164 268.81 131.974 269.65 131.594C270.51 131.234 271.19 130.684 271.69 129.944C272.21 129.204 272.47 128.274 272.47 127.154V124.064C271.87 125.044 271.05 125.834 270.01 126.434C268.97 127.014 267.88 127.304 266.74 127.304ZM267.31 125.594C267.93 125.594 268.52 125.484 269.08 125.264C269.66 125.044 270.19 124.754 270.67 124.394C271.15 124.014 271.55 123.594 271.87 123.134C272.19 122.674 272.39 122.204 272.47 121.724V116.894C272.17 116.134 271.74 115.464 271.18 114.884C270.62 114.284 269.98 113.824 269.26 113.504C268.56 113.164 267.83 112.994 267.07 112.994C266.19 112.994 265.4 113.184 264.7 113.564C264.02 113.924 263.44 114.414 262.96 115.034C262.5 115.634 262.14 116.314 261.88 117.074C261.62 117.834 261.49 118.594 261.49 119.354C261.49 120.194 261.64 120.994 261.94 121.754C262.24 122.494 262.65 123.164 263.17 123.764C263.71 124.344 264.33 124.794 265.03 125.114C265.75 125.434 266.51 125.594 267.31 125.594ZM285.675 127.394C284.555 127.394 283.515 127.184 282.555 126.764C281.615 126.324 280.795 125.734 280.095 124.994C279.415 124.234 278.885 123.374 278.505 122.414C278.125 121.434 277.935 120.404 277.935 119.324C277.935 118.204 278.125 117.164 278.505 116.204C278.885 115.224 279.425 114.364 280.125 113.624C280.825 112.864 281.645 112.274 282.585 111.854C283.545 111.414 284.585 111.194 285.705 111.194C286.825 111.194 287.855 111.414 288.795 111.854C289.735 112.274 290.555 112.864 291.255 113.624C291.955 114.364 292.495 115.224 292.875 116.204C293.255 117.164 293.445 118.204 293.445 119.324C293.445 120.404 293.255 121.434 292.875 122.414C292.495 123.374 291.955 124.234 291.255 124.994C290.575 125.734 289.755 126.324 288.795 126.764C287.855 127.184 286.815 127.394 285.675 127.394ZM280.005 119.354C280.005 120.514 280.255 121.574 280.755 122.534C281.275 123.474 281.965 124.224 282.825 124.784C283.685 125.324 284.635 125.594 285.675 125.594C286.715 125.594 287.665 125.314 288.525 124.754C289.385 124.194 290.075 123.434 290.595 122.474C291.115 121.494 291.375 120.434 291.375 119.294C291.375 118.134 291.115 117.074 290.595 116.114C290.075 115.154 289.385 114.394 288.525 113.834C287.665 113.274 286.715 112.994 285.675 112.994C284.635 112.994 283.685 113.284 282.825 113.864C281.985 114.444 281.305 115.214 280.785 116.174C280.265 117.114 280.005 118.174 280.005 119.354ZM304.122 126.344C303.962 126.404 303.712 126.514 303.372 126.674C303.032 126.834 302.622 126.974 302.142 127.094C301.662 127.214 301.142 127.274 300.582 127.274C300.002 127.274 299.452 127.164 298.932 126.944C298.432 126.724 298.032 126.394 297.732 125.954C297.432 125.494 297.282 124.934 297.282 124.274V113.084H295.122V111.464H297.282V106.184H299.322V111.464H302.922V113.084H299.322V123.704C299.362 124.264 299.562 124.684 299.922 124.964C300.302 125.244 300.732 125.384 301.212 125.384C301.772 125.384 302.282 125.294 302.742 125.114C303.202 124.914 303.482 124.774 303.582 124.694L304.122 126.344ZM313.067 127.394C311.947 127.394 310.907 127.184 309.947 126.764C309.007 126.324 308.187 125.734 307.487 124.994C306.807 124.234 306.277 123.374 305.897 122.414C305.517 121.434 305.327 120.404 305.327 119.324C305.327 118.204 305.517 117.164 305.897 116.204C306.277 115.224 306.817 114.364 307.517 113.624C308.217 112.864 309.037 112.274 309.977 111.854C310.937 111.414 311.977 111.194 313.097 111.194C314.217 111.194 315.247 111.414 316.187 111.854C317.127 112.274 317.947 112.864 318.647 113.624C319.347 114.364 319.887 115.224 320.267 116.204C320.647 117.164 320.837 118.204 320.837 119.324C320.837 120.404 320.647 121.434 320.267 122.414C319.887 123.374 319.347 124.234 318.647 124.994C317.967 125.734 317.147 126.324 316.187 126.764C315.247 127.184 314.207 127.394 313.067 127.394ZM307.397 119.354C307.397 120.514 307.647 121.574 308.147 122.534C308.667 123.474 309.357 124.224 310.217 124.784C311.077 125.324 312.027 125.594 313.067 125.594C314.107 125.594 315.057 125.314 315.917 124.754C316.777 124.194 317.467 123.434 317.987 122.474C318.507 121.494 318.767 120.434 318.767 119.294C318.767 118.134 318.507 117.074 317.987 116.114C317.467 115.154 316.777 114.394 315.917 113.834C315.057 113.274 314.107 112.994 313.067 112.994C312.027 112.994 311.077 113.284 310.217 113.864C309.377 114.444 308.697 115.214 308.177 116.174C307.657 117.114 307.397 118.174 307.397 119.354ZM337.389 127.094H335.349V118.364C335.349 116.524 335.079 115.184 334.539 114.344C333.999 113.484 333.149 113.054 331.989 113.054C331.189 113.054 330.399 113.254 329.619 113.654C328.839 114.034 328.149 114.564 327.549 115.244C326.969 115.904 326.549 116.664 326.289 117.524V127.094H324.249V111.464H326.109V115.004C326.529 114.244 327.079 113.584 327.759 113.024C328.439 112.444 329.209 111.994 330.069 111.674C330.929 111.354 331.819 111.194 332.739 111.194C333.599 111.194 334.329 111.354 334.929 111.674C335.529 111.994 336.009 112.454 336.369 113.054C336.729 113.634 336.989 114.344 337.149 115.184C337.309 116.004 337.389 116.924 337.389 117.944V127.094ZM348.009 127.304C346.949 127.304 345.969 127.084 345.069 126.644C344.169 126.204 343.389 125.614 342.729 124.874C342.089 124.114 341.589 123.254 341.229 122.294C340.869 121.334 340.689 120.344 340.689 119.324C340.689 118.224 340.859 117.194 341.199 116.234C341.559 115.254 342.059 114.384 342.699 113.624C343.359 112.864 344.129 112.274 345.009 111.854C345.889 111.414 346.869 111.194 347.949 111.194C349.289 111.194 350.449 111.534 351.429 112.214C352.429 112.894 353.269 113.734 353.949 114.734V111.464H355.779V127.154C355.779 128.594 355.429 129.804 354.729 130.784C354.049 131.784 353.119 132.534 351.939 133.034C350.779 133.534 349.509 133.784 348.129 133.784C346.349 133.784 344.909 133.464 343.809 132.824C342.709 132.184 341.809 131.324 341.109 130.244L342.369 129.254C342.989 130.234 343.809 130.964 344.829 131.444C345.869 131.924 346.969 132.164 348.129 132.164C349.149 132.164 350.079 131.974 350.919 131.594C351.779 131.234 352.459 130.684 352.959 129.944C353.479 129.204 353.739 128.274 353.739 127.154V124.064C353.139 125.044 352.319 125.834 351.279 126.434C350.239 127.014 349.149 127.304 348.009 127.304ZM348.579 125.594C349.199 125.594 349.789 125.484 350.349 125.264C350.929 125.044 351.459 124.754 351.939 124.394C352.419 124.014 352.819 123.594 353.139 123.134C353.459 122.674 353.659 122.204 353.739 121.724V116.894C353.439 116.134 353.009 115.464 352.449 114.884C351.889 114.284 351.249 113.824 350.529 113.504C349.829 113.164 349.099 112.994 348.339 112.994C347.459 112.994 346.669 113.184 345.969 113.564C345.289 113.924 344.709 114.414 344.229 115.034C343.769 115.634 343.409 116.314 343.149 117.074C342.889 117.834 342.759 118.594 342.759 119.354C342.759 120.194 342.909 120.994 343.209 121.754C343.509 122.494 343.919 123.164 344.439 123.764C344.979 124.344 345.599 124.794 346.299 125.114C347.019 125.434 347.779 125.594 348.579 125.594ZM375.731 113.264C374.371 113.304 373.171 113.684 372.131 114.404C371.111 115.124 370.391 116.114 369.971 117.374V127.094H367.931V111.464H369.851V115.214C370.391 114.114 371.101 113.224 371.981 112.544C372.881 111.864 373.831 111.484 374.831 111.404C375.031 111.384 375.201 111.374 375.341 111.374C375.501 111.374 375.631 111.384 375.731 111.404V113.264ZM384.639 127.394C383.519 127.394 382.479 127.184 381.519 126.764C380.579 126.324 379.759 125.734 379.059 124.994C378.379 124.234 377.849 123.374 377.469 122.414C377.089 121.434 376.899 120.404 376.899 119.324C376.899 118.204 377.089 117.164 377.469 116.204C377.849 115.224 378.389 114.364 379.089 113.624C379.789 112.864 380.609 112.274 381.549 111.854C382.509 111.414 383.549 111.194 384.669 111.194C385.789 111.194 386.819 111.414 387.759 111.854C388.699 112.274 389.519 112.864 390.219 113.624C390.919 114.364 391.459 115.224 391.839 116.204C392.219 117.164 392.409 118.204 392.409 119.324C392.409 120.404 392.219 121.434 391.839 122.414C391.459 123.374 390.919 124.234 390.219 124.994C389.539 125.734 388.719 126.324 387.759 126.764C386.819 127.184 385.779 127.394 384.639 127.394ZM378.969 119.354C378.969 120.514 379.219 121.574 379.719 122.534C380.239 123.474 380.929 124.224 381.789 124.784C382.649 125.324 383.599 125.594 384.639 125.594C385.679 125.594 386.629 125.314 387.489 124.754C388.349 124.194 389.039 123.434 389.559 122.474C390.079 121.494 390.339 120.434 390.339 119.294C390.339 118.134 390.079 117.074 389.559 116.114C389.039 115.154 388.349 114.394 387.489 113.834C386.629 113.274 385.679 112.994 384.639 112.994C383.599 112.994 382.649 113.284 381.789 113.864C380.949 114.444 380.269 115.214 379.749 116.174C379.229 117.114 378.969 118.174 378.969 119.354ZM396.165 131.894C396.445 131.914 396.715 131.924 396.975 131.924C397.235 131.944 397.425 131.934 397.545 131.894C397.785 131.854 398.015 131.714 398.235 131.474C398.455 131.234 398.715 130.774 399.015 130.094C399.315 129.414 399.735 128.414 400.275 127.094L393.465 111.464H395.625L401.355 124.994L406.635 111.464H408.675L400.575 131.624C400.435 132.004 400.225 132.354 399.945 132.674C399.665 133.014 399.315 133.274 398.895 133.454C398.495 133.654 397.995 133.764 397.395 133.784C397.215 133.804 397.025 133.804 396.825 133.784C396.645 133.784 396.425 133.764 396.165 133.724V131.894ZM417.628 127.394C416.508 127.394 415.468 127.184 414.508 126.764C413.568 126.324 412.748 125.734 412.048 124.994C411.368 124.234 410.838 123.374 410.458 122.414C410.078 121.434 409.888 120.404 409.888 119.324C409.888 118.204 410.078 117.164 410.458 116.204C410.838 115.224 411.378 114.364 412.078 113.624C412.778 112.864 413.598 112.274 414.538 111.854C415.498 111.414 416.538 111.194 417.658 111.194C418.778 111.194 419.808 111.414 420.748 111.854C421.688 112.274 422.508 112.864 423.208 113.624C423.908 114.364 424.448 115.224 424.828 116.204C425.208 117.164 425.398 118.204 425.398 119.324C425.398 120.404 425.208 121.434 424.828 122.414C424.448 123.374 423.908 124.234 423.208 124.994C422.528 125.734 421.708 126.324 420.748 126.764C419.808 127.184 418.768 127.394 417.628 127.394ZM411.958 119.354C411.958 120.514 412.208 121.574 412.708 122.534C413.228 123.474 413.918 124.224 414.778 124.784C415.638 125.324 416.588 125.594 417.628 125.594C418.668 125.594 419.618 125.314 420.478 124.754C421.338 124.194 422.028 123.434 422.548 122.474C423.068 121.494 423.328 120.434 423.328 119.294C423.328 118.134 423.068 117.074 422.548 116.114C422.028 115.154 421.338 114.394 420.478 113.834C419.618 113.274 418.668 112.994 417.628 112.994C416.588 112.994 415.638 113.284 414.778 113.864C413.938 114.444 413.258 115.214 412.738 116.174C412.218 117.114 411.958 118.174 411.958 119.354ZM441.95 127.094H439.91V118.364C439.91 116.524 439.64 115.184 439.1 114.344C438.56 113.484 437.71 113.054 436.55 113.054C435.75 113.054 434.96 113.254 434.18 113.654C433.4 114.034 432.71 114.564 432.11 115.244C431.53 115.904 431.11 116.664 430.85 117.524V127.094H428.81V111.464H430.67V115.004C431.09 114.244 431.64 113.584 432.32 113.024C433 112.444 433.77 111.994 434.63 111.674C435.49 111.354 436.38 111.194 437.3 111.194C438.16 111.194 438.89 111.354 439.49 111.674C440.09 111.994 440.57 112.454 440.93 113.054C441.29 113.634 441.55 114.344 441.71 115.184C441.87 116.004 441.95 116.924 441.95 117.944V127.094ZM452.57 127.304C451.51 127.304 450.53 127.084 449.63 126.644C448.73 126.204 447.95 125.614 447.29 124.874C446.65 124.114 446.15 123.254 445.79 122.294C445.43 121.334 445.25 120.344 445.25 119.324C445.25 118.224 445.42 117.194 445.76 116.234C446.12 115.254 446.62 114.384 447.26 113.624C447.92 112.864 448.69 112.274 449.57 111.854C450.45 111.414 451.43 111.194 452.51 111.194C453.85 111.194 455.01 111.534 455.99 112.214C456.99 112.894 457.83 113.734 458.51 114.734V111.464H460.34V127.154C460.34 128.594 459.99 129.804 459.29 130.784C458.61 131.784 457.68 132.534 456.5 133.034C455.34 133.534 454.07 133.784 452.69 133.784C450.91 133.784 449.47 133.464 448.37 132.824C447.27 132.184 446.37 131.324 445.67 130.244L446.93 129.254C447.55 130.234 448.37 130.964 449.39 131.444C450.43 131.924 451.53 132.164 452.69 132.164C453.71 132.164 454.64 131.974 455.48 131.594C456.34 131.234 457.02 130.684 457.52 129.944C458.04 129.204 458.3 128.274 458.3 127.154V124.064C457.7 125.044 456.88 125.834 455.84 126.434C454.8 127.014 453.71 127.304 452.57 127.304ZM453.14 125.594C453.76 125.594 454.35 125.484 454.91 125.264C455.49 125.044 456.02 124.754 456.5 124.394C456.98 124.014 457.38 123.594 457.7 123.134C458.02 122.674 458.22 122.204 458.3 121.724V116.894C458 116.134 457.57 115.464 457.01 114.884C456.45 114.284 455.81 113.824 455.09 113.504C454.39 113.164 453.66 112.994 452.9 112.994C452.02 112.994 451.23 113.184 450.53 113.564C449.85 113.924 449.27 114.414 448.79 115.034C448.33 115.634 447.97 116.314 447.71 117.074C447.45 117.834 447.32 118.594 447.32 119.354C447.32 120.194 447.47 120.994 447.77 121.754C448.07 122.494 448.48 123.164 449 123.764C449.54 124.344 450.16 124.794 450.86 125.114C451.58 125.434 452.34 125.594 453.14 125.594ZM464.545 127.094V124.154H466.315V127.094H464.545Z" fill="black"/>
<defs>
<clipPath id="clip0">
<rect width="18" height="17.99" fill="white" transform="translate(34.4998 10.0957)"/>
</clipPath>
<clipPath id="clip1">
<rect width="18" height="17.9905" fill="white" transform="translate(488.5 120.038) rotate(-180)"/>
</clipPath>
</defs>
</svg>
