<svg width="20" height="21" viewBox="0 0 20 21" fill="none" xmlns="http://www.w3.org/2000/svg">
<path fill-rule="evenodd" clip-rule="evenodd" d="M1.28699 3.37254C1.5916 2.84878 3.26989 0.943765 4.46755 1.00127C4.82556 1.03208 5.14203 1.25699 5.39916 1.51784C5.98958 2.11656 7.67975 4.38101 7.77568 4.85753C8.00908 6.02621 6.66802 6.6999 7.07845 7.87783C8.12479 10.5366 9.9277 12.4088 12.4892 13.4943C13.6225 13.9205 14.2713 12.5279 15.3968 12.7713C15.8546 12.8709 18.0363 14.626 18.6129 15.2391C18.8631 15.5051 19.0807 15.8347 19.1104 16.2065C19.1549 17.5159 17.2066 19.2833 16.8268 19.5092C15.9308 20.1747 14.7618 20.1634 13.3367 19.4753C9.36002 17.7572 3.00485 11.2822 1.31963 6.99669C0.674813 5.52505 0.630309 4.30297 1.28699 3.37254Z" stroke="#200E32" stroke-width="1.5" stroke-linecap="round" stroke-linejoin="round"/>
</svg>
