<svg width="46" height="46" viewBox="0 0 46 46" fill="none" xmlns="http://www.w3.org/2000/svg">
<g clip-path="url(#clip0)">
<path d="M42.5687 7.96389e-08H2.8641C1.5045 0.000687707 0.402309 1.1143 0.402649 2.48749V42.5789C0.40333 43.9518 1.5062 45.0647 2.86614 45.0644H42.5687C43.929 45.0647 45.0319 43.9515 45.0322 42.5779C45.0322 42.5776 45.0322 42.5772 45.0322 42.5769V2.48543C45.0315 1.11258 43.9286 -0.000343734 42.5687 7.96389e-08Z" fill="#4267B2"/>
<path d="M31.2162 45.0642V27.637H37.0346L37.9063 20.8157H31.2162V16.4713C31.2162 14.5009 31.7579 13.1583 34.5561 13.1583H38.1024V7.07384C37.4854 6.99098 35.3686 6.80566 32.9054 6.80566C27.7626 6.80566 24.2428 9.97425 24.2428 15.7957V20.8157H18.4462V27.637H24.2428V45.0642H31.2162Z" fill="white"/>
</g>
<defs>
<clipPath id="clip0">
<rect width="44.6295" height="45.0644" fill="white" transform="translate(0.402649)"/>
</clipPath>
</defs>
</svg>
