<svg width="45" height="46" viewBox="0 0 45 46" fill="none" xmlns="http://www.w3.org/2000/svg">
<g clip-path="url(#clip0)">
<path d="M2.8797 3.06605C-0.627435 6.74443 0.0903572 10.6519 0.0903572 22.5226C0.0903572 32.3804 -1.613 42.2627 7.30175 44.5891C10.0855 45.312 34.7508 45.312 37.5308 44.5854C41.2425 43.6184 44.2624 40.5784 44.6753 35.2777C44.7329 34.5379 44.7329 10.5204 44.6734 9.76562C44.2346 4.11943 40.7925 0.865405 36.257 0.206338C35.2175 0.054246 35.0093 0.00918161 29.676 -0.000206798C10.7587 0.00918161 6.61185 -0.841409 2.8797 3.06605Z" fill="url(#paint0_linear)"/>
<path d="M22.4013 5.89399C15.6492 5.89399 9.23745 5.2875 6.7884 11.6341C5.7768 14.2553 5.9237 17.6595 5.9237 22.534C5.9237 26.8114 5.78795 30.8315 6.7884 33.4321C9.23187 39.7824 15.6957 39.174 22.3976 39.174C28.8633 39.174 35.5298 39.8538 38.0086 33.4321C39.0221 30.7845 38.8733 27.431 38.8733 22.534C38.8733 16.0335 39.2285 11.8369 36.1063 8.6861C32.945 5.49404 28.6699 5.89399 22.3939 5.89399H22.4013ZM20.9248 8.89265C35.0092 8.87011 36.8018 7.28911 35.8125 29.2524C35.461 37.0203 29.6034 36.1679 22.4032 36.1679C9.27464 36.1679 8.89715 35.7886 8.89715 22.5265C8.89715 9.11046 9.9385 8.90016 20.9248 8.88889V8.89265ZM31.197 11.6547C30.1055 11.6547 29.2203 12.5485 29.2203 13.6507C29.2203 14.7529 30.1055 15.6467 31.197 15.6467C32.2886 15.6467 33.1738 14.7529 33.1738 13.6507C33.1738 12.5485 32.2886 11.6547 31.197 11.6547ZM22.4013 13.9887C17.7282 13.9887 13.9403 17.8154 13.9403 22.534C13.9403 27.2526 17.7282 31.0775 22.4013 31.0775C27.0744 31.0775 30.8605 27.2526 30.8605 22.534C30.8605 17.8154 27.0744 13.9887 22.4013 13.9887ZM22.4013 16.9873C29.6629 16.9873 29.6722 28.0807 22.4013 28.0807C15.1416 28.0807 15.1304 16.9873 22.4013 16.9873Z" fill="white"/>
</g>
<defs>
<linearGradient id="paint0_linear" x1="2.96528" y1="42.1859" x2="44.7877" y2="6.3383" gradientUnits="userSpaceOnUse">
<stop stop-color="#FFDD55"/>
<stop offset="0.5" stop-color="#FF543E"/>
<stop offset="1" stop-color="#C837AB"/>
</linearGradient>
<clipPath id="clip0">
<rect width="44.6295" height="45.0644" fill="white" transform="translate(0.090332)"/>
</clipPath>
</defs>
</svg>
