<svg width="121" height="41" viewBox="0 0 121 41" fill="none" xmlns="http://www.w3.org/2000/svg">
<rect width="121" height="41" rx="20.5" fill="#FF0000"/>
<path d="M13.5063 26V16.06H15.4383V24.306H20.5063V26H13.5063ZM25.5474 26.14C24.7541 26.14 24.0681 25.9673 23.4894 25.622C22.9201 25.2767 22.4767 24.8193 22.1594 24.25C21.8421 23.6713 21.6834 23.046 21.6834 22.374C21.6834 21.6833 21.8374 21.0487 22.1454 20.47C22.4627 19.882 22.9107 19.4153 23.4894 19.07C24.0681 18.7153 24.7587 18.538 25.5614 18.538C26.3641 18.538 27.0501 18.7153 27.6194 19.07C28.1887 19.4153 28.6227 19.8773 28.9214 20.456C29.2294 21.0253 29.3834 21.6413 29.3834 22.304C29.3834 22.5467 29.3694 22.7567 29.3414 22.934H23.6714C23.7181 23.5033 23.9281 23.9513 24.3014 24.278C24.6841 24.6047 25.1227 24.768 25.6174 24.768C25.9907 24.768 26.3407 24.6793 26.6674 24.502C27.0034 24.3153 27.2321 24.0727 27.3534 23.774L28.9634 24.222C28.6927 24.782 28.2587 25.244 27.6614 25.608C27.0641 25.9627 26.3594 26.14 25.5474 26.14ZM23.6294 21.744H27.4654C27.4094 21.1933 27.1994 20.75 26.8354 20.414C26.4807 20.0687 26.0467 19.896 25.5334 19.896C25.0294 19.896 24.5954 20.0687 24.2314 20.414C23.8767 20.75 23.6761 21.1933 23.6294 21.744ZM35.3983 26.14C34.8383 26.14 34.3389 26.014 33.9003 25.762C33.4616 25.51 33.1163 25.1647 32.8643 24.726V26H31.2263V15.78H33.1023V19.952C33.3636 19.5133 33.7043 19.168 34.1243 18.916C34.5536 18.664 35.0529 18.538 35.6223 18.538C36.2569 18.538 36.8123 18.7153 37.2883 19.07C37.7736 19.4153 38.1516 19.8773 38.4223 20.456C38.6929 21.0347 38.8283 21.6693 38.8283 22.36C38.8283 23.0693 38.6789 23.7087 38.3803 24.278C38.0816 24.8473 37.6709 25.3 37.1483 25.636C36.6349 25.972 36.0516 26.14 35.3983 26.14ZM34.8803 24.544C35.2816 24.544 35.6316 24.446 35.9303 24.25C36.2383 24.054 36.4763 23.7927 36.6443 23.466C36.8216 23.13 36.9103 22.766 36.9103 22.374C36.9103 21.9727 36.8263 21.604 36.6583 21.268C36.4996 20.9227 36.2756 20.6473 35.9863 20.442C35.6969 20.2367 35.3656 20.134 34.9923 20.134C34.5816 20.134 34.2036 20.274 33.8583 20.554C33.5223 20.8247 33.2703 21.1607 33.1023 21.562V23.312C33.2236 23.676 33.4616 23.9747 33.8163 24.208C34.1709 24.432 34.5256 24.544 34.8803 24.544ZM40.7993 17.642V15.78H42.6753V17.642H40.7993ZM40.7993 26V18.664H42.6753V26H40.7993ZM51.8857 26H50.0097V21.884C50.0097 21.3147 49.8977 20.89 49.6737 20.61C49.459 20.33 49.1603 20.19 48.7777 20.19C48.5443 20.19 48.3017 20.2553 48.0497 20.386C47.807 20.5167 47.583 20.6987 47.3777 20.932C47.1817 21.156 47.037 21.4173 46.9437 21.716V26H45.0677V15.78H46.9437V20.022C47.2143 19.5553 47.583 19.1913 48.0497 18.93C48.5163 18.6687 49.025 18.538 49.5757 18.538C50.201 18.538 50.6817 18.678 51.0177 18.958C51.3537 19.238 51.5823 19.5973 51.7037 20.036C51.825 20.4747 51.8857 20.9367 51.8857 21.422V26ZM62.4522 26.14C61.8922 26.14 61.3928 26.014 60.9542 25.762C60.5155 25.51 60.1702 25.1647 59.9182 24.726V26H58.2802V15.78H60.1562V19.952C60.4175 19.5133 60.7582 19.168 61.1782 18.916C61.6075 18.664 62.1068 18.538 62.6762 18.538C63.3108 18.538 63.8662 18.7153 64.3422 19.07C64.8275 19.4153 65.2055 19.8773 65.4762 20.456C65.7468 21.0347 65.8822 21.6693 65.8822 22.36C65.8822 23.0693 65.7328 23.7087 65.4342 24.278C65.1355 24.8473 64.7248 25.3 64.2022 25.636C63.6888 25.972 63.1055 26.14 62.4522 26.14ZM61.9342 24.544C62.3355 24.544 62.6855 24.446 62.9842 24.25C63.2922 24.054 63.5302 23.7927 63.6982 23.466C63.8755 23.13 63.9642 22.766 63.9642 22.374C63.9642 21.9727 63.8802 21.604 63.7122 21.268C63.5535 20.9227 63.3295 20.6473 63.0402 20.442C62.7508 20.2367 62.4195 20.134 62.0462 20.134C61.6355 20.134 61.2575 20.274 60.9122 20.554C60.5762 20.8247 60.3242 21.1607 60.1562 21.562V23.312C60.2775 23.676 60.5155 23.9747 60.8702 24.208C61.2248 24.432 61.5795 24.544 61.9342 24.544ZM67.3492 23.83C67.3492 23.354 67.4799 22.9387 67.7412 22.584C68.0119 22.22 68.3852 21.94 68.8612 21.744C69.3372 21.548 69.8832 21.45 70.4992 21.45C70.8072 21.45 71.1199 21.478 71.4372 21.534C71.7546 21.5807 72.0299 21.6507 72.2632 21.744V21.352C72.2632 20.8853 72.1232 20.526 71.8432 20.274C71.5726 20.022 71.1666 19.896 70.6252 19.896C70.2239 19.896 69.8412 19.966 69.4772 20.106C69.1132 20.246 68.7306 20.4513 68.3292 20.722L67.7272 19.49C68.2126 19.1727 68.7072 18.9347 69.2112 18.776C69.7246 18.6173 70.2612 18.538 70.8212 18.538C71.8666 18.538 72.6786 18.7993 73.2572 19.322C73.8452 19.8447 74.1392 20.5913 74.1392 21.562V23.9C74.1392 24.1053 74.1719 24.25 74.2372 24.334C74.3026 24.4087 74.4192 24.4553 74.5872 24.474V26C74.4192 26.0373 74.2652 26.0607 74.1252 26.07C73.9946 26.0887 73.8826 26.098 73.7892 26.098C73.4159 26.098 73.1312 26.014 72.9352 25.846C72.7392 25.678 72.6226 25.4727 72.5852 25.23L72.5432 24.852C72.2166 25.272 71.8152 25.594 71.3392 25.818C70.8726 26.0327 70.3919 26.14 69.8972 26.14C69.4026 26.14 68.9639 26.042 68.5812 25.846C68.1986 25.6407 67.8952 25.3653 67.6712 25.02C67.4566 24.6653 67.3492 24.2687 67.3492 23.83ZM71.9132 24.208C72.1466 23.984 72.2632 23.7693 72.2632 23.564V22.822C71.7779 22.626 71.2879 22.528 70.7932 22.528C70.2986 22.528 69.8972 22.6353 69.5892 22.85C69.2812 23.0553 69.1272 23.3307 69.1272 23.676C69.1272 23.956 69.2392 24.208 69.4632 24.432C69.6872 24.656 70.0092 24.768 70.4292 24.768C70.7092 24.768 70.9799 24.7167 71.2412 24.614C71.5119 24.5113 71.7359 24.376 71.9132 24.208ZM83.4103 26H81.5343V21.884C81.5343 21.296 81.4316 20.8667 81.2263 20.596C81.0209 20.3253 80.7363 20.19 80.3723 20.19C80.1203 20.19 79.8636 20.2553 79.6023 20.386C79.3503 20.5167 79.1216 20.6987 78.9163 20.932C78.7109 21.156 78.5616 21.4173 78.4683 21.716V26H76.5923V18.664H78.2863V20.022C78.5569 19.5647 78.9489 19.2053 79.4623 18.944C79.9756 18.6733 80.5543 18.538 81.1983 18.538C81.6556 18.538 82.0289 18.622 82.3183 18.79C82.6076 18.9487 82.8316 19.168 82.9903 19.448C83.1489 19.7187 83.2563 20.0267 83.3123 20.372C83.3776 20.7173 83.4103 21.0673 83.4103 21.422V26ZM85.7725 27.428C86.1178 27.5213 86.3978 27.568 86.6125 27.568C86.8645 27.568 87.0651 27.4607 87.2145 27.246C87.3731 27.0407 87.5505 26.6253 87.7465 26L84.8485 18.664H86.7945L88.7685 24.082L90.5045 18.664H92.2965L89.2165 27.456C89.0485 27.96 88.7451 28.3753 88.3065 28.702C87.8771 29.038 87.3451 29.206 86.7105 29.206C86.4025 29.206 86.0898 29.1547 85.7725 29.052V27.428ZM93.334 23.83C93.334 23.354 93.4647 22.9387 93.726 22.584C93.9967 22.22 94.37 21.94 94.846 21.744C95.322 21.548 95.868 21.45 96.484 21.45C96.792 21.45 97.1047 21.478 97.422 21.534C97.7393 21.5807 98.0147 21.6507 98.248 21.744V21.352C98.248 20.8853 98.108 20.526 97.828 20.274C97.5573 20.022 97.1513 19.896 96.61 19.896C96.2087 19.896 95.826 19.966 95.462 20.106C95.098 20.246 94.7153 20.4513 94.314 20.722L93.712 19.49C94.1973 19.1727 94.692 18.9347 95.196 18.776C95.7093 18.6173 96.246 18.538 96.806 18.538C97.8513 18.538 98.6633 18.7993 99.242 19.322C99.83 19.8447 100.124 20.5913 100.124 21.562V23.9C100.124 24.1053 100.157 24.25 100.222 24.334C100.287 24.4087 100.404 24.4553 100.572 24.474V26C100.404 26.0373 100.25 26.0607 100.11 26.07C99.9793 26.0887 99.8673 26.098 99.774 26.098C99.4007 26.098 99.116 26.014 98.92 25.846C98.724 25.678 98.6073 25.4727 98.57 25.23L98.528 24.852C98.2013 25.272 97.8 25.594 97.324 25.818C96.8573 26.0327 96.3767 26.14 95.882 26.14C95.3873 26.14 94.9487 26.042 94.566 25.846C94.1833 25.6407 93.88 25.3653 93.656 25.02C93.4413 24.6653 93.334 24.2687 93.334 23.83ZM97.898 24.208C98.1313 23.984 98.248 23.7693 98.248 23.564V22.822C97.7627 22.626 97.2727 22.528 96.778 22.528C96.2833 22.528 95.882 22.6353 95.574 22.85C95.266 23.0553 95.112 23.3307 95.112 23.676C95.112 23.956 95.224 24.208 95.448 24.432C95.672 24.656 95.994 24.768 96.414 24.768C96.694 24.768 96.9647 24.7167 97.226 24.614C97.4967 24.5113 97.7207 24.376 97.898 24.208ZM107.589 26L105.447 22.836L104.453 23.816V26H102.577V15.78H104.453V21.968L107.407 18.678H109.395L106.665 21.786L109.591 26H107.589Z" fill="white"/>
</svg>
