<svg width="60" height="53" viewBox="0 0 60 53" fill="none" xmlns="http://www.w3.org/2000/svg">
<rect x="0.5" y="0.5" width="59" height="52" rx="15.5" fill="#FF0000" stroke="#FF0000"/>
<path d="M40.4789 31.8496H38.9205L38.3681 31.3182C40.3014 29.0749 41.4653 26.1624 41.4653 22.9942C41.4653 15.9296 35.7247 10.2031 28.6426 10.2031C21.5606 10.2031 15.8199 15.9296 15.8199 22.9942C15.8199 30.0588 21.5606 35.7853 28.6426 35.7853C31.8187 35.7853 34.7383 34.6242 36.9872 32.6957L37.5198 33.2467V34.8013L47.3834 44.6209L50.3228 41.6888L40.4789 31.8496ZM28.6426 31.8496C23.7305 31.8496 19.7654 27.8942 19.7654 22.9942C19.7654 18.0942 23.7305 14.1388 28.6426 14.1388C33.5547 14.1388 37.5198 18.0942 37.5198 22.9942C37.5198 27.8942 33.5547 31.8496 28.6426 31.8496Z" fill="white"/>
</svg>
