<svg width="46" height="46" viewBox="0 0 46 46" fill="none" xmlns="http://www.w3.org/2000/svg">
<g clip-path="url(#clip0)">
<path d="M45.3567 8.55924C43.6971 9.29435 41.9286 9.78161 40.0849 10.0182C41.9816 8.87469 43.4293 7.07775 44.1099 4.91184C42.3414 5.97649 40.3889 6.7285 38.308 7.14816C36.6288 5.34277 34.2356 4.22461 31.6248 4.22461C26.5593 4.22461 22.4813 8.37617 22.4813 13.4656C22.4813 14.1979 22.5427 14.9021 22.6933 15.5724C15.0867 15.1978 8.35604 11.5166 3.8345 5.90889C3.04512 7.2918 2.58209 8.87469 2.58209 10.5787C2.58209 13.7783 4.21386 16.6145 6.64617 18.2565C5.17618 18.2284 3.73409 17.7974 2.51235 17.1187C2.51235 17.1468 2.51235 17.1834 2.51235 17.22C2.51235 21.7096 5.68384 25.4387 9.84276 26.2977C9.098 26.5033 8.2863 26.6019 7.44392 26.6019C6.85816 26.6019 6.26681 26.5681 5.71173 26.4442C6.89721 30.1028 10.2612 32.7926 14.2611 32.8799C11.1482 35.3387 7.19567 36.8202 2.91681 36.8202C2.16648 36.8202 1.44682 36.7864 0.727173 36.6935C4.78009 39.3326 9.58335 40.8394 14.7632 40.8394C31.5997 40.8394 40.8045 26.7568 40.8045 14.55C40.8045 14.1416 40.7906 13.7473 40.771 13.3558C42.5869 12.0545 44.1127 10.4294 45.3567 8.55924Z" fill="#03A9F4"/>
</g>
<defs>
<clipPath id="clip0">
<rect width="44.6295" height="45.0644" fill="white" transform="translate(0.727173)"/>
</clipPath>
</defs>
</svg>
