<svg width="46" height="46" viewBox="0 0 46 46" fill="none" xmlns="http://www.w3.org/2000/svg">
<g clip-path="url(#clip0)">
<path d="M43.6804 11.8432L43.6809 11.8453C44.1431 13.5499 44.3719 16.2191 44.4823 18.4991C44.5371 19.6314 44.5623 20.6546 44.5737 21.3948C44.5794 21.7648 44.5817 22.0638 44.5826 22.27C44.583 22.3731 44.5831 22.453 44.583 22.5069L44.5829 22.568L44.5829 22.5833L44.5829 22.5871L44.5829 22.5879V22.5881L45.0828 22.5907L44.5828 22.5882V22.5907V22.5909V22.5917L44.5828 22.5955L44.5828 22.6107L44.5826 22.6716C44.5824 22.7253 44.582 22.8048 44.5811 22.9074C44.5793 23.1127 44.5757 23.4103 44.5686 23.7786C44.5543 24.5156 44.5257 25.5345 44.4686 26.6625C44.3537 28.9324 44.1252 31.5945 43.6803 33.3024C43.2106 35.0611 41.8373 36.446 40.1004 36.9185C39.2786 37.1367 37.7958 37.3086 35.9922 37.4394C34.2015 37.5692 32.1359 37.656 30.1747 37.7139C28.2143 37.7718 26.3623 37.8007 25.0002 37.8152C24.3192 37.8225 23.7608 37.8261 23.3729 37.8279C23.1789 37.8288 23.0276 37.8292 22.9248 37.8295L22.8078 37.8297L22.778 37.8297L22.7706 37.8297H22.7687H22.7683C22.7682 37.8297 22.7682 37.8297 22.7682 38.3297C22.7682 37.8297 22.7681 37.8297 22.768 37.8297H22.7676H22.7658L22.7583 37.8297L22.7286 37.8297L22.612 37.8295C22.5095 37.8292 22.3585 37.8288 22.165 37.8278C21.778 37.8259 21.221 37.8222 20.5415 37.8147C19.1823 37.7996 17.3338 37.7695 15.3759 37.7093C13.4171 37.6491 11.3529 37.5589 9.56095 37.424C7.75501 37.288 6.26784 37.1092 5.43812 36.8823L5.43741 36.8821C3.69957 36.4096 2.32543 35.024 1.85582 33.2645C1.41124 31.576 1.18269 28.9146 1.06773 26.6393C1.01062 25.509 0.982045 24.4866 0.967757 23.7468C0.960616 23.377 0.957049 23.078 0.955267 22.8718C0.954377 22.7687 0.953933 22.6888 0.953711 22.6349L0.953518 22.5737L0.953494 22.5584L0.953492 22.5546L0.953491 22.5537L0.953491 22.5535L0.453491 22.5535L0.953491 22.5535L0.953491 22.5533L0.953492 22.5524L0.953494 22.5487L0.953518 22.5334L0.953711 22.4726C0.953933 22.4189 0.954377 22.3394 0.955267 22.2367C0.957048 22.0315 0.960615 21.7338 0.967757 21.3655C0.982044 20.6285 1.01062 19.6096 1.06773 18.4816C1.18265 16.2117 1.41112 13.5498 1.85597 11.842C2.32555 10.0822 3.73699 8.66024 5.43688 8.18818C6.25896 7.97013 7.74117 7.79834 9.54385 7.66766C11.3345 7.53785 13.4001 7.45108 15.3613 7.39316C17.3217 7.33526 19.1737 7.3063 20.5358 7.29182C21.2168 7.28458 21.7751 7.28096 22.1631 7.27915C22.3571 7.27825 22.5084 7.27779 22.6112 7.27757L22.7282 7.27737L22.758 7.27735L22.7654 7.27734L22.7673 7.27734L22.7677 7.27734C22.7678 7.27734 22.7678 7.27734 22.7678 6.77734C22.7678 7.27734 22.7679 7.27734 22.768 7.27734L22.7684 7.27734L22.7702 7.27734L22.7777 7.27735L22.8075 7.27737L22.9244 7.27758C23.0272 7.27781 23.1785 7.27828 23.3725 7.27922C23.7604 7.2811 24.3187 7.28487 24.9997 7.29239C26.3618 7.30745 28.2137 7.33756 30.174 7.39774C32.135 7.45796 34.2004 7.54815 35.9907 7.68307C37.7953 7.81908 39.2771 7.99782 40.0969 8.22437L40.0989 8.2249C41.8368 8.69752 43.2113 10.0832 43.6804 11.8432Z" fill="#FF0000" stroke="black"/>
<path d="M18.32 29.3097L29.9368 22.5538L18.32 15.7979V29.3097Z" fill="white"/>
</g>
<defs>
<clipPath id="clip0">
<rect width="44.6295" height="45.0644" fill="white" transform="translate(0.453491)"/>
</clipPath>
</defs>
</svg>
